M48
;Layer_Color=9474304
;FILE_FORMAT=2:4
INCH,TZ
;TYPE=PLATED
T01F00S00C0.0079
T02F00S00C0.0354
T03F00S00C0.0390
T04F00S00C0.0394
T06F00S00C0.0402
T07F00S00C0.0500
T08F00S00C0.0591
;TYPE=NON_PLATED
T09F00S00C0.1181
T10F00S00C0.1260
T11F00S00C0.1339
%
T01
X33465Y11811
X35433
X40750Y11700
X41000
X41250
Y11450
Y11200
X41000
X40750
Y11450
X41000
X43307Y11811
X44291Y13780
X44300Y15200
X44900Y15150
X45650
X49550Y14250
X50457Y14256
X50197Y13780
X57800Y13500
X58200Y13650
X58550Y13750
X60039Y13780
X62350Y13200
X62150Y12900
X59055Y11811
X62550Y13500
X65600Y12450
Y12100
X67250Y12350
X67550Y12250
X68898Y15748
X70866
X69882Y17717
X70866Y19685
Y23622
X69882Y25591
X67913
X65945
X63976
X64961Y27559
X66929
X70866
X69600Y29950
Y30200
Y30450
X69350
Y30200
Y29950
X69100
Y30200
Y30450
X66929Y23622
X64961
X65945Y21654
X67913
X66929Y19685
X65850Y18800
Y18500
Y18200
Y17900
X65650Y19000
X65350
X65050
X64750
X64450
X64150
X63850
X63650Y19200
X63450Y19400
X63250Y19600
X63050Y19800
X62750
X62450
X62150
X61850
X61550
X61250
X60950
X60750Y20000
Y20250
Y20550
Y20850
Y21150
Y21450
Y21750
Y22050
Y22350
Y22650
Y22950
Y23250
Y23550
Y23850
Y24150
Y24450
Y24750
Y25050
Y25350
Y25650
Y25950
Y26250
Y26550
Y26850
Y27150
Y27450
Y27750
Y28050
Y28350
X60550Y29900
Y30150
Y30400
X60300
X60050
Y30150
X60300
Y29900
X60050
X60039Y25591
X62008
X59055Y23622
X60039Y21654
X58071
X56102
X55327Y22250
X53000
X53150Y21400
X53450Y21350
X53500Y23350
X53800Y23300
X51200Y23450
X51150Y23750
X50800Y22250
X51200Y21450
Y21150
X51181Y19685
X51750Y20050
X52850Y19700
X52165Y17717
X49500Y17600
X48228Y17717
X47000Y19250
X47250Y19750
X49450Y19300
X49950Y19550
X48800Y22650
X48500Y24200
X48300Y24400
X48700Y27700
X48450Y28350
X48350Y28650
X46950Y28350
X47100Y28100
X50000Y29250
X50200Y29050
X50100Y30000
X50300Y30200
X52450
X52800
X53150
X54600Y29050
X54750Y28800
X54783Y28100
X55317Y28300
X56317Y28800
X56102Y25591
X51181Y27559
X51800Y28550
X51181Y15748
X59055Y19685
X45276
X43307
X41339
X39370
X37402
X35433
Y23622
X37402
X39370
X41339
X43307
X45276
X44427Y25591
X42323
X43278Y27530
X41339Y27559
X39370
X37402
X35433
X33465
X34449Y29528
X39500Y29950
X39844Y30306
X40150Y30550
X40400Y30800
X42323Y29528
X43650Y30062
X44291Y29528
X45276Y27559
X45800Y26650
X45950Y26400
X44427Y21654
X42323
X38386
Y25591
Y17717
X40354
X41339Y15748
X44427Y17717
X46300Y17300
Y16950
X46650
X35433Y15748
X33465
Y31496
X35433
X37402
X37000Y34950
X35950Y34550
X34449Y33465
X33465Y35433
Y39370
X36000Y38276
X37850Y38650
X38850Y37450
X39370Y39370
X40400Y38900
X41339Y39370
X41300Y37950
X41000
X41650
X42000
X42323Y37402
X43307Y39370
X44291Y41339
X46260
Y45276
X44291
X42323
X40400Y46300
X38850Y44900
X39370Y43307
X40450Y42600
X41339Y43307
X38350Y42150
X38850Y41200
X35950Y41988
Y45689
X37450Y46050
X33465Y43307
X40450Y35300
X40354Y33465
X41339Y31496
X45276
X46450Y31400
X44291Y33465
X43307Y35433
X45276
X47244
X48228Y37402
X50332Y37550
X51515Y37100
X51550Y36800
X52500Y37250
X54134Y37402
X54300Y35600
X54200Y35350
X53182Y34900
X52957Y34695
X52750Y33550
X53250
X53000Y32400
X52950Y31700
X52650
X52350
X52050
X51750
X51450
X51500Y31400
Y33000
X50101Y33103
X50100Y32150
X48500Y31988
X47244Y31496
X48228Y33465
X50250Y35650
X51500Y34800
X54550Y33400
X54627Y32006
X54794Y31811
X53250Y31700
X55633Y32861
X56214Y33414
X56100Y35550
X59055Y35433
X60100Y33950
X60350
X60600
Y33700
X60350
X60100
Y33450
X60350
X60600
X61024Y31496
X59055
X60039Y37402
X61024Y39370
X59055
X58700Y40450
X58050Y40750
X57450Y41100
X57550Y41350
X56050Y41450
X55800Y41350
X55118Y43307
X56100Y44550
X56000Y44800
X50197Y45276
X48228
X50650Y41000
X51550
X52165Y41339
X47244Y39370
X60039Y41339
X62008
Y45276
X64850Y43100
X64750Y40100
Y39850
X64500
X64250
Y39600
X64000
Y39850
Y40100
X64250
X64500
Y39600
X64750
Y39350
Y39100
X64500
Y39350
X64250
Y39100
X64000
Y39350
X63750
Y39600
Y39850
Y40100
Y39100
Y38850
X64000
X64250
X64500
X64750
X65000
Y39100
Y39350
Y39600
Y39850
Y40100
X66929Y39370
X67913Y41339
X68350Y41850
Y42100
Y42350
X68600
X68850
Y42100
X68600
Y41850
X68850
X69882Y41339
X70866Y43307
X69882Y45276
X70866Y39370
X69882Y37402
X70866Y35433
X69550Y33950
X69300
X69050
Y33700
X69300
X69550
Y33450
X69300
X69050
X70866Y31496
X66929Y35433
X62992Y39370
Y47244
X64961
X66929
X61024
X57087
X49213
X47244
X45276
X43307
X38850Y48600
X37402Y47244
T02
X49650Y11850
X51650
T03
X42764Y34120
X44536
Y36680
X42764
T04
X52432Y45550
X53416
X54400
X55384
X57632
X58616
X59600
X60584
Y43000
X59600
X58616
X57632
X64397Y48150
X65381
X66366
X67350
X60603
X59619
X58634
X57650
X55376Y48157
X54392
X53408
X52424
T06
X33450Y20350
X34450
X36750Y18900
X37750
T07
X43623Y43520
X44623
X45623
X46623
X47623
X48623
X49623
X50623
T08
X60607Y14209
X61788
X62378Y15193
X61197
X63559
X64741
X65922
X67103
X66512Y14209
X67693
X65331
X64150
X62969
X63559Y16374
X64741
X65922
X67103
X66512Y17359
X67693
X65331
X64150
X62969
X61788
X60607
X61197Y16374
X62378
T09
X33800Y14200
X70550
Y48000
X33800
T10
X50296Y48150
X43950
T11
X57752Y11650
X70548
M30
