G04*
G04 #@! TF.GenerationSoftware,Altium Limited,Altium Designer,26.5.0 (11)*
G04*
G04 Layer_Color=255*
G04 Board_Origin=0|0*
%FSLAX25Y25*%
%MOIN*%
G70*
G04*
G04 #@! TF.SameCoordinates,D3051F98-D5A8-4F5C-B565-89D6D41F1FFC*
G04*
G04*
G04 #@! TF.FilePolarity,Positive*
G04*
G01*
G75*
G04:AMPARAMS|DCode=20|XSize=55.12mil|YSize=66.93mil|CornerRadius=6.89mil|HoleSize=0mil|Usage=FLASHONLY|Rotation=180.000|XOffset=0mil|YOffset=0mil|HoleType=Round|Shape=RoundedRectangle|*
%AMROUNDEDRECTD20*
21,1,0.05512,0.05315,0,0,180.0*
21,1,0.04134,0.06693,0,0,180.0*
1,1,0.01378,-0.02067,0.02657*
1,1,0.01378,0.02067,0.02657*
1,1,0.01378,0.02067,-0.02657*
1,1,0.01378,-0.02067,-0.02657*
%
%ADD20ROUNDEDRECTD20*%
G04:AMPARAMS|DCode=25|XSize=39.37mil|YSize=66.93mil|CornerRadius=4.92mil|HoleSize=0mil|Usage=FLASHONLY|Rotation=90.000|XOffset=0mil|YOffset=0mil|HoleType=Round|Shape=RoundedRectangle|*
%AMROUNDEDRECTD25*
21,1,0.03937,0.05709,0,0,90.0*
21,1,0.02953,0.06693,0,0,90.0*
1,1,0.00984,0.02854,0.01476*
1,1,0.00984,0.02854,-0.01476*
1,1,0.00984,-0.02854,-0.01476*
1,1,0.00984,-0.02854,0.01476*
%
%ADD25ROUNDEDRECTD25*%
%ADD79C,0.12598*%
%ADD101C,0.08858*%
%ADD102C,0.05394*%
%ADD103R,0.05394X0.05394*%
%ADD104C,0.13386*%
%ADD105R,0.08858X0.08858*%
%ADD106O,0.17717X0.08858*%
%ADD107O,0.19685X0.09843*%
%ADD108O,0.08858X0.17717*%
%ADD109C,0.05937*%
%ADD110R,0.05937X0.05937*%
%ADD111C,0.05898*%
%ADD112R,0.05898X0.05898*%
%ADD113C,0.05315*%
%ADD114C,0.07500*%
%ADD115C,0.06000*%
G04:AMPARAMS|DCode=119|XSize=62.21mil|YSize=23.62mil|CornerRadius=2.95mil|HoleSize=0mil|Usage=FLASHONLY|Rotation=90.000|XOffset=0mil|YOffset=0mil|HoleType=Round|Shape=RoundedRectangle|*
%AMROUNDEDRECTD119*
21,1,0.06221,0.01772,0,0,90.0*
21,1,0.05630,0.02362,0,0,90.0*
1,1,0.00591,0.00886,0.02815*
1,1,0.00591,0.00886,-0.02815*
1,1,0.00591,-0.00886,-0.02815*
1,1,0.00591,-0.00886,0.02815*
%
%ADD119ROUNDEDRECTD119*%
D20*
X572000Y392000D02*
D03*
X544500D02*
D03*
X562000Y350000D02*
D03*
Y339500D02*
D03*
X563000Y392000D02*
D03*
X553000Y350000D02*
D03*
Y339500D02*
D03*
X553500Y392000D02*
D03*
D25*
X576500Y374760D02*
D03*
Y382240D02*
D03*
D79*
X502965Y481500D02*
D03*
X439500D02*
D03*
D101*
X665122Y173587D02*
D03*
X659216Y163744D02*
D03*
X653311Y142091D02*
D03*
X611972Y163744D02*
D03*
X671028Y151933D02*
D03*
X629689Y173587D02*
D03*
X665122Y142091D02*
D03*
X647405Y163744D02*
D03*
X641500Y173587D02*
D03*
X606067Y142091D02*
D03*
X659216Y151933D02*
D03*
X653311Y173587D02*
D03*
X617878Y142091D02*
D03*
X623783Y163744D02*
D03*
Y151933D02*
D03*
X635595Y163744D02*
D03*
X676933Y142091D02*
D03*
X629689D02*
D03*
X606067Y173587D02*
D03*
X647405Y151933D02*
D03*
X617878Y173587D02*
D03*
X641500Y142091D02*
D03*
X635595Y151933D02*
D03*
X671028Y163744D02*
D03*
X611972Y151933D02*
D03*
D102*
X344500Y203500D02*
D03*
X367500Y189000D02*
D03*
D103*
X334500Y203500D02*
D03*
X377500Y189000D02*
D03*
D104*
X705476Y116500D02*
D03*
X577524D02*
D03*
D105*
X676933Y173587D02*
D03*
D106*
X544500Y132000D02*
D03*
D107*
X543000Y155500D02*
D03*
D108*
X561504Y143689D02*
D03*
D109*
X663658Y481500D02*
D03*
X653815D02*
D03*
X673500D02*
D03*
X586342D02*
D03*
X596185D02*
D03*
X606028D02*
D03*
X596000Y430000D02*
D03*
X586158D02*
D03*
X605842D02*
D03*
X544000Y455500D02*
D03*
X534158D02*
D03*
X553842D02*
D03*
X534079Y481567D02*
D03*
X543921D02*
D03*
X553764D02*
D03*
X596000Y455500D02*
D03*
X586158D02*
D03*
X605842D02*
D03*
D110*
X643972Y481500D02*
D03*
X576500D02*
D03*
X576315Y430000D02*
D03*
X524315Y455500D02*
D03*
X524236Y481567D02*
D03*
X576315Y455500D02*
D03*
D111*
X445358Y341205D02*
D03*
X427642D02*
D03*
Y366795D02*
D03*
D112*
X445358D02*
D03*
D113*
X496500Y118500D02*
D03*
X516500D02*
D03*
D114*
X506232Y435201D02*
D03*
X496232D02*
D03*
X486232D02*
D03*
X476232D02*
D03*
X456232D02*
D03*
X466232D02*
D03*
X446232D02*
D03*
X436232D02*
D03*
D115*
X338000Y480000D02*
D03*
Y142000D02*
D03*
X705500D02*
D03*
Y480000D02*
D03*
D119*
X561000Y360488D02*
D03*
Y381512D02*
D03*
X556000Y360488D02*
D03*
Y381512D02*
D03*
X566000D02*
D03*
X551000D02*
D03*
Y360488D02*
D03*
X566000D02*
D03*
M02*
