G04*
G04 #@! TF.GenerationSoftware,Altium Limited,Altium Designer,26.5.0 (11)*
G04*
G04 Layer_Color=128*
G04 Board_Origin=0|0*
%FSLAX25Y25*%
%MOIN*%
G70*
G04*
G04 #@! TF.SameCoordinates,D3051F98-D5A8-4F5C-B565-89D6D41F1FFC*
G04*
G04*
G04 #@! TF.FilePolarity,Positive*
G04*
G01*
G75*
%ADD13C,0.00500*%
D13*
X662169Y173587D02*
X668075D01*
X665122Y170634D02*
Y176539D01*
X342492Y203500D02*
X346508D01*
X344500Y201492D02*
Y205508D01*
X332492Y203500D02*
X336508D01*
X334500Y201492D02*
Y205508D01*
X698783Y116500D02*
X712169D01*
X705476Y109807D02*
Y123193D01*
X570831Y116500D02*
X584216D01*
X577524Y109807D02*
Y123193D01*
X656264Y163744D02*
X662169D01*
X659216Y160791D02*
Y166697D01*
X650358Y142091D02*
X656264D01*
X653311Y139138D02*
Y145043D01*
X609020Y163744D02*
X614925D01*
X611972Y160791D02*
Y166697D01*
X668075Y151933D02*
X673980D01*
X671028Y148980D02*
Y154886D01*
X626736Y173587D02*
X632642D01*
X629689Y170634D02*
Y176539D01*
X662169Y142091D02*
X668075D01*
X665122Y139138D02*
Y145043D01*
X644453Y163744D02*
X650358D01*
X647405Y160791D02*
Y166697D01*
X638547Y173587D02*
X644453D01*
X641500Y170634D02*
Y176539D01*
X603114Y142091D02*
X609020D01*
X606067Y139138D02*
Y145043D01*
X656264Y151933D02*
X662169D01*
X659216Y148980D02*
Y154886D01*
X673980Y173587D02*
X679886D01*
X676933Y170634D02*
Y176539D01*
X650358Y173587D02*
X656264D01*
X653311Y170634D02*
Y176539D01*
X614925Y142091D02*
X620831D01*
X617878Y139138D02*
Y145043D01*
X620831Y163744D02*
X626736D01*
X623783Y160791D02*
Y166697D01*
X620831Y151933D02*
X626736D01*
X623783Y148980D02*
Y154886D01*
X632642Y163744D02*
X638547D01*
X635595Y160791D02*
Y166697D01*
X673980Y142091D02*
X679886D01*
X676933Y139138D02*
Y145043D01*
X626736Y142091D02*
X632642D01*
X629689Y139138D02*
Y145043D01*
X603114Y173587D02*
X609020D01*
X606067Y170634D02*
Y176539D01*
X644453Y151933D02*
X650358D01*
X647405Y148980D02*
Y154886D01*
X614925Y173587D02*
X620831D01*
X617878Y170634D02*
Y176539D01*
X638547Y142091D02*
X644453D01*
X641500Y139138D02*
Y145043D01*
X632642Y151933D02*
X638547D01*
X635595Y148980D02*
Y154886D01*
X668075Y163744D02*
X673980D01*
X671028Y160791D02*
Y166697D01*
X609020Y151933D02*
X614925D01*
X611972Y148980D02*
Y154886D01*
X542531Y132000D02*
X546468D01*
X544500Y130032D02*
Y133968D01*
X541032Y155500D02*
X544969D01*
X543000Y153532D02*
Y157468D01*
X559535Y143689D02*
X563472D01*
X561504Y141720D02*
Y145658D01*
X661689Y481500D02*
X665626D01*
X663658Y479531D02*
Y483468D01*
X651847Y481500D02*
X655784D01*
X653815Y479531D02*
Y483468D01*
X671531Y481500D02*
X675468D01*
X673500Y479531D02*
Y483468D01*
X642004Y481500D02*
X645941D01*
X643972Y479531D02*
Y483468D01*
X584374Y481500D02*
X588311D01*
X586342Y479531D02*
Y483468D01*
X574532Y481500D02*
X578469D01*
X576500Y479531D02*
Y483468D01*
X594216Y481500D02*
X598153D01*
X596185Y479531D02*
Y483468D01*
X604059Y481500D02*
X607996D01*
X606028Y479531D02*
Y483468D01*
X594031Y430000D02*
X597968D01*
X596000Y428031D02*
Y431968D01*
X584189Y430000D02*
X588126D01*
X586158Y428031D02*
Y431968D01*
X574346Y430000D02*
X578284D01*
X576315Y428031D02*
Y431968D01*
X603874Y430000D02*
X607811D01*
X605842Y428031D02*
Y431968D01*
X443409Y341205D02*
X447307D01*
X445358Y339256D02*
Y343154D01*
X425693Y341205D02*
X429591D01*
X427642Y339256D02*
Y343154D01*
X425693Y366795D02*
X429591D01*
X427642Y364846D02*
Y368744D01*
X443409Y366795D02*
X447307D01*
X445358Y364846D02*
Y368744D01*
X365492Y189000D02*
X369508D01*
X367500Y186992D02*
Y191008D01*
X375492Y189000D02*
X379508D01*
X377500Y186992D02*
Y191008D01*
X542031Y455500D02*
X545968D01*
X544000Y453532D02*
Y457469D01*
X532189Y455500D02*
X536126D01*
X534158Y453532D02*
Y457469D01*
X522346Y455500D02*
X526284D01*
X524315Y453532D02*
Y457469D01*
X551874Y455500D02*
X555811D01*
X553842Y453532D02*
Y457469D01*
X532110Y481567D02*
X536047D01*
X534079Y479598D02*
Y483535D01*
X522268Y481567D02*
X526205D01*
X524236Y479598D02*
Y483535D01*
X541953Y481567D02*
X545890D01*
X543921Y479598D02*
Y483535D01*
X551795Y481567D02*
X555732D01*
X553764Y479598D02*
Y483535D01*
X594031Y455500D02*
X597968D01*
X596000Y453532D02*
Y457469D01*
X584189Y455500D02*
X588126D01*
X586158Y453532D02*
Y457469D01*
X574346Y455500D02*
X578284D01*
X576315Y453532D02*
Y457469D01*
X603874Y455500D02*
X607811D01*
X605842Y453532D02*
Y457469D01*
X494728Y118500D02*
X498272D01*
X496500Y116728D02*
Y120272D01*
X514728Y118500D02*
X518272D01*
X516500Y116728D02*
Y120272D01*
X496665Y481500D02*
X509264D01*
X502965Y475201D02*
Y487799D01*
X433201Y481500D02*
X445799D01*
X439500Y475201D02*
Y487799D01*
X503732Y435201D02*
X508732D01*
X506232Y432701D02*
Y437701D01*
X493732Y435201D02*
X498732D01*
X496232Y432701D02*
Y437701D01*
X483732Y435201D02*
X488732D01*
X486232Y432701D02*
Y437701D01*
X473732Y435201D02*
X478732D01*
X476232Y432701D02*
Y437701D01*
X453732Y435201D02*
X458732D01*
X456232Y432701D02*
Y437701D01*
X463732Y435201D02*
X468732D01*
X466232Y432701D02*
Y437701D01*
X443732Y435201D02*
X448732D01*
X446232Y432701D02*
Y437701D01*
X433732Y435201D02*
X438732D01*
X436232Y432701D02*
Y437701D01*
X332095Y480000D02*
X343905D01*
X338000Y474094D02*
Y485906D01*
X332095Y142000D02*
X343905D01*
X338000Y136094D02*
Y147906D01*
X699594Y142000D02*
X711406D01*
X705500Y136094D02*
Y147906D01*
X699594Y480000D02*
X711406D01*
X705500Y474094D02*
Y485906D01*
X647106Y398500D02*
X647894D01*
X647500Y398106D02*
Y398894D01*
X644606Y398500D02*
X645394D01*
X645000Y398106D02*
Y398894D01*
X642106Y398500D02*
X642894D01*
X642500Y398106D02*
Y398894D01*
X639606Y396000D02*
X640394D01*
X640000Y395606D02*
Y396394D01*
X647106Y391000D02*
X647894D01*
X647500Y390606D02*
Y391394D01*
X647106Y396000D02*
X647894D01*
X647500Y395606D02*
Y396394D01*
X644606Y393500D02*
X645394D01*
X645000Y393106D02*
Y393894D01*
X647106Y393500D02*
X647894D01*
X647500Y393106D02*
Y393894D01*
X644606Y396000D02*
X645394D01*
X645000Y395606D02*
Y396394D01*
X642106Y396000D02*
X642894D01*
X642500Y395606D02*
Y396394D01*
X642106Y393500D02*
X642894D01*
X642500Y393106D02*
Y393894D01*
X644606Y391000D02*
X645394D01*
X645000Y390606D02*
Y391394D01*
X642106Y391000D02*
X642894D01*
X642500Y390606D02*
Y391394D01*
X639606Y398500D02*
X640394D01*
X640000Y398106D02*
Y398894D01*
X639606Y393500D02*
X640394D01*
X640000Y393106D02*
Y393894D01*
X639606Y391000D02*
X640394D01*
X640000Y390606D02*
Y391394D01*
X502606Y302000D02*
X503394D01*
X503000Y301606D02*
Y302394D01*
X394606Y299500D02*
X395394D01*
X395000Y299106D02*
Y299894D01*
X369606Y349500D02*
X370394D01*
X370000Y349106D02*
Y349894D01*
X442606Y152000D02*
X443394D01*
X443000Y151606D02*
Y152394D01*
X470606Y281000D02*
X471394D01*
X471000Y280606D02*
Y281394D01*
X541606Y353500D02*
X542394D01*
X542000Y353106D02*
Y353894D01*
X655606Y121000D02*
X656394D01*
X656000Y120606D02*
Y121394D01*
X672106Y123500D02*
X672894D01*
X672500Y123106D02*
Y123894D01*
X621106Y129000D02*
X621894D01*
X621500Y128606D02*
Y129394D01*
X466106Y169500D02*
X466894D01*
X466500Y169106D02*
Y169894D01*
X577606Y135000D02*
X578394D01*
X578000Y134606D02*
Y135394D01*
X398044Y303062D02*
X398831D01*
X398438Y302669D02*
Y303456D01*
X495106Y142500D02*
X495894D01*
X495500Y142106D02*
Y142894D01*
X374106Y460500D02*
X374894D01*
X374500Y460106D02*
Y460894D01*
X448606Y151500D02*
X449394D01*
X449000Y151106D02*
Y151894D01*
X401106Y305500D02*
X401894D01*
X401500Y305106D02*
Y305894D01*
X378106Y386500D02*
X378894D01*
X378500Y386106D02*
Y386894D01*
X504178Y142564D02*
X504966D01*
X504572Y142170D02*
Y142958D01*
X456106Y151500D02*
X456894D01*
X456500Y151106D02*
Y151894D01*
X459106Y264000D02*
X459894D01*
X459500Y263606D02*
Y264394D01*
X585106Y137500D02*
X585894D01*
X585500Y137106D02*
Y137894D01*
X517606Y285500D02*
X518394D01*
X518000Y285106D02*
Y285894D01*
X625106Y135000D02*
X625894D01*
X625500Y134606D02*
Y135394D01*
X462606Y173000D02*
X463394D01*
X463000Y172606D02*
Y173394D01*
X486606Y277000D02*
X487394D01*
X487000Y276606D02*
Y277394D01*
X487606Y226500D02*
X488394D01*
X488000Y226106D02*
Y226894D01*
X494106Y193000D02*
X494894D01*
X494500Y192606D02*
Y193394D01*
X494606Y176000D02*
X495394D01*
X495000Y175606D02*
Y176394D01*
X528106Y197000D02*
X528894D01*
X528500Y196606D02*
Y197394D01*
X511606Y214500D02*
X512394D01*
X512000Y214106D02*
Y214894D01*
X511606Y234500D02*
X512394D01*
X512000Y234106D02*
Y234894D01*
X547437Y281000D02*
X548224D01*
X547831Y280606D02*
Y281394D01*
X403606Y308000D02*
X404394D01*
X404000Y307606D02*
Y308394D01*
X383106Y421500D02*
X383894D01*
X383500Y421106D02*
Y421894D01*
X531106Y214000D02*
X531894D01*
X531500Y213606D02*
Y214394D01*
X534606Y233500D02*
X535394D01*
X535000Y233106D02*
Y233894D01*
X562776Y288000D02*
X563563D01*
X563169Y287606D02*
Y288394D01*
X552874Y222500D02*
X553661D01*
X553268Y222106D02*
Y222894D01*
X545876Y320063D02*
X546663D01*
X546269Y319669D02*
Y320457D01*
X555937Y328612D02*
X556724D01*
X556331Y328219D02*
Y329006D01*
X561744Y334138D02*
X562531D01*
X562138Y333744D02*
Y334531D01*
X409606Y112000D02*
X410394D01*
X410000Y111606D02*
Y112394D01*
X407106Y117000D02*
X407894D01*
X407500Y116606D02*
Y117394D01*
X409606Y117000D02*
X410394D01*
X410000Y116606D02*
Y117394D01*
X412106Y117000D02*
X412894D01*
X412500Y116606D02*
Y117394D01*
X412106Y112000D02*
X412894D01*
X412500Y111606D02*
Y112394D01*
X407106Y114500D02*
X407894D01*
X407500Y114106D02*
Y114894D01*
X412106Y114500D02*
X412894D01*
X412500Y114106D02*
Y114894D01*
X407106Y112000D02*
X407894D01*
X407500Y111606D02*
Y112394D01*
X409606Y114500D02*
X410394D01*
X410000Y114106D02*
Y114894D01*
X500612Y331028D02*
X501399D01*
X501006Y330634D02*
Y331422D01*
X464106Y314000D02*
X464894D01*
X464500Y313606D02*
Y314394D01*
X484606Y242000D02*
X485394D01*
X485000Y241606D02*
Y242394D01*
X469606Y192500D02*
X470394D01*
X470000Y192106D02*
Y192894D01*
X472106Y197500D02*
X472894D01*
X472500Y197106D02*
Y197894D01*
X685606Y423500D02*
X686394D01*
X686000Y423106D02*
Y423894D01*
X688106Y423500D02*
X688894D01*
X688500Y423106D02*
Y423894D01*
X683106Y423500D02*
X683894D01*
X683500Y423106D02*
Y423894D01*
X685606Y421000D02*
X686394D01*
X686000Y420606D02*
Y421394D01*
X683106Y421000D02*
X683894D01*
X683500Y420606D02*
Y421394D01*
X688106Y421000D02*
X688894D01*
X688500Y420606D02*
Y421394D01*
X688106Y418500D02*
X688894D01*
X688500Y418106D02*
Y418894D01*
X685606Y418500D02*
X686394D01*
X686000Y418106D02*
Y418894D01*
X692606Y339500D02*
X693394D01*
X693000Y339106D02*
Y339894D01*
X695106Y339500D02*
X695894D01*
X695500Y339106D02*
Y339894D01*
X690106Y339500D02*
X690894D01*
X690500Y339106D02*
Y339894D01*
X683106Y418500D02*
X683894D01*
X683500Y418106D02*
Y418894D01*
X600606Y339500D02*
X601394D01*
X601000Y339106D02*
Y339894D01*
X605606Y339500D02*
X606394D01*
X606000Y339106D02*
Y339894D01*
X603106Y339500D02*
X603894D01*
X603500Y339106D02*
Y339894D01*
X695106Y337000D02*
X695894D01*
X695500Y336606D02*
Y337394D01*
X692606Y334500D02*
X693394D01*
X693000Y334106D02*
Y334894D01*
X692606Y337000D02*
X693394D01*
X693000Y336606D02*
Y337394D01*
X695106Y334500D02*
X695894D01*
X695500Y334106D02*
Y334894D01*
X690106Y334500D02*
X690894D01*
X690500Y334106D02*
Y334894D01*
X690106Y337000D02*
X690894D01*
X690500Y336606D02*
Y337394D01*
X695606Y304500D02*
X696394D01*
X696000Y304106D02*
Y304894D01*
X693106Y302000D02*
X693894D01*
X693500Y301606D02*
Y302394D01*
X693106Y304500D02*
X693894D01*
X693500Y304106D02*
Y304894D01*
X695606Y302000D02*
X696394D01*
X696000Y301606D02*
Y302394D01*
X695606Y299500D02*
X696394D01*
X696000Y299106D02*
Y299894D01*
X693106Y299500D02*
X693894D01*
X693500Y299106D02*
Y299894D01*
X690606Y302000D02*
X691394D01*
X691000Y301606D02*
Y302394D01*
X690606Y299500D02*
X691394D01*
X691000Y299106D02*
Y299894D01*
X690606Y304500D02*
X691394D01*
X691000Y304106D02*
Y304894D01*
X605606Y337000D02*
X606394D01*
X606000Y336606D02*
Y337394D01*
X603106Y337000D02*
X603894D01*
X603500Y336606D02*
Y337394D01*
X600606Y334500D02*
X601394D01*
X601000Y334106D02*
Y334894D01*
X600606Y337000D02*
X601394D01*
X601000Y336606D02*
Y337394D01*
X603106Y334500D02*
X603894D01*
X603500Y334106D02*
Y334894D01*
X605606Y334500D02*
X606394D01*
X606000Y334106D02*
Y334894D01*
X605106Y301500D02*
X605894D01*
X605500Y301106D02*
Y301894D01*
X605106Y304000D02*
X605894D01*
X605500Y303606D02*
Y304394D01*
X605106Y299000D02*
X605894D01*
X605500Y298606D02*
Y299394D01*
X602606Y299000D02*
X603394D01*
X603000Y298606D02*
Y299394D01*
X602606Y304000D02*
X603394D01*
X603000Y303606D02*
Y304394D01*
X600106Y301500D02*
X600894D01*
X600500Y301106D02*
Y301894D01*
X600106Y304000D02*
X600894D01*
X600500Y303606D02*
Y304394D01*
X602606Y301500D02*
X603394D01*
X603000Y301106D02*
Y301894D01*
X600106Y299000D02*
X600894D01*
X600500Y298606D02*
Y299394D01*
X529606Y222500D02*
X530394D01*
X530000Y222106D02*
Y222894D01*
X507606Y222500D02*
X508394D01*
X508000Y222106D02*
Y222894D01*
X359106Y456890D02*
X359894D01*
X359500Y456496D02*
Y457283D01*
X359106Y419880D02*
X359894D01*
X359500Y419486D02*
Y420274D01*
X359606Y382760D02*
X360394D01*
X360000Y382366D02*
Y383154D01*
X359106Y345500D02*
X359894D01*
X359500Y345106D02*
Y345894D01*
X483106Y286500D02*
X483894D01*
X483500Y286106D02*
Y286894D01*
X499606Y292500D02*
X500394D01*
X500000Y292106D02*
Y292894D01*
X500606Y300000D02*
X501394D01*
X501000Y299606D02*
Y300394D01*
X586606Y404500D02*
X587394D01*
X587000Y404106D02*
Y404894D01*
X580106Y407500D02*
X580894D01*
X580500Y407106D02*
Y407894D01*
X574106Y411000D02*
X574894D01*
X574500Y410606D02*
Y411394D01*
X557606Y413500D02*
X558394D01*
X558000Y413106D02*
Y413894D01*
X560606Y445500D02*
X561394D01*
X561000Y445106D02*
Y445894D01*
X648106Y431000D02*
X648894D01*
X648500Y430606D02*
Y431394D01*
X529177Y346952D02*
X529965D01*
X529571Y346559D02*
Y347346D01*
X531429Y349000D02*
X532217D01*
X531823Y348606D02*
Y349394D01*
X527106Y335500D02*
X527894D01*
X527500Y335106D02*
Y335894D01*
X532106Y335500D02*
X532894D01*
X532500Y335106D02*
Y335894D01*
X526106Y317000D02*
X526894D01*
X526500Y316606D02*
Y317394D01*
X514752Y371000D02*
X515539D01*
X515146Y370606D02*
Y371394D01*
X515106Y410000D02*
X515894D01*
X515500Y409606D02*
Y410394D01*
X419606Y379500D02*
X420394D01*
X420000Y379106D02*
Y379894D01*
X416106Y379500D02*
X416894D01*
X416500Y379106D02*
Y379894D01*
X412606Y379500D02*
X413394D01*
X413000Y379106D02*
Y379894D01*
X409606Y379500D02*
X410394D01*
X410000Y379106D02*
Y379894D01*
X520106Y317000D02*
X520894D01*
X520500Y316606D02*
Y317394D01*
X523106Y317000D02*
X523894D01*
X523500Y316606D02*
Y317394D01*
X506106Y410000D02*
X506894D01*
X506500Y409606D02*
Y410394D01*
X514106Y317000D02*
X514894D01*
X514500Y316606D02*
Y317394D01*
X514606Y330000D02*
X515394D01*
X515000Y329606D02*
Y330394D01*
X517106Y317000D02*
X517894D01*
X517500Y316606D02*
Y317394D01*
X545606Y290500D02*
X546394D01*
X546000Y290106D02*
Y290894D01*
X529106Y317000D02*
X529894D01*
X529500Y316606D02*
Y317394D01*
X531106Y302000D02*
X531894D01*
X531500Y301606D02*
Y302394D01*
X527606Y302000D02*
X528394D01*
X528000Y301606D02*
Y302394D01*
X524106Y302000D02*
X524894D01*
X524500Y301606D02*
Y302394D01*
X658106Y185000D02*
X658894D01*
X658500Y184606D02*
Y185394D01*
X658106Y182000D02*
X658894D01*
X658500Y181606D02*
Y182394D01*
X658106Y179000D02*
X658894D01*
X658500Y178606D02*
Y179394D01*
X658106Y188000D02*
X658894D01*
X658500Y187606D02*
Y188394D01*
X641106Y190000D02*
X641894D01*
X641500Y189606D02*
Y190394D01*
X644106Y190000D02*
X644894D01*
X644500Y189606D02*
Y190394D01*
X647106Y190000D02*
X647894D01*
X647500Y189606D02*
Y190394D01*
X650106Y190000D02*
X650894D01*
X650500Y189606D02*
Y190394D01*
X653106Y190000D02*
X653894D01*
X653500Y189606D02*
Y190394D01*
X656106Y190000D02*
X656894D01*
X656500Y189606D02*
Y190394D01*
X632106Y196000D02*
X632894D01*
X632500Y195606D02*
Y196394D01*
X634106Y194000D02*
X634894D01*
X634500Y193606D02*
Y194394D01*
X636106Y192000D02*
X636894D01*
X636500Y191606D02*
Y192394D01*
X638106Y190000D02*
X638894D01*
X638500Y189606D02*
Y190394D01*
X612106Y198000D02*
X612894D01*
X612500Y197606D02*
Y198394D01*
X615106Y198000D02*
X615894D01*
X615500Y197606D02*
Y198394D01*
X627106Y198000D02*
X627894D01*
X627500Y197606D02*
Y198394D01*
X630106Y198000D02*
X630894D01*
X630500Y197606D02*
Y198394D01*
X618106Y198000D02*
X618894D01*
X618500Y197606D02*
Y198394D01*
X621106Y198000D02*
X621894D01*
X621500Y197606D02*
Y198394D01*
X624106Y198000D02*
X624894D01*
X624500Y197606D02*
Y198394D01*
X609106Y198000D02*
X609894D01*
X609500Y197606D02*
Y198394D01*
X607106Y200000D02*
X607894D01*
X607500Y199606D02*
Y200394D01*
X607106Y202500D02*
X607894D01*
X607500Y202106D02*
Y202894D01*
X607106Y205500D02*
X607894D01*
X607500Y205106D02*
Y205894D01*
X607106Y208500D02*
X607894D01*
X607500Y208106D02*
Y208894D01*
X607106Y211500D02*
X607894D01*
X607500Y211106D02*
Y211894D01*
X607106Y223500D02*
X607894D01*
X607500Y223106D02*
Y223894D01*
X607106Y226500D02*
X607894D01*
X607500Y226106D02*
Y226894D01*
X607106Y214500D02*
X607894D01*
X607500Y214106D02*
Y214894D01*
X607106Y217500D02*
X607894D01*
X607500Y217106D02*
Y217894D01*
X607106Y232500D02*
X607894D01*
X607500Y232106D02*
Y232894D01*
X607106Y235500D02*
X607894D01*
X607500Y235106D02*
Y235894D01*
X607106Y238500D02*
X607894D01*
X607500Y238106D02*
Y238894D01*
X607106Y241500D02*
X607894D01*
X607500Y241106D02*
Y241894D01*
X607106Y229500D02*
X607894D01*
X607500Y229106D02*
Y229894D01*
X607106Y244500D02*
X607894D01*
X607500Y244106D02*
Y244894D01*
X607106Y220500D02*
X607894D01*
X607500Y220106D02*
Y220894D01*
X607106Y265500D02*
X607894D01*
X607500Y265106D02*
Y265894D01*
X607106Y268500D02*
X607894D01*
X607500Y268106D02*
Y268894D01*
X607106Y271500D02*
X607894D01*
X607500Y271106D02*
Y271894D01*
X607106Y259500D02*
X607894D01*
X607500Y259106D02*
Y259894D01*
X607106Y262500D02*
X607894D01*
X607500Y262106D02*
Y262894D01*
X607106Y247500D02*
X607894D01*
X607500Y247106D02*
Y247894D01*
X607106Y250500D02*
X607894D01*
X607500Y250106D02*
Y250894D01*
X607106Y253500D02*
X607894D01*
X607500Y253106D02*
Y253894D01*
X607106Y256500D02*
X607894D01*
X607500Y256106D02*
Y256894D01*
X607106Y274500D02*
X607894D01*
X607500Y274106D02*
Y274894D01*
X607106Y277500D02*
X607894D01*
X607500Y277106D02*
Y277894D01*
X607106Y280500D02*
X607894D01*
X607500Y280106D02*
Y280894D01*
X607106Y283500D02*
X607894D01*
X607500Y283106D02*
Y283894D01*
X698425Y452756D02*
X699213D01*
X698819Y452362D02*
Y453150D01*
X708268Y433071D02*
X709055D01*
X708661Y432677D02*
Y433465D01*
X668898Y472441D02*
X669685D01*
X669291Y472047D02*
Y472835D01*
X649213Y472441D02*
X650000D01*
X649606Y472047D02*
Y472835D01*
X678740Y413386D02*
X679528D01*
X679134Y412992D02*
Y413779D01*
X698425Y413386D02*
X699213D01*
X698819Y412992D02*
Y413779D01*
X649606Y401000D02*
X650394D01*
X650000Y400606D02*
Y401394D01*
X649606Y398500D02*
X650394D01*
X650000Y398106D02*
Y398894D01*
X644606Y401000D02*
X645394D01*
X645000Y400606D02*
Y401394D01*
X642106Y401000D02*
X642894D01*
X642500Y400606D02*
Y401394D01*
X647106Y401000D02*
X647894D01*
X647500Y400606D02*
Y401394D01*
X708268Y393701D02*
X709055D01*
X708661Y393307D02*
Y394094D01*
X668898Y393701D02*
X669685D01*
X669291Y393307D02*
Y394094D01*
X649606Y391000D02*
X650394D01*
X650000Y390606D02*
Y391394D01*
X649606Y393500D02*
X650394D01*
X650000Y393106D02*
Y393894D01*
X649606Y396000D02*
X650394D01*
X650000Y395606D02*
Y396394D01*
X698425Y374016D02*
X699213D01*
X698819Y373622D02*
Y374410D01*
X649606Y388500D02*
X650394D01*
X650000Y388106D02*
Y388894D01*
X647106Y388500D02*
X647894D01*
X647500Y388106D02*
Y388894D01*
X644606Y388500D02*
X645394D01*
X645000Y388106D02*
Y388894D01*
X639606Y388500D02*
X640394D01*
X640000Y388106D02*
Y388894D01*
X642106Y388500D02*
X642894D01*
X642500Y388106D02*
Y388894D01*
X629528Y472441D02*
X630315D01*
X629921Y472047D02*
Y472835D01*
X619685Y413386D02*
X620472D01*
X620079Y412992D02*
Y413779D01*
X639606Y401000D02*
X640394D01*
X640000Y400606D02*
Y401394D01*
X637106Y398500D02*
X637894D01*
X637500Y398106D02*
Y398894D01*
X637106Y401000D02*
X637894D01*
X637500Y400606D02*
Y401394D01*
X637106Y396000D02*
X637894D01*
X637500Y395606D02*
Y396394D01*
X609842Y472441D02*
X610630D01*
X610236Y472047D02*
Y472835D01*
X619685Y452756D02*
X620472D01*
X620079Y452362D02*
Y453150D01*
X570472Y472441D02*
X571260D01*
X570866Y472047D02*
Y472835D01*
X575106Y413500D02*
X575894D01*
X575500Y413106D02*
Y413894D01*
X560106Y414500D02*
X560894D01*
X560500Y414106D02*
Y414894D01*
X600000Y413386D02*
X600787D01*
X600394Y412992D02*
Y413779D01*
X559606Y448000D02*
X560394D01*
X560000Y447606D02*
Y448394D01*
X550787Y433071D02*
X551575D01*
X551181Y432677D02*
Y433465D01*
X521260Y413386D02*
X522047D01*
X521654Y412992D02*
Y413779D01*
X637106Y393500D02*
X637894D01*
X637500Y393106D02*
Y393894D01*
X637106Y391000D02*
X637894D01*
X637500Y390606D02*
Y391394D01*
X609842Y393701D02*
X610630D01*
X610236Y393307D02*
Y394094D01*
X590158Y393701D02*
X590945D01*
X590551Y393307D02*
Y394094D01*
X629528Y393701D02*
X630315D01*
X629921Y393307D02*
Y394094D01*
X637106Y388500D02*
X637894D01*
X637500Y388106D02*
Y388894D01*
X600000Y374016D02*
X600787D01*
X600394Y373622D02*
Y374410D01*
X540945Y374016D02*
X541732D01*
X541339Y373622D02*
Y374410D01*
X524606Y372500D02*
X525394D01*
X525000Y372106D02*
Y372894D01*
X542606Y356000D02*
X543394D01*
X543000Y355606D02*
Y356394D01*
X515106Y368000D02*
X515894D01*
X515500Y367606D02*
Y368394D01*
X708268Y314961D02*
X709055D01*
X708661Y314567D02*
Y315354D01*
X708268Y275591D02*
X709055D01*
X708661Y275197D02*
Y275984D01*
X708268Y354331D02*
X709055D01*
X708661Y353937D02*
Y354724D01*
X668898Y354331D02*
X669685D01*
X669291Y353937D02*
Y354724D01*
X668898Y275591D02*
X669685D01*
X669291Y275197D02*
Y275984D01*
X708268Y236221D02*
X709055D01*
X708661Y235827D02*
Y236614D01*
X698425Y255906D02*
X699213D01*
X698819Y255512D02*
Y256299D01*
X678740Y255906D02*
X679528D01*
X679134Y255512D02*
Y256299D01*
X668898Y236221D02*
X669685D01*
X669291Y235827D02*
Y236614D01*
X649213Y275591D02*
X650000D01*
X649606Y275197D02*
Y275984D01*
X609842Y314961D02*
X610630D01*
X610236Y314567D02*
Y315354D01*
X619685Y255906D02*
X620472D01*
X620079Y255512D02*
Y256299D01*
X600000Y255906D02*
X600787D01*
X600394Y255512D02*
Y256299D01*
X659055Y255906D02*
X659842D01*
X659449Y255512D02*
Y256299D01*
X639370Y255906D02*
X640158D01*
X639764Y255512D02*
Y256299D01*
X649213Y236221D02*
X650000D01*
X649606Y235827D02*
Y236614D01*
X678740Y216535D02*
X679528D01*
X679134Y216142D02*
Y216929D01*
X708268Y196850D02*
X709055D01*
X708661Y196457D02*
Y197244D01*
X668898Y196850D02*
X669685D01*
X669291Y196457D02*
Y197244D01*
X659055Y216535D02*
X659842D01*
X659449Y216142D02*
Y216929D01*
X698425Y177165D02*
X699213D01*
X698819Y176772D02*
Y177559D01*
X688583Y157480D02*
X689370D01*
X688976Y157087D02*
Y157874D01*
X708268Y157480D02*
X709055D01*
X708661Y157087D02*
Y157874D01*
X675106Y122500D02*
X675894D01*
X675500Y122106D02*
Y122894D01*
X600000Y216535D02*
X600787D01*
X600394Y216142D02*
Y216929D01*
X655606Y124500D02*
X656394D01*
X656000Y124106D02*
Y124894D01*
X623106Y132000D02*
X623894D01*
X623500Y131606D02*
Y132394D01*
X600000Y137795D02*
X600787D01*
X600394Y137402D02*
Y138189D01*
X590158Y118110D02*
X590945D01*
X590551Y117717D02*
Y118504D01*
X590158Y354331D02*
X590945D01*
X590551Y353937D02*
Y354724D01*
X560606Y355500D02*
X561394D01*
X561000Y355106D02*
Y355894D01*
X547544Y318107D02*
X548332D01*
X547938Y317714D02*
Y318501D01*
X545106Y334000D02*
X545894D01*
X545500Y333606D02*
Y334394D01*
X590158Y314961D02*
X590945D01*
X590551Y314567D02*
Y315354D01*
X514606Y348000D02*
X515394D01*
X515000Y347606D02*
Y348394D01*
X529606Y324000D02*
X530394D01*
X530000Y323606D02*
Y324394D01*
X532106Y317000D02*
X532894D01*
X532500Y316606D02*
Y317394D01*
X514606Y314000D02*
X515394D01*
X515000Y313606D02*
Y314394D01*
X590158Y236221D02*
X590945D01*
X590551Y235827D02*
Y236614D01*
X560630Y216535D02*
X561417D01*
X561024Y216142D02*
Y216929D01*
X552776Y283000D02*
X553563D01*
X553169Y282606D02*
Y283394D01*
X547106Y288000D02*
X547894D01*
X547500Y287606D02*
Y288394D01*
X560630Y255906D02*
X561417D01*
X561024Y255512D02*
Y256299D01*
X590158Y196850D02*
X590945D01*
X590551Y196457D02*
Y197244D01*
X580315Y216535D02*
X581102D01*
X580709Y216142D02*
Y216929D01*
X581606Y136500D02*
X582394D01*
X582000Y136106D02*
Y136894D01*
X537606Y233000D02*
X538394D01*
X538000Y232606D02*
Y233394D01*
X534106Y213500D02*
X534894D01*
X534500Y213106D02*
Y213894D01*
X521260Y177165D02*
X522047D01*
X521654Y176772D02*
Y177559D01*
X517106Y200500D02*
X517894D01*
X517500Y200106D02*
Y200894D01*
X472047Y472441D02*
X472835D01*
X472441Y472047D02*
Y472835D01*
X452362Y472441D02*
X453150D01*
X452756Y472047D02*
Y472835D01*
X491732Y472441D02*
X492520D01*
X492126Y472047D02*
Y472835D01*
X462205Y452756D02*
X462992D01*
X462598Y452362D02*
Y453150D01*
X432677Y472441D02*
X433465D01*
X433071Y472047D02*
Y472835D01*
X422835Y452756D02*
X423622D01*
X423228Y452362D02*
Y453150D01*
X442520Y452756D02*
X443307D01*
X442913Y452362D02*
Y453150D01*
X501575Y452756D02*
X502362D01*
X501968Y452362D02*
Y453150D01*
X481890Y452756D02*
X482677D01*
X482283Y452362D02*
Y453150D01*
X442520Y413386D02*
X443307D01*
X442913Y412992D02*
Y413779D01*
X462205Y413386D02*
X462992D01*
X462598Y412992D02*
Y413779D01*
X412992Y433071D02*
X413779D01*
X413386Y432677D02*
Y433465D01*
X404106Y426000D02*
X404894D01*
X404500Y425606D02*
Y426394D01*
X502929Y375500D02*
X503717D01*
X503323Y375106D02*
Y375894D01*
X472047Y393701D02*
X472835D01*
X472441Y393307D02*
Y394094D01*
X502106Y356500D02*
X502894D01*
X502500Y356106D02*
Y356894D01*
X481890Y374016D02*
X482677D01*
X482283Y373622D02*
Y374410D01*
X472047Y354331D02*
X472835D01*
X472441Y353937D02*
Y354724D01*
X432677Y393701D02*
X433465D01*
X433071Y393307D02*
Y394094D01*
X412992Y393701D02*
X413779D01*
X413386Y393307D02*
Y394094D01*
X422835Y374016D02*
X423622D01*
X423228Y373622D02*
Y374410D01*
X432677Y354331D02*
X433465D01*
X433071Y353937D02*
Y354724D01*
X452362Y354331D02*
X453150D01*
X452756Y353937D02*
Y354724D01*
X404106Y353000D02*
X404894D01*
X404500Y352606D02*
Y353394D01*
X403606Y463000D02*
X404394D01*
X404000Y462606D02*
Y463394D01*
X388106Y486000D02*
X388894D01*
X388500Y485606D02*
Y486394D01*
X388106Y449000D02*
X388894D01*
X388500Y448606D02*
Y449394D01*
X393307Y433071D02*
X394094D01*
X393701Y432677D02*
Y433465D01*
X373622Y472441D02*
X374410D01*
X374016Y472047D02*
Y472835D01*
X334252Y433071D02*
X335039D01*
X334646Y432677D02*
Y433465D01*
X403606Y389000D02*
X404394D01*
X404000Y388606D02*
Y389394D01*
X388106Y412000D02*
X388894D01*
X388500Y411606D02*
Y412394D01*
X393307Y393701D02*
X394094D01*
X393701Y393307D02*
Y394094D01*
X388106Y374500D02*
X388894D01*
X388500Y374106D02*
Y374894D01*
X334252Y393701D02*
X335039D01*
X334646Y393307D02*
Y394094D01*
X334252Y354331D02*
X335039D01*
X334646Y353937D02*
Y354724D01*
X500606Y321500D02*
X501394D01*
X501000Y321106D02*
Y321894D01*
X484606Y319881D02*
X485394D01*
X485000Y319487D02*
Y320275D01*
X501606Y290500D02*
X502394D01*
X502000Y290106D02*
Y290894D01*
X511417Y275591D02*
X512205D01*
X511811Y275197D02*
Y275984D01*
X481890Y334646D02*
X482677D01*
X482283Y334252D02*
Y335039D01*
X452362Y314961D02*
X453150D01*
X452756Y314567D02*
Y315354D01*
X472047Y314961D02*
X472835D01*
X472441Y314567D02*
Y315354D01*
X442520Y334646D02*
X443307D01*
X442913Y334252D02*
Y335039D01*
X436106Y300619D02*
X436894D01*
X436500Y300225D02*
Y301013D01*
X484106Y283500D02*
X484894D01*
X484500Y283106D02*
Y283894D01*
X469106Y283500D02*
X469894D01*
X469500Y283106D02*
Y283894D01*
X457606Y266500D02*
X458394D01*
X458000Y266106D02*
Y266894D01*
X442520Y295276D02*
X443307D01*
X442913Y294882D02*
Y295669D01*
X452362Y275591D02*
X453150D01*
X452756Y275197D02*
Y275984D01*
X511106Y237500D02*
X511894D01*
X511500Y237106D02*
Y237894D01*
X511606Y211500D02*
X512394D01*
X512000Y211106D02*
Y211894D01*
X482606Y244000D02*
X483394D01*
X483000Y243606D02*
Y244394D01*
X511417Y157480D02*
X512205D01*
X511811Y157087D02*
Y157874D01*
X511417Y196850D02*
X512205D01*
X511811Y196457D02*
Y197244D01*
X501575Y137795D02*
X502362D01*
X501968Y137402D02*
Y138189D01*
X499106Y195500D02*
X499894D01*
X499500Y195106D02*
Y195894D01*
X452362Y236221D02*
X453150D01*
X452756Y235827D02*
Y236614D01*
X443874Y255906D02*
X444661D01*
X444268Y255512D02*
Y256299D01*
X443874Y216535D02*
X444661D01*
X444268Y216142D02*
Y216929D01*
X481890Y177165D02*
X482677D01*
X482283Y176772D02*
Y177559D01*
X462606Y169500D02*
X463394D01*
X463000Y169106D02*
Y169894D01*
X452362Y196850D02*
X453150D01*
X452756Y196457D02*
Y197244D01*
X443874Y177165D02*
X444661D01*
X444268Y176772D02*
Y177559D01*
X442520Y137795D02*
X443307D01*
X442913Y137402D02*
Y138189D01*
X422835Y295276D02*
X423622D01*
X423228Y294882D02*
Y295669D01*
X412992Y275591D02*
X413779D01*
X413386Y275197D02*
Y275984D01*
X432389Y275303D02*
X433177D01*
X432783Y274909D02*
Y275696D01*
X412992Y314961D02*
X413779D01*
X413386Y314567D02*
Y315354D01*
X403150Y334646D02*
X403937D01*
X403543Y334252D02*
Y335039D01*
X393307Y275591D02*
X394094D01*
X393701Y275197D02*
Y275984D01*
X422835Y255906D02*
X423622D01*
X423228Y255512D02*
Y256299D01*
X412992Y236221D02*
X413779D01*
X413386Y235827D02*
Y236614D01*
X432677Y236221D02*
X433465D01*
X433071Y235827D02*
Y236614D01*
X383465Y255906D02*
X384252D01*
X383858Y255512D02*
Y256299D01*
X373622Y236221D02*
X374410D01*
X374016Y235827D02*
Y236614D01*
X393307Y236221D02*
X394094D01*
X393701Y235827D02*
Y236614D01*
X373622Y314961D02*
X374410D01*
X374016Y314567D02*
Y315354D01*
X353937Y314961D02*
X354724D01*
X354331Y314567D02*
Y315354D01*
X344094Y295276D02*
X344882D01*
X344488Y294882D02*
Y295669D01*
X344094Y334646D02*
X344882D01*
X344488Y334252D02*
Y335039D01*
X334252Y314961D02*
X335039D01*
X334646Y314567D02*
Y315354D01*
X334252Y275591D02*
X335039D01*
X334646Y275197D02*
Y275984D01*
X373622Y275591D02*
X374410D01*
X374016Y275197D02*
Y275984D01*
X353937Y236221D02*
X354724D01*
X354331Y235827D02*
Y236614D01*
X353937Y275591D02*
X354724D01*
X354331Y275197D02*
Y275984D01*
X422835Y216535D02*
X423622D01*
X423228Y216142D02*
Y216929D01*
X412992Y196850D02*
X413779D01*
X413386Y196457D02*
Y197244D01*
X432677Y196850D02*
X433465D01*
X433071Y196457D02*
Y197244D01*
X393307Y196850D02*
X394094D01*
X393701Y196457D02*
Y197244D01*
X383465Y216535D02*
X384252D01*
X383858Y216142D02*
Y216929D01*
X383465Y177165D02*
X384252D01*
X383858Y176772D02*
Y177559D01*
X412992Y157480D02*
X413779D01*
X413386Y157087D02*
Y157874D01*
X432677Y118110D02*
X433465D01*
X433071Y117717D02*
Y118504D01*
X403150Y177165D02*
X403937D01*
X403543Y176772D02*
Y177559D01*
X353937Y196850D02*
X354724D01*
X354331Y196457D02*
Y197244D01*
X373622Y196850D02*
X374410D01*
X374016Y196457D02*
Y197244D01*
X334252Y157480D02*
X335039D01*
X334646Y157087D02*
Y157874D01*
X353937Y157480D02*
X354724D01*
X354331Y157087D02*
Y157874D01*
X334252Y118110D02*
X335039D01*
X334646Y117717D02*
Y118504D01*
X353937Y118110D02*
X354724D01*
X354331Y117717D02*
Y118504D01*
M02*
