G04*
G04 #@! TF.GenerationSoftware,Altium Limited,Altium Designer,26.5.0 (11)*
G04*
G04 Layer_Color=32896*
G04 Board_Origin=0|0*
%FSLAX25Y25*%
%MOIN*%
G70*
G04*
G04 #@! TF.SameCoordinates,D3051F98-D5A8-4F5C-B565-89D6D41F1FFC*
G04*
G04*
G04 #@! TF.FilePolarity,Positive*
G04*
G01*
G75*
%ADD11C,0.00787*%
%ADD13C,0.00500*%
%ADD15C,0.01000*%
%ADD87C,0.07874*%
G36*
X411889Y361026D02*
X411218D01*
Y361697D01*
X411889D01*
Y361026D01*
D02*
G37*
G36*
X483689Y367065D02*
X484361D01*
Y366394D01*
X485703D01*
Y365723D01*
X486374D01*
Y365052D01*
X487045D01*
Y364381D01*
X488387D01*
Y363710D01*
X489058D01*
Y363039D01*
X490400D01*
Y362368D01*
X498452D01*
Y363039D01*
X499794D01*
Y363710D01*
X500465D01*
Y363039D01*
X501136D01*
Y362368D01*
X500465D01*
Y361026D01*
X499794D01*
Y360355D01*
X499123D01*
Y359013D01*
X499794D01*
Y358342D01*
X500465D01*
Y356329D01*
X499794D01*
Y354987D01*
X498452D01*
Y354316D01*
X493755D01*
Y353645D01*
X489058D01*
Y354987D01*
X488387D01*
Y354316D01*
X484361D01*
Y353645D01*
X481005D01*
Y352974D01*
X478321D01*
Y351632D01*
X477650D01*
Y350961D01*
X476308D01*
Y350290D01*
X475637D01*
Y349619D01*
X477650D01*
Y350290D01*
X482347D01*
Y349619D01*
X485703D01*
Y350290D01*
X486374D01*
Y349619D01*
X487045D01*
Y348948D01*
X487716D01*
Y348277D01*
X483689D01*
Y347605D01*
X475637D01*
Y346935D01*
X472953D01*
Y346263D01*
X476979D01*
Y345592D01*
X472953D01*
Y344921D01*
X468256D01*
Y344250D01*
X462887D01*
Y343579D01*
X452822D01*
Y342908D01*
X450138D01*
Y343579D01*
X449467D01*
Y348277D01*
X450809D01*
Y348948D01*
X454835D01*
Y349619D01*
X458861D01*
Y350290D01*
X462217D01*
Y350961D01*
X466243D01*
Y351632D01*
X466914D01*
Y350290D01*
X469598D01*
Y349619D01*
X470269D01*
Y350290D01*
X469598D01*
Y350961D01*
X470269D01*
Y351632D01*
X470940D01*
Y352974D01*
X471611D01*
Y353645D01*
X472282D01*
Y354987D01*
X472953D01*
Y355658D01*
X473624D01*
Y356329D01*
X474295D01*
Y357671D01*
X474966D01*
Y358342D01*
X475637D01*
Y359013D01*
X476308D01*
Y360355D01*
X476979D01*
Y361026D01*
X477650D01*
Y361697D01*
X478321D01*
Y363039D01*
X478992D01*
Y363710D01*
X479663D01*
Y364381D01*
X480334D01*
Y365723D01*
X481005D01*
Y366394D01*
X481676D01*
Y367065D01*
X482347D01*
Y367736D01*
X483689D01*
Y367065D01*
D02*
G37*
G36*
X503149Y363039D02*
X503820D01*
Y362368D01*
X505162D01*
Y361697D01*
X505833D01*
Y361026D01*
X506504D01*
Y359684D01*
X507175D01*
Y359013D01*
X507846D01*
Y358342D01*
X508518D01*
Y357671D01*
X509189D01*
Y357000D01*
Y356329D01*
X509860D01*
Y355658D01*
X510531D01*
Y354987D01*
X511202D01*
Y354316D01*
X511873D01*
Y353645D01*
X513215D01*
Y352974D01*
X513886D01*
Y352303D01*
X515228D01*
Y351632D01*
X515899D01*
Y350961D01*
X517241D01*
Y350290D01*
X517912D01*
Y349619D01*
X517241D01*
Y350290D01*
X515899D01*
Y350961D01*
X515228D01*
Y351632D01*
X513886D01*
Y352303D01*
X513215D01*
Y352974D01*
X511873D01*
Y353645D01*
X511202D01*
Y354316D01*
X510531D01*
Y354987D01*
X509860D01*
Y355658D01*
X509189D01*
Y356329D01*
X508518D01*
Y357671D01*
X507846D01*
Y358342D01*
X507175D01*
Y359013D01*
X506504D01*
Y359684D01*
X505833D01*
Y360355D01*
X505162D01*
Y361026D01*
Y361697D01*
X503820D01*
Y362368D01*
X503149D01*
Y363039D01*
X502478D01*
Y363710D01*
X503149D01*
Y363039D01*
D02*
G37*
G36*
X519254Y348948D02*
X519925D01*
Y348277D01*
X519254D01*
Y348948D01*
X518583D01*
Y349619D01*
X519254D01*
Y348948D01*
D02*
G37*
G36*
X521267Y347605D02*
X522609D01*
Y346935D01*
X523280D01*
Y346263D01*
X522609D01*
Y346935D01*
X521267D01*
Y347605D01*
X520596D01*
Y348277D01*
X521267D01*
Y347605D01*
D02*
G37*
G36*
X545424Y342237D02*
X544753D01*
Y342908D01*
X545424D01*
Y342237D01*
D02*
G37*
G36*
X405850Y347605D02*
X405179D01*
Y344921D01*
X404508D01*
Y342908D01*
X403837D01*
Y342237D01*
X403166D01*
Y341566D01*
X402495D01*
Y340895D01*
X400482D01*
Y340224D01*
X393772D01*
Y340895D01*
X392429D01*
Y341566D01*
X391758D01*
Y342237D01*
X391088D01*
Y342908D01*
X390416D01*
Y344250D01*
X389745D01*
Y345592D01*
X389074D01*
Y355658D01*
X389745D01*
Y361026D01*
X391088D01*
Y354316D01*
X391758D01*
Y355658D01*
X392429D01*
Y345592D01*
X393101D01*
Y344250D01*
X393772D01*
Y343579D01*
X394443D01*
Y342908D01*
X395785D01*
Y342237D01*
X399811D01*
Y342908D01*
X401153D01*
Y343579D01*
X402495D01*
Y344250D01*
X403166D01*
Y345592D01*
X403837D01*
Y361697D01*
X405850D01*
Y347605D01*
D02*
G37*
G36*
X437389Y361697D02*
X438059D01*
Y361026D01*
X438730D01*
Y359684D01*
X439401D01*
Y357671D01*
X440072D01*
Y356329D01*
X440744D01*
Y354987D01*
X441415D01*
Y353645D01*
X442086D01*
Y351632D01*
X442757D01*
Y350290D01*
X443428D01*
Y348948D01*
X444099D01*
Y346935D01*
X444770D01*
Y346263D01*
X445441D01*
Y344921D01*
X446112D01*
Y343579D01*
X446783D01*
Y341566D01*
X446112D01*
Y340895D01*
X443428D01*
Y344921D01*
X442757D01*
Y346935D01*
X442086D01*
Y347605D01*
X438730D01*
Y346935D01*
X436717D01*
Y346263D01*
X434704D01*
Y346935D01*
X435375D01*
Y347605D01*
X433362D01*
Y346263D01*
X432691D01*
Y346935D01*
X432020D01*
Y345592D01*
X431349D01*
Y342908D01*
X430678D01*
Y341566D01*
X430007D01*
Y340895D01*
X428665D01*
Y341566D01*
X427994D01*
Y342237D01*
X428665D01*
Y343579D01*
X429336D01*
Y344921D01*
X430007D01*
Y346935D01*
X430678D01*
Y348277D01*
X431349D01*
Y349619D01*
X432020D01*
Y352303D01*
X432691D01*
Y354316D01*
X433362D01*
Y355658D01*
X434033D01*
Y356329D01*
Y357000D01*
X434704D01*
Y358342D01*
X435375D01*
Y360355D01*
X436046D01*
Y361697D01*
X436717D01*
Y362368D01*
X437389D01*
Y361697D01*
D02*
G37*
G36*
X419942Y362368D02*
X421955D01*
Y361697D01*
X422626D01*
Y361026D01*
X423297D01*
Y360355D01*
X423968D01*
Y359684D01*
X424639D01*
Y357671D01*
X425310D01*
Y355658D01*
X424639D01*
Y354316D01*
X423968D01*
Y352974D01*
X423297D01*
Y352303D01*
X422626D01*
Y351632D01*
X421284D01*
Y350961D01*
X419271D01*
Y350290D01*
X414573D01*
Y349619D01*
X412560D01*
Y348948D01*
X411889D01*
Y348277D01*
X411218D01*
Y346935D01*
X410547D01*
Y344250D01*
X411218D01*
Y343579D01*
X411889D01*
Y342908D01*
X413231D01*
Y342237D01*
X415244D01*
Y341566D01*
X418600D01*
Y342237D01*
X420613D01*
Y342908D01*
X421955D01*
Y343579D01*
X422626D01*
Y344921D01*
X423297D01*
Y348277D01*
X424639D01*
Y344250D01*
X423968D01*
Y342908D01*
X423297D01*
Y342237D01*
X422626D01*
Y341566D01*
X421284D01*
Y340895D01*
X419942D01*
Y340224D01*
X413231D01*
Y340895D01*
X411889D01*
Y341566D01*
X410547D01*
Y342237D01*
X409876D01*
Y343579D01*
X409205D01*
Y345592D01*
X408534D01*
Y346263D01*
X409205D01*
Y348948D01*
X409876D01*
Y350290D01*
X411218D01*
Y350961D01*
X412560D01*
Y351632D01*
X413902D01*
Y352303D01*
X416587D01*
Y352974D01*
X419271D01*
Y353645D01*
X420613D01*
Y354316D01*
X421284D01*
Y354987D01*
X421955D01*
Y358342D01*
X421284D01*
Y359013D01*
X419271D01*
Y359684D01*
X414573D01*
Y360355D01*
X413231D01*
Y359684D01*
X414573D01*
Y359013D01*
X413231D01*
Y359684D01*
X412560D01*
Y359013D01*
X413231D01*
Y358342D01*
X412560D01*
Y359013D01*
X411889D01*
Y358342D01*
X411218D01*
Y357000D01*
X410547D01*
Y355658D01*
X409876D01*
Y358342D01*
X410547D01*
Y359013D01*
X411218D01*
Y360355D01*
X412560D01*
Y361026D01*
X413231D01*
Y361697D01*
X411889D01*
Y362368D01*
X413231D01*
Y363039D01*
X419942D01*
Y362368D01*
D02*
G37*
G36*
X503820Y354987D02*
X504491D01*
Y354316D01*
X505162D01*
Y353645D01*
X505833D01*
Y352974D01*
X506504D01*
Y352303D01*
X507175D01*
Y351632D01*
X508518D01*
Y350961D01*
X509189D01*
Y350290D01*
X510531D01*
Y349619D01*
X511873D01*
Y348948D01*
X513215D01*
Y348277D01*
X514557D01*
Y347605D01*
X515899D01*
Y346935D01*
X517241D01*
Y346263D01*
X518583D01*
Y345592D01*
X519925D01*
Y344921D01*
X521267D01*
Y344250D01*
X522609D01*
Y343579D01*
X523951D01*
Y342908D01*
X525293D01*
Y342237D01*
X527306D01*
Y341566D01*
X528648D01*
Y340895D01*
X529990D01*
Y340224D01*
X531332D01*
Y339553D01*
X533346D01*
Y340895D01*
X532675D01*
Y341566D01*
X531332D01*
Y342237D01*
X529990D01*
Y342908D01*
X528648D01*
Y343579D01*
X527306D01*
Y344250D01*
X525964D01*
Y344921D01*
X524622D01*
Y345592D01*
X523951D01*
Y346263D01*
X524622D01*
Y345592D01*
X525964D01*
Y344921D01*
X527306D01*
Y344250D01*
X528648D01*
Y343579D01*
X529990D01*
Y342908D01*
X531332D01*
Y342237D01*
X532675D01*
Y341566D01*
X534017D01*
Y340895D01*
X535359D01*
Y341566D01*
X537372D01*
Y342237D01*
X540056D01*
Y341566D01*
X538714D01*
Y340895D01*
X537372D01*
Y339553D01*
X538714D01*
Y340224D01*
X540056D01*
Y340895D01*
X540727D01*
Y339553D01*
X541398D01*
Y338882D01*
X540056D01*
Y338211D01*
X539385D01*
Y338882D01*
X538043D01*
Y337540D01*
X539385D01*
Y336869D01*
X542069D01*
Y337540D01*
X543411D01*
Y336869D01*
X542740D01*
Y336198D01*
X540056D01*
Y333514D01*
X540727D01*
Y330830D01*
X541398D01*
Y329488D01*
X542069D01*
Y328817D01*
X542740D01*
Y328146D01*
X543411D01*
Y326133D01*
X544082D01*
Y324791D01*
X543411D01*
Y320093D01*
X542740D01*
Y316067D01*
X542069D01*
Y312712D01*
X541398D01*
Y310028D01*
X540727D01*
Y306673D01*
X540056D01*
Y304660D01*
X539385D01*
Y303318D01*
X538714D01*
Y302647D01*
X538043D01*
Y301975D01*
X537372D01*
Y301305D01*
X536701D01*
Y300634D01*
X536030D01*
Y299962D01*
X535359D01*
Y298620D01*
X534688D01*
Y297949D01*
X534017D01*
Y297278D01*
X533346D01*
Y296607D01*
X532675D01*
Y295936D01*
X532003D01*
Y295265D01*
X531332D01*
Y294594D01*
X530661D01*
Y293923D01*
X529990D01*
Y293252D01*
X529319D01*
Y292581D01*
X528648D01*
Y291910D01*
X527977D01*
Y291239D01*
X527306D01*
Y290568D01*
X526635D01*
Y289897D01*
X525964D01*
Y289226D01*
X523951D01*
Y288555D01*
X519925D01*
Y287884D01*
X517912D01*
Y287213D01*
X509189D01*
Y287884D01*
X508518D01*
Y288555D01*
X507846D01*
Y291239D01*
X508518D01*
Y293252D01*
X509189D01*
Y295265D01*
X509860D01*
Y297949D01*
X510531D01*
Y300634D01*
X511202D01*
Y305331D01*
X511873D01*
Y308686D01*
X512544D01*
Y305331D01*
Y304660D01*
Y302647D01*
X511873D01*
Y298620D01*
X511202D01*
Y295936D01*
X510531D01*
Y293923D01*
X509860D01*
Y291910D01*
X511202D01*
Y292581D01*
X511873D01*
Y294594D01*
X512544D01*
Y296607D01*
X513215D01*
Y299291D01*
X513886D01*
Y301975D01*
X514557D01*
Y306673D01*
X515228D01*
Y310028D01*
X515899D01*
Y305331D01*
X515228D01*
Y299962D01*
X514557D01*
Y296607D01*
X513886D01*
Y293923D01*
X513215D01*
Y291239D01*
X515228D01*
Y291910D01*
X518583D01*
Y292581D01*
X522609D01*
Y293252D01*
X524622D01*
Y294594D01*
X525293D01*
Y295265D01*
X525964D01*
Y295936D01*
X526635D01*
Y296607D01*
X527306D01*
Y297278D01*
X527977D01*
Y297949D01*
X528648D01*
Y298620D01*
X529319D01*
Y299291D01*
X529990D01*
Y299962D01*
X530661D01*
Y300634D01*
X531332D01*
Y301305D01*
X532003D01*
Y301975D01*
X532675D01*
Y302647D01*
X533346D01*
Y303318D01*
X534017D01*
Y303989D01*
X534688D01*
Y304660D01*
X535359D01*
Y305331D01*
X536030D01*
Y306673D01*
X536701D01*
Y310028D01*
X536030D01*
Y308015D01*
X535359D01*
Y306673D01*
X534688D01*
Y308686D01*
X535359D01*
Y311370D01*
X536030D01*
Y314054D01*
X536701D01*
Y317409D01*
X537372D01*
Y324791D01*
X536701D01*
Y326133D01*
X536030D01*
Y326804D01*
X535359D01*
Y327475D01*
X534688D01*
Y329488D01*
X534017D01*
Y332172D01*
X533346D01*
Y334185D01*
X532675D01*
Y334856D01*
X533346D01*
Y336198D01*
X532675D01*
Y338211D01*
X532003D01*
Y338882D01*
X530661D01*
Y339553D01*
X529319D01*
Y340224D01*
X527306D01*
Y340895D01*
X525964D01*
Y341566D01*
X524622D01*
Y342237D01*
X522609D01*
Y342908D01*
X521267D01*
Y343579D01*
X519925D01*
Y344250D01*
X518583D01*
Y344921D01*
X517241D01*
Y345592D01*
X515899D01*
Y346263D01*
X514557D01*
Y346935D01*
X513215D01*
Y347605D01*
X511873D01*
Y348277D01*
X510531D01*
Y348948D01*
X509189D01*
Y349619D01*
X508518D01*
Y350290D01*
X507175D01*
Y350961D01*
X506504D01*
Y351632D01*
X505833D01*
Y352303D01*
X505162D01*
Y352974D01*
X504491D01*
Y353645D01*
X503820D01*
Y354987D01*
X503149D01*
Y355658D01*
X503820D01*
Y354987D01*
D02*
G37*
G36*
X544082Y337540D02*
X543411D01*
Y338882D01*
X544082D01*
Y337540D01*
D02*
G37*
G36*
X484361Y336869D02*
X483689D01*
Y337540D01*
X484361D01*
Y336869D01*
D02*
G37*
G36*
X544082Y331501D02*
X543411D01*
Y332172D01*
X544082D01*
Y331501D01*
D02*
G37*
G36*
X485032D02*
X487045D01*
Y330830D01*
X488387D01*
Y330159D01*
X489729D01*
Y329488D01*
X490400D01*
Y328817D01*
X491742D01*
Y328146D01*
X492413D01*
Y327475D01*
X493755D01*
Y326804D01*
X494426D01*
Y326133D01*
X495097D01*
Y325462D01*
X495768D01*
Y324791D01*
X496439D01*
Y324119D01*
X497110D01*
Y323448D01*
X497781D01*
Y322106D01*
X498452D01*
Y321435D01*
X499123D01*
Y320093D01*
X499794D01*
Y318751D01*
X500465D01*
Y316738D01*
X501136D01*
Y315396D01*
X501807D01*
Y312712D01*
X502478D01*
Y310028D01*
X503149D01*
Y303989D01*
X502478D01*
Y300634D01*
X501807D01*
Y298620D01*
X501136D01*
Y296607D01*
X500465D01*
Y295265D01*
X499794D01*
Y293923D01*
X499123D01*
Y292581D01*
X498452D01*
Y291910D01*
X497781D01*
Y290568D01*
X497110D01*
Y289897D01*
X496439D01*
Y289226D01*
X495097D01*
Y289897D01*
X495768D01*
Y291910D01*
X496439D01*
Y292581D01*
X497110D01*
Y293923D01*
X496439D01*
Y293252D01*
X495768D01*
Y292581D01*
X495097D01*
Y291910D01*
X494426D01*
Y291239D01*
X493755D01*
Y290568D01*
X493084D01*
Y289897D01*
X492413D01*
Y289226D01*
X491742D01*
Y288555D01*
X490400D01*
Y287884D01*
X489058D01*
Y287213D01*
X487716D01*
Y286542D01*
X486374D01*
Y285871D01*
X484361D01*
Y285200D01*
X480334D01*
Y284529D01*
X476979D01*
Y285200D01*
X473624D01*
Y285871D01*
X472953D01*
Y286542D01*
X482347D01*
Y287213D01*
X485032D01*
Y287884D01*
X487045D01*
Y288555D01*
X488387D01*
Y289226D01*
X489058D01*
Y289897D01*
X490400D01*
Y290568D01*
X491071D01*
Y291239D01*
X489729D01*
Y290568D01*
X488387D01*
Y289897D01*
X487716D01*
Y289226D01*
X485703D01*
Y288555D01*
X483689D01*
Y287884D01*
X474295D01*
Y288555D01*
X472282D01*
Y289226D01*
X470269D01*
Y289897D01*
X468927D01*
Y290568D01*
X467585D01*
Y291239D01*
X466914D01*
Y291910D01*
X465572D01*
Y292581D01*
X464901D01*
Y293252D01*
X464230D01*
Y293923D01*
X463559D01*
Y294594D01*
X462887D01*
Y295265D01*
X462217D01*
Y295936D01*
X461546D01*
Y296607D01*
X460875D01*
Y297278D01*
X460203D01*
Y298620D01*
X459532D01*
Y299291D01*
X458861D01*
Y299962D01*
Y300634D01*
X458190D01*
Y301305D01*
X457519D01*
Y302647D01*
X456848D01*
Y304660D01*
X456177D01*
Y306673D01*
X455506D01*
Y310028D01*
X454835D01*
Y314725D01*
X455506D01*
Y318080D01*
X456177D01*
Y320093D01*
X456848D01*
Y317409D01*
X456177D01*
Y307344D01*
X456848D01*
Y305331D01*
X457519D01*
Y303318D01*
X458190D01*
Y301975D01*
X458861D01*
Y300634D01*
X459532D01*
Y299962D01*
X460203D01*
Y298620D01*
X460875D01*
Y297949D01*
X461546D01*
Y297278D01*
X462217D01*
Y296607D01*
X462887D01*
Y295936D01*
X463559D01*
Y295265D01*
X464230D01*
Y294594D01*
X464901D01*
Y293923D01*
X465572D01*
Y293252D01*
X466914D01*
Y292581D01*
X467585D01*
Y291910D01*
X468927D01*
Y291239D01*
X470269D01*
Y290568D01*
X471611D01*
Y289897D01*
X474295D01*
Y289226D01*
X483689D01*
Y289897D01*
X474966D01*
Y290568D01*
X472953D01*
Y291239D01*
X470940D01*
Y291910D01*
X469598D01*
Y292581D01*
X468927D01*
Y293252D01*
X467585D01*
Y293923D01*
X466914D01*
Y294594D01*
X466243D01*
Y295265D01*
X465572D01*
Y295936D01*
X464901D01*
Y296607D01*
X464230D01*
Y297278D01*
X463559D01*
Y298620D01*
X462887D01*
Y299291D01*
X462217D01*
Y300634D01*
X461546D01*
Y301975D01*
X460875D01*
Y303989D01*
X460203D01*
Y306002D01*
X459532D01*
Y312712D01*
X460203D01*
Y314725D01*
X460875D01*
Y315396D01*
X461546D01*
Y312712D01*
X460875D01*
Y308015D01*
X461546D01*
Y304660D01*
X462217D01*
Y302647D01*
X462887D01*
Y301305D01*
X463559D01*
Y299962D01*
X464230D01*
Y299291D01*
X464901D01*
Y297949D01*
X465572D01*
Y297278D01*
X466243D01*
Y296607D01*
X466914D01*
Y295936D01*
X467585D01*
Y295265D01*
X468256D01*
Y294594D01*
X469598D01*
Y293923D01*
X470269D01*
Y293252D01*
X471611D01*
Y292581D01*
X472953D01*
Y291910D01*
X476308D01*
Y291239D01*
X478992D01*
Y291910D01*
X481676D01*
Y292581D01*
X484361D01*
Y293252D01*
X485703D01*
Y293923D01*
X487045D01*
Y294594D01*
X488387D01*
Y295265D01*
X489729D01*
Y295936D01*
X490400D01*
Y296607D01*
X491742D01*
Y297278D01*
X492413D01*
Y298620D01*
X493084D01*
Y299962D01*
X493755D01*
Y301305D01*
X494426D01*
Y303318D01*
X495097D01*
Y310028D01*
X494426D01*
Y312712D01*
X493755D01*
Y314054D01*
X493084D01*
Y314725D01*
X492413D01*
Y316067D01*
X491742D01*
Y316738D01*
X491071D01*
Y317409D01*
X490400D01*
Y318080D01*
X489729D01*
Y318751D01*
X488387D01*
Y319422D01*
X487716D01*
Y320093D01*
X488387D01*
Y319422D01*
X489729D01*
Y318751D01*
X491071D01*
Y318080D01*
X491742D01*
Y317409D01*
X492413D01*
Y316738D01*
X493084D01*
Y315396D01*
X493755D01*
Y314725D01*
X494426D01*
Y313383D01*
X495097D01*
Y311370D01*
X495768D01*
Y308686D01*
X496439D01*
Y304660D01*
X497110D01*
Y311370D01*
X496439D01*
Y313383D01*
X495768D01*
Y315396D01*
X495097D01*
Y316738D01*
X494426D01*
Y317409D01*
X493755D01*
Y318751D01*
X493084D01*
Y319422D01*
X492413D01*
Y320093D01*
X491742D01*
Y320764D01*
X491071D01*
Y321435D01*
X490400D01*
Y322106D01*
X489729D01*
Y322777D01*
X488387D01*
Y323448D01*
X487716D01*
Y324119D01*
X486374D01*
Y324791D01*
X484361D01*
Y325462D01*
X481676D01*
Y326133D01*
X476979D01*
Y325462D01*
X473624D01*
Y324791D01*
X472282D01*
Y324119D01*
X470940D01*
Y323448D01*
X469598D01*
Y324119D01*
X470269D01*
Y324791D01*
X470940D01*
Y325462D01*
X472282D01*
Y326133D01*
X473624D01*
Y326804D01*
X474966D01*
Y327475D01*
X484361D01*
Y326804D01*
X485703D01*
Y327475D01*
X485032D01*
Y328146D01*
X483689D01*
Y328817D01*
X474295D01*
Y328146D01*
X471611D01*
Y327475D01*
X469598D01*
Y326804D01*
X468256D01*
Y327475D01*
X468927D01*
Y328146D01*
X470269D01*
Y328817D01*
X471611D01*
Y329488D01*
X473624D01*
Y330159D01*
X476979D01*
Y330830D01*
X482347D01*
Y330159D01*
X485703D01*
Y329488D01*
X487045D01*
Y328817D01*
X489058D01*
Y328146D01*
X489729D01*
Y328817D01*
X489058D01*
Y329488D01*
X487716D01*
Y330159D01*
X486374D01*
Y330830D01*
X484361D01*
Y331501D01*
X483018D01*
Y332172D01*
X485032D01*
Y331501D01*
D02*
G37*
G36*
X468256Y326133D02*
X467585D01*
Y326804D01*
X468256D01*
Y326133D01*
D02*
G37*
G36*
X458190Y321435D02*
X457519D01*
Y322106D01*
X458190D01*
Y321435D01*
D02*
G37*
G36*
X457519Y320093D02*
X456848D01*
Y320764D01*
Y321435D01*
X457519D01*
Y320093D01*
D02*
G37*
G36*
X395785Y336869D02*
X398469D01*
Y336198D01*
X399811D01*
Y335527D01*
X401153D01*
Y334856D01*
X401824D01*
Y334185D01*
X402495D01*
Y332843D01*
X403166D01*
Y331501D01*
X403837D01*
Y330159D01*
X404508D01*
Y322777D01*
X403837D01*
Y320764D01*
X403166D01*
Y319422D01*
X402495D01*
Y318080D01*
X401824D01*
Y317409D01*
X401153D01*
Y316738D01*
X399811D01*
Y316067D01*
X398469D01*
Y315396D01*
X396456D01*
Y314725D01*
X393101D01*
Y315396D01*
X392429D01*
Y316067D01*
X391088D01*
Y316738D01*
X390416D01*
Y317409D01*
X389074D01*
Y318080D01*
X388403D01*
Y319422D01*
X387732D01*
Y320093D01*
X387061D01*
Y322106D01*
X386390D01*
Y323448D01*
X387061D01*
Y322106D01*
X387732D01*
Y320764D01*
X388403D01*
Y320093D01*
Y319422D01*
X389074D01*
Y318751D01*
X389745D01*
Y318080D01*
X390416D01*
Y317409D01*
X392429D01*
Y316738D01*
X396456D01*
Y318080D01*
X398469D01*
Y318751D01*
X399811D01*
Y319422D01*
X401153D01*
Y320764D01*
X401824D01*
Y321435D01*
X402495D01*
Y323448D01*
X403166D01*
Y329488D01*
X402495D01*
Y330830D01*
X401824D01*
Y332172D01*
X401153D01*
Y333514D01*
X400482D01*
Y334185D01*
X399811D01*
Y334856D01*
X398469D01*
Y335527D01*
X397127D01*
Y336198D01*
X392429D01*
Y335527D01*
X391088D01*
Y334856D01*
X389745D01*
Y334185D01*
X389074D01*
Y333514D01*
X388403D01*
Y332172D01*
X387732D01*
Y330159D01*
X386390D01*
Y332172D01*
X387061D01*
Y333514D01*
X387732D01*
Y334185D01*
X388403D01*
Y334856D01*
X389074D01*
Y335527D01*
X389745D01*
Y336198D01*
X391088D01*
Y336869D01*
X393101D01*
Y337540D01*
X395785D01*
Y336869D01*
D02*
G37*
G36*
X358878Y336198D02*
X359549D01*
Y319422D01*
X360220D01*
Y320093D01*
X360891D01*
Y320764D01*
X361562D01*
Y321435D01*
X362233D01*
Y322777D01*
X362904D01*
Y323448D01*
X363575D01*
Y324119D01*
X364246D01*
Y325462D01*
X364917D01*
Y326133D01*
X365588D01*
Y327475D01*
X366259D01*
Y328146D01*
X366930D01*
Y328817D01*
X367601D01*
Y330159D01*
X368272D01*
Y330830D01*
X368943D01*
Y331501D01*
X369615D01*
Y332843D01*
X370286D01*
Y333514D01*
X370957D01*
Y334185D01*
X371628D01*
Y335527D01*
X372299D01*
Y336198D01*
X373641D01*
Y320764D01*
X374312D01*
Y316738D01*
X372299D01*
Y332843D01*
X370957D01*
Y332172D01*
X370286D01*
Y330830D01*
X369615D01*
Y329488D01*
X368943D01*
Y328817D01*
X368272D01*
Y327475D01*
X367601D01*
Y326804D01*
X366930D01*
Y325462D01*
X366259D01*
Y324791D01*
X365588D01*
Y324119D01*
X364917D01*
Y322777D01*
X364246D01*
Y322106D01*
X363575D01*
Y321435D01*
X362904D01*
Y320093D01*
X362233D01*
Y319422D01*
X361562D01*
Y318080D01*
X360891D01*
Y317409D01*
X360220D01*
Y316738D01*
X359549D01*
Y316067D01*
X358207D01*
Y332843D01*
Y333514D01*
Y336869D01*
X358878D01*
Y336198D01*
D02*
G37*
G36*
X346129Y336869D02*
X348813D01*
Y336198D01*
X350155D01*
Y335527D01*
X350826D01*
Y334856D01*
X351497D01*
Y334185D01*
X352168D01*
Y333514D01*
X352839D01*
Y332843D01*
X353510D01*
Y330830D01*
X354181D01*
Y328817D01*
X354852D01*
Y324119D01*
X354181D01*
Y321435D01*
X353510D01*
Y320093D01*
X352839D01*
Y318751D01*
X352168D01*
Y318080D01*
X351497D01*
Y317409D01*
X350826D01*
Y316738D01*
X349484D01*
Y316067D01*
X348142D01*
Y315396D01*
X340760D01*
Y316067D01*
X339418D01*
Y316738D01*
X336734D01*
Y316067D01*
X336063D01*
Y316738D01*
X335392D01*
Y320764D01*
X336063D01*
Y321435D01*
X335392D01*
Y322777D01*
X336063D01*
Y326133D01*
X341431D01*
Y325462D01*
X338747D01*
Y324791D01*
X336734D01*
Y324119D01*
X338076D01*
Y323448D01*
X337405D01*
Y321435D01*
X338076D01*
Y320093D01*
X338747D01*
Y319422D01*
X339418D01*
Y318751D01*
X340089D01*
Y318080D01*
X340760D01*
Y317409D01*
X342773D01*
Y316738D01*
X348142D01*
Y317409D01*
X349484D01*
Y318080D01*
X350155D01*
Y318751D01*
X350826D01*
Y319422D01*
X351497D01*
Y320093D01*
X352168D01*
Y321435D01*
X352839D01*
Y323448D01*
X353510D01*
Y328817D01*
X352839D01*
Y330830D01*
X352168D01*
Y332172D01*
X351497D01*
Y332843D01*
X350826D01*
Y333514D01*
X350155D01*
Y334185D01*
X349484D01*
Y334856D01*
X348813D01*
Y335527D01*
X346799D01*
Y336198D01*
X342773D01*
Y335527D01*
X340760D01*
Y334856D01*
X340089D01*
Y334185D01*
X339418D01*
Y333514D01*
X338747D01*
Y332843D01*
X338076D01*
Y331501D01*
X337405D01*
Y330159D01*
X336063D01*
Y330830D01*
X336734D01*
Y332843D01*
X337405D01*
Y334185D01*
X338076D01*
Y334856D01*
X338747D01*
Y335527D01*
X339418D01*
Y336198D01*
X340760D01*
Y336869D01*
X343444D01*
Y337540D01*
X346129D01*
Y336869D01*
D02*
G37*
G36*
X446112Y332843D02*
X446783D01*
Y328146D01*
X446112D01*
Y324119D01*
X446783D01*
Y323448D01*
X446112D01*
Y321435D01*
X445441D01*
Y316067D01*
X444770D01*
Y322777D01*
X443428D01*
Y324119D01*
X440744D01*
Y323448D01*
X436717D01*
Y324119D01*
X434033D01*
Y323448D01*
X433362D01*
Y322777D01*
X432691D01*
Y316738D01*
X432020D01*
Y314725D01*
X430678D01*
Y316067D01*
X431349D01*
Y322777D01*
X432020D01*
Y323448D01*
X432691D01*
Y324119D01*
X433362D01*
Y325462D01*
X432691D01*
Y326133D01*
X432020D01*
Y326804D01*
X431349D01*
Y328817D01*
X430678D01*
Y331501D01*
X431349D01*
Y332843D01*
X432020D01*
Y334185D01*
X433362D01*
Y334856D01*
X434704D01*
Y335527D01*
X446112D01*
Y332843D01*
D02*
G37*
G36*
X417929Y336198D02*
X418600D01*
Y334856D01*
X419271D01*
Y332843D01*
X419942D01*
Y331501D01*
X420613D01*
Y330159D01*
X421284D01*
Y328146D01*
X421955D01*
Y326804D01*
X422626D01*
Y325462D01*
X423297D01*
Y323448D01*
X423968D01*
Y321435D01*
X424639D01*
Y320093D01*
X425310D01*
Y319422D01*
X425981D01*
Y318751D01*
X426652D01*
Y317409D01*
X425981D01*
Y316067D01*
X424639D01*
Y317409D01*
X423968D01*
Y318080D01*
Y318751D01*
Y319422D01*
X423297D01*
Y321435D01*
X422626D01*
Y322777D01*
X412560D01*
Y322106D01*
X411889D01*
Y320764D01*
X411218D01*
Y318751D01*
X410547D01*
Y316738D01*
X409876D01*
Y316067D01*
X409205D01*
Y318751D01*
X409876D01*
Y320764D01*
X410547D01*
Y322106D01*
X411218D01*
Y323448D01*
X411889D01*
Y324791D01*
X412560D01*
Y326804D01*
X413231D01*
Y329488D01*
X413902D01*
Y330830D01*
X414573D01*
Y332172D01*
X415244D01*
Y333514D01*
X415915D01*
Y335527D01*
X416587D01*
Y336869D01*
X417929D01*
Y336198D01*
D02*
G37*
G36*
X380351Y330159D02*
X381022D01*
Y326133D01*
X380351D01*
Y325462D01*
Y315396D01*
X379680D01*
Y322777D01*
X379009D01*
Y331501D01*
X379680D01*
Y335527D01*
X380351D01*
Y330159D01*
D02*
G37*
G36*
X444770Y310699D02*
X445441D01*
Y310028D01*
X444770D01*
Y310699D01*
X444099D01*
Y310028D01*
X442757D01*
Y310699D01*
X442086D01*
Y310028D01*
X441415D01*
Y309357D01*
X440744D01*
Y310028D01*
X440072D01*
Y290568D01*
X439401D01*
Y291239D01*
X438730D01*
Y291910D01*
X439401D01*
Y295936D01*
X438730D01*
Y309357D01*
X438059D01*
Y310028D01*
X434704D01*
Y309357D01*
X433362D01*
Y310028D01*
X432020D01*
Y311370D01*
X444770D01*
Y310699D01*
D02*
G37*
G36*
X534688Y306002D02*
X534017D01*
Y306673D01*
X534688D01*
Y306002D01*
D02*
G37*
G36*
X534017Y305331D02*
X533346D01*
Y306002D01*
X534017D01*
Y305331D01*
D02*
G37*
G36*
X533346Y304660D02*
X532675D01*
Y305331D01*
X533346D01*
Y304660D01*
D02*
G37*
G36*
X532675Y303989D02*
X532003D01*
Y304660D01*
X532675D01*
Y303989D01*
D02*
G37*
G36*
X532003Y303318D02*
X531332D01*
Y303989D01*
X532003D01*
Y303318D01*
D02*
G37*
G36*
X531332Y302647D02*
X530661D01*
Y303318D01*
X531332D01*
Y302647D01*
D02*
G37*
G36*
X530661Y301975D02*
X529990D01*
Y302647D01*
X530661D01*
Y301975D01*
D02*
G37*
G36*
X493755D02*
X493084D01*
Y303318D01*
X493755D01*
Y301975D01*
D02*
G37*
G36*
X529990Y301305D02*
X529319D01*
Y301975D01*
X529990D01*
Y301305D01*
D02*
G37*
G36*
X529319Y300634D02*
X528648D01*
Y301305D01*
X529319D01*
Y300634D01*
D02*
G37*
G36*
X493084D02*
X492413D01*
Y301975D01*
X493084D01*
Y300634D01*
D02*
G37*
G36*
X528648Y299962D02*
X527977D01*
Y300634D01*
X528648D01*
Y299962D01*
D02*
G37*
G36*
X492413Y299291D02*
X491742D01*
Y300634D01*
X492413D01*
Y299291D01*
D02*
G37*
G36*
X491742Y298620D02*
X491071D01*
Y299291D01*
X491742D01*
Y298620D01*
D02*
G37*
G36*
X527977Y299291D02*
X527306D01*
Y298620D01*
X526635D01*
Y297949D01*
X525964D01*
Y297278D01*
X525293D01*
Y296607D01*
X523951D01*
Y297278D01*
X524622D01*
Y297949D01*
X525293D01*
Y298620D01*
X525964D01*
Y299291D01*
X526635D01*
Y299962D01*
X527977D01*
Y299291D01*
D02*
G37*
G36*
X523951Y295936D02*
X523280D01*
Y296607D01*
X523951D01*
Y295936D01*
D02*
G37*
G36*
X523280Y295265D02*
X522609D01*
Y295936D01*
X523280D01*
Y295265D01*
D02*
G37*
G36*
X386390Y291910D02*
X385048D01*
Y293923D01*
Y294594D01*
Y308015D01*
X384377D01*
Y307344D01*
X383706D01*
Y306002D01*
X383035D01*
Y303989D01*
X382364D01*
Y302647D01*
X381693D01*
Y301305D01*
X381022D01*
Y299291D01*
X380351D01*
Y297949D01*
X379680D01*
Y295936D01*
X379009D01*
Y294594D01*
X378338D01*
Y293252D01*
X377667D01*
Y291910D01*
X376996D01*
Y291239D01*
X376325D01*
Y291910D01*
X375654D01*
Y292581D01*
X374983D01*
Y293923D01*
X374312D01*
Y295265D01*
X373641D01*
Y296607D01*
X372970D01*
Y297949D01*
X372299D01*
Y299291D01*
X371628D01*
Y301305D01*
X370957D01*
Y302647D01*
X370286D01*
Y303989D01*
X369615D01*
Y306002D01*
X368943D01*
Y306673D01*
X368272D01*
Y297949D01*
X368943D01*
Y293923D01*
X368272D01*
Y291910D01*
X366259D01*
Y299962D01*
X366930D01*
Y312041D01*
X368272D01*
Y310699D01*
X368943D01*
Y309357D01*
X369615D01*
Y307344D01*
X370286D01*
Y306002D01*
X370957D01*
Y304660D01*
X371628D01*
Y302647D01*
X372299D01*
Y301305D01*
X372970D01*
Y299962D01*
X373641D01*
Y297949D01*
X374312D01*
Y296607D01*
X374983D01*
Y295265D01*
X375654D01*
Y293923D01*
X376996D01*
Y295265D01*
X377667D01*
Y295936D01*
X378338D01*
Y297278D01*
X379009D01*
Y299291D01*
X379680D01*
Y300634D01*
X380351D01*
Y301975D01*
X381022D01*
Y303989D01*
X381693D01*
Y305331D01*
X382364D01*
Y307344D01*
X383035D01*
Y308686D01*
X383706D01*
Y310028D01*
X384377D01*
Y312041D01*
X386390D01*
Y291910D01*
D02*
G37*
G36*
X427323Y302647D02*
X427994D01*
Y291910D01*
X427323D01*
Y291239D01*
X417929D01*
Y290568D01*
X413902D01*
Y293252D01*
X418600D01*
Y292581D01*
X425981D01*
Y293252D01*
X426652D01*
Y300634D01*
X425981D01*
Y301305D01*
X425310D01*
Y301975D01*
X417258D01*
Y301305D01*
X414573D01*
Y303318D01*
X425981D01*
Y311370D01*
X413231D01*
Y312041D01*
X427323D01*
Y302647D01*
D02*
G37*
G36*
X399811Y311370D02*
X400482D01*
Y309357D01*
X401153D01*
Y308015D01*
X401824D01*
Y306002D01*
X402495D01*
Y304660D01*
X403166D01*
Y303318D01*
X403837D01*
Y301975D01*
X404508D01*
Y299962D01*
X405179D01*
Y297949D01*
X405850D01*
Y296607D01*
X406521D01*
Y295936D01*
X407192D01*
Y294594D01*
X407863D01*
Y293252D01*
X408534D01*
Y292581D01*
X407863D01*
Y291910D01*
X406521D01*
Y292581D01*
X405850D01*
Y293923D01*
X405179D01*
Y295936D01*
X404508D01*
Y297949D01*
X399811D01*
Y298620D01*
X395114D01*
Y299291D01*
X403166D01*
Y301305D01*
X402495D01*
Y303318D01*
X401824D01*
Y304660D01*
X401153D01*
Y306002D01*
X400482D01*
Y308015D01*
X399811D01*
Y309357D01*
X398469D01*
Y308015D01*
X397798D01*
Y306673D01*
X397127D01*
Y304660D01*
X396456D01*
Y303318D01*
X395785D01*
Y301975D01*
X395114D01*
Y299962D01*
X394443D01*
Y298620D01*
X395114D01*
Y297949D01*
X393772D01*
Y297278D01*
Y296607D01*
X393101D01*
Y295265D01*
X392429D01*
Y293252D01*
X391758D01*
Y291239D01*
X391088D01*
Y291910D01*
X390416D01*
Y293252D01*
X391088D01*
Y294594D01*
X391758D01*
Y296607D01*
X392429D01*
Y298620D01*
X393101D01*
Y299291D01*
X393772D01*
Y301305D01*
X394443D01*
Y303989D01*
X395114D01*
Y305331D01*
X395785D01*
Y306673D01*
X396456D01*
Y308015D01*
X397127D01*
Y309357D01*
X397798D01*
Y311370D01*
X398469D01*
Y312041D01*
X399811D01*
Y311370D01*
D02*
G37*
G36*
X494426Y289226D02*
X495097D01*
Y288555D01*
X494426D01*
Y289226D01*
X493755D01*
Y289897D01*
X494426D01*
Y289226D01*
D02*
G37*
G36*
X496439Y287884D02*
X495768D01*
Y288555D01*
X496439D01*
Y287884D01*
D02*
G37*
G36*
X493755Y288555D02*
X494426D01*
Y287884D01*
X493084D01*
Y288555D01*
Y289226D01*
X493755D01*
Y288555D01*
D02*
G37*
G36*
X492413Y286542D02*
X491742D01*
Y287213D01*
X492413D01*
Y286542D01*
D02*
G37*
G36*
X454835Y296607D02*
X455506D01*
Y295936D01*
Y295265D01*
X456177D01*
Y294594D01*
X456848D01*
Y293923D01*
X457519D01*
Y292581D01*
X458190D01*
Y291910D01*
X458861D01*
Y291239D01*
X459532D01*
Y290568D01*
X460203D01*
Y289897D01*
X460875D01*
Y289226D01*
X461546D01*
Y288555D01*
X462887D01*
Y287884D01*
X463559D01*
Y287213D01*
X464230D01*
Y286542D01*
X463559D01*
Y287213D01*
X462887D01*
Y287884D01*
X461546D01*
Y288555D01*
X460875D01*
Y289226D01*
X460203D01*
Y289897D01*
X459532D01*
Y290568D01*
X458861D01*
Y291239D01*
X458190D01*
Y291910D01*
X457519D01*
Y292581D01*
X456848D01*
Y293923D01*
X456177D01*
Y294594D01*
X455506D01*
Y295265D01*
X454835D01*
Y296607D01*
X454164D01*
Y297278D01*
X454835D01*
Y296607D01*
D02*
G37*
G36*
X487716Y283187D02*
X487045D01*
Y283858D01*
X487716D01*
Y283187D01*
D02*
G37*
G36*
X487045Y336198D02*
X489058D01*
Y335527D01*
X490400D01*
Y334856D01*
X491742D01*
Y334185D01*
X493084D01*
Y333514D01*
X493755D01*
Y332843D01*
X495097D01*
Y332172D01*
X495768D01*
Y331501D01*
X496439D01*
Y330830D01*
X497781D01*
Y330159D01*
X498452D01*
Y329488D01*
X499123D01*
Y328817D01*
X499794D01*
Y328146D01*
X500465D01*
Y327475D01*
X501136D01*
Y326133D01*
X501807D01*
Y325462D01*
X502478D01*
Y324791D01*
X503149D01*
Y323448D01*
X503820D01*
Y322106D01*
X504491D01*
Y320764D01*
X505162D01*
Y319422D01*
X505833D01*
Y318080D01*
X506504D01*
Y316067D01*
X507175D01*
Y313383D01*
X507846D01*
Y310028D01*
X508518D01*
Y303989D01*
X507846D01*
Y299962D01*
X507175D01*
Y297278D01*
X506504D01*
Y295265D01*
X505833D01*
Y293923D01*
X505162D01*
Y292581D01*
X504491D01*
Y290568D01*
X503820D01*
Y289897D01*
X503149D01*
Y288555D01*
X502478D01*
Y287884D01*
X501807D01*
Y287213D01*
X501136D01*
Y286542D01*
X500465D01*
Y285871D01*
X499794D01*
Y285200D01*
X499123D01*
Y284529D01*
X498452D01*
Y283858D01*
X497781D01*
Y283187D01*
X497110D01*
Y282516D01*
X496439D01*
Y283858D01*
X497110D01*
Y284529D01*
X497781D01*
Y285871D01*
X498452D01*
Y286542D01*
X499123D01*
Y287213D01*
X499794D01*
Y287884D01*
X500465D01*
Y288555D01*
X501136D01*
Y289897D01*
X501807D01*
Y290568D01*
X502478D01*
Y291239D01*
X503149D01*
Y292581D01*
X503820D01*
Y293252D01*
X504491D01*
Y294594D01*
X505162D01*
Y301305D01*
X505833D01*
Y305331D01*
X506504D01*
Y309357D01*
X507175D01*
Y310028D01*
X506504D01*
Y314054D01*
X505833D01*
Y316067D01*
X505162D01*
Y318080D01*
X504491D01*
Y320093D01*
X503820D01*
Y321435D01*
X503149D01*
Y322106D01*
X502478D01*
Y323448D01*
X501807D01*
Y324791D01*
X501136D01*
Y325462D01*
X500465D01*
Y326133D01*
X499794D01*
Y326804D01*
X499123D01*
Y327475D01*
X498452D01*
Y328817D01*
X497110D01*
Y329488D01*
X496439D01*
Y330159D01*
X495768D01*
Y330830D01*
X495097D01*
Y331501D01*
X493755D01*
Y332172D01*
X493084D01*
Y332843D01*
X491742D01*
Y333514D01*
X491071D01*
Y334185D01*
X489729D01*
Y334856D01*
X488387D01*
Y335527D01*
X486374D01*
Y336198D01*
X485032D01*
Y336869D01*
X487045D01*
Y336198D01*
D02*
G37*
G36*
X485703Y282516D02*
X483689D01*
Y283187D01*
X485703D01*
Y282516D01*
D02*
G37*
G36*
X495097Y281845D02*
X494426D01*
Y282516D01*
X495097D01*
Y281845D01*
D02*
G37*
G36*
X465572Y285871D02*
X466914D01*
Y285200D01*
X468256D01*
Y284529D01*
X470940D01*
Y283858D01*
X472953D01*
Y283187D01*
X476308D01*
Y282516D01*
X483018D01*
Y281845D01*
X475637D01*
Y282516D01*
X472282D01*
Y283187D01*
X470269D01*
Y283858D01*
X468256D01*
Y284529D01*
X466914D01*
Y285200D01*
X465572D01*
Y285871D01*
X464901D01*
Y286542D01*
X465572D01*
Y285871D01*
D02*
G37*
%LPC*%
G36*
X491742Y358342D02*
X490400D01*
Y357671D01*
X491742D01*
Y358342D01*
D02*
G37*
G36*
X438059D02*
X436717D01*
Y356329D01*
X436046D01*
Y354987D01*
X435375D01*
Y353645D01*
X434704D01*
Y352303D01*
X434033D01*
Y350961D01*
X433362D01*
Y348948D01*
X434704D01*
Y349619D01*
X436046D01*
Y350290D01*
X438730D01*
Y349619D01*
X440744D01*
Y351632D01*
X440072D01*
Y353645D01*
X439401D01*
Y354987D01*
X438730D01*
Y355658D01*
Y357000D01*
X438059D01*
Y358342D01*
D02*
G37*
G36*
X415244Y362368D02*
X414573D01*
Y361697D01*
X415244D01*
Y362368D01*
D02*
G37*
G36*
X536030Y340224D02*
X534688D01*
Y338882D01*
X536030D01*
Y339553D01*
Y340224D01*
D02*
G37*
G36*
X535359Y337540D02*
X534017D01*
Y336198D01*
X534688D01*
Y334185D01*
X535359D01*
Y332172D01*
X536030D01*
Y329488D01*
X536701D01*
Y328817D01*
X537372D01*
Y328146D01*
X538043D01*
Y327475D01*
X538714D01*
Y326804D01*
X539385D01*
Y327475D01*
X538714D01*
Y328146D01*
X538043D01*
Y329488D01*
X537372D01*
Y331501D01*
X536701D01*
Y334185D01*
X536030D01*
Y335527D01*
X535359D01*
Y337540D01*
D02*
G37*
G36*
X539385Y322777D02*
X538714D01*
Y319422D01*
X538043D01*
Y316067D01*
X537372D01*
Y313383D01*
X536701D01*
Y310028D01*
X537372D01*
Y310699D01*
X538043D01*
Y313383D01*
X538714D01*
Y316067D01*
X539385D01*
Y322777D01*
D02*
G37*
G36*
X537372Y336869D02*
X536030D01*
Y336198D01*
X536701D01*
Y334856D01*
X537372D01*
Y332172D01*
X538043D01*
Y330159D01*
X538714D01*
Y328817D01*
X539385D01*
Y328146D01*
X540056D01*
Y326804D01*
X540727D01*
Y326133D01*
X541398D01*
Y324119D01*
X540727D01*
Y319422D01*
X540056D01*
Y315396D01*
X539385D01*
Y314725D01*
Y314054D01*
Y311370D01*
X538714D01*
Y308015D01*
X539385D01*
Y310028D01*
X540056D01*
Y312712D01*
X540727D01*
Y316067D01*
X541398D01*
Y319422D01*
X542069D01*
Y324119D01*
X542740D01*
Y326133D01*
X542069D01*
Y327475D01*
X541398D01*
Y328146D01*
X540727D01*
Y328817D01*
X540056D01*
Y330159D01*
X539385D01*
Y332843D01*
X538714D01*
Y335527D01*
X538043D01*
Y336198D01*
X537372D01*
Y336869D01*
D02*
G37*
G36*
X526635Y292581D02*
X525964D01*
Y291910D01*
X526635D01*
Y292581D01*
D02*
G37*
G36*
X510531Y290568D02*
X509189D01*
Y289226D01*
X510531D01*
Y289897D01*
Y290568D01*
D02*
G37*
G36*
X525964Y291910D02*
X524622D01*
Y291239D01*
X521267D01*
Y290568D01*
X519254D01*
Y289897D01*
X515899D01*
Y289226D01*
X512544D01*
Y288555D01*
X517912D01*
Y289226D01*
X519925D01*
Y289897D01*
X523951D01*
Y290568D01*
X525293D01*
Y291239D01*
X525964D01*
Y291910D01*
D02*
G37*
G36*
X491071Y325462D02*
X490400D01*
Y324791D01*
X491071D01*
Y324119D01*
X491742D01*
Y323448D01*
X492413D01*
Y322777D01*
X493084D01*
Y322106D01*
X493755D01*
Y321435D01*
X494426D01*
Y320764D01*
X495097D01*
Y320093D01*
X495768D01*
Y320764D01*
X495097Y321435D01*
X494426D01*
Y322106D01*
X493755D01*
Y322777D01*
X493084D01*
Y323448D01*
X492413D01*
Y324119D01*
X491742D01*
Y324791D01*
X491071D01*
Y325462D01*
D02*
G37*
G36*
X496439Y303989D02*
X495768D01*
Y303318D01*
Y302647D01*
X496439D01*
Y303989D01*
D02*
G37*
G36*
X497781Y299291D02*
X497110D01*
Y298620D01*
X497781D01*
Y299291D01*
D02*
G37*
G36*
X497110Y298620D02*
X496439D01*
Y297278D01*
X497110D01*
Y298620D01*
D02*
G37*
G36*
X496439Y297278D02*
X495768D01*
Y296607D01*
X496439D01*
Y297278D01*
D02*
G37*
G36*
X495768Y296607D02*
X495097D01*
Y295936D01*
X495768D01*
Y296607D01*
D02*
G37*
G36*
Y301305D02*
X495097D01*
Y299962D01*
X494426D01*
Y298620D01*
X493755D01*
Y297278D01*
X493084D01*
Y296607D01*
X492413D01*
Y295265D01*
X493084D01*
Y295936D01*
X493755D01*
Y296607D01*
X494426D01*
Y297949D01*
X495097D01*
Y299291D01*
X495768D01*
Y301305D01*
D02*
G37*
G36*
X495097Y295265D02*
X494426D01*
Y294594D01*
X495097D01*
Y295265D01*
D02*
G37*
G36*
X492413D02*
X491742D01*
Y294594D01*
X492413D01*
Y295265D01*
D02*
G37*
G36*
X499794Y298620D02*
X499123D01*
Y297278D01*
X498452D01*
Y295936D01*
X497781D01*
Y294594D01*
X497110D01*
Y293923D01*
X498452D01*
Y295265D01*
X499123D01*
Y296607D01*
X499794D01*
Y298620D01*
D02*
G37*
G36*
X491742Y294594D02*
X491071D01*
Y293923D01*
X491742D01*
Y294594D01*
D02*
G37*
G36*
X494426D02*
X493755D01*
Y293923D01*
X493084D01*
Y293252D01*
X492413D01*
Y292581D01*
X491742D01*
Y291910D01*
X491071D01*
Y291239D01*
X492413D01*
Y291910D01*
X493084D01*
Y292581D01*
X493755D01*
Y293252D01*
X494426D01*
Y294594D01*
D02*
G37*
G36*
X485032Y290568D02*
X483689D01*
Y289897D01*
X485032D01*
Y290568D01*
D02*
G37*
G36*
X444099Y334185D02*
X434704D01*
Y333514D01*
X433362D01*
Y332843D01*
X432691D01*
Y331501D01*
X432020D01*
Y328817D01*
X432691D01*
Y327475D01*
X433362D01*
Y326804D01*
X434033D01*
Y326133D01*
X435375D01*
Y325462D01*
X444099D01*
Y326133D01*
X444770D01*
Y331501D01*
Y332172D01*
Y333514D01*
X444099D01*
Y334185D01*
D02*
G37*
G36*
X444770Y324119D02*
X444099D01*
Y323448D01*
X444770D01*
Y324119D01*
D02*
G37*
G36*
X417929Y334185D02*
X417258D01*
Y333514D01*
X416587D01*
Y331501D01*
X415915D01*
Y330830D01*
X415244D01*
Y328817D01*
X414573D01*
Y327475D01*
X413902D01*
Y325462D01*
X413231D01*
Y324119D01*
X412560D01*
Y323448D01*
X413902D01*
Y324119D01*
X415915D01*
Y323448D01*
X420613D01*
Y324119D01*
X421284D01*
Y326133D01*
X420613D01*
Y328146D01*
X419942D01*
Y329488D01*
X419271D01*
Y331501D01*
X418600D01*
Y332843D01*
X417929D01*
Y334185D01*
D02*
G37*
%LPD*%
D11*
X568756Y354268D02*
G03*
X568756Y354268I-394J0D01*
G01*
D13*
X575500Y190000D02*
Y198500D01*
X672000Y190000D02*
Y198500D01*
X688500D02*
Y207000D01*
X652500Y198500D02*
Y207000D01*
X648000Y190000D02*
Y198500D01*
X615500Y190000D02*
Y198500D01*
X603000Y190000D02*
Y198500D01*
X615500D02*
Y207000D01*
X578500Y198500D02*
Y207000D01*
X556500Y190000D02*
Y198500D01*
X545000D02*
Y207000D01*
X615500D02*
Y215500D01*
X578500Y207000D02*
Y215500D01*
X549000Y207000D02*
Y215500D01*
X652500Y207000D02*
Y215500D01*
X688500Y207000D02*
Y215500D01*
X549000D02*
Y224000D01*
X578500Y215500D02*
Y224000D01*
X615500Y215500D02*
Y224000D01*
X652500Y215500D02*
Y224000D01*
X674500Y215500D02*
Y224000D01*
X688500Y215500D02*
Y224000D01*
X548559Y363146D02*
Y378854D01*
X568441Y363146D02*
Y378854D01*
D15*
X519000Y198500D02*
X703000D01*
X519000Y207000D02*
X703000D01*
Y198500D02*
Y207000D01*
X519000Y198500D02*
Y207000D01*
Y215500D02*
X703000D01*
X519000Y224000D02*
X703000D01*
Y215500D02*
Y224000D01*
X519000Y215500D02*
Y224000D01*
Y190000D02*
X703000D01*
X519000Y198500D02*
X703000D01*
Y190000D02*
Y198500D01*
X519000Y190000D02*
Y198500D01*
Y207000D02*
X703000D01*
X519000Y215500D02*
X703000D01*
Y207000D02*
Y215500D01*
X519000Y207000D02*
Y215500D01*
X599000Y203000D02*
X596376D01*
X648000Y204592D02*
X646688D01*
X647344D01*
Y200656D01*
X648000D01*
X646688D01*
X644720D02*
Y204592D01*
X643408Y203280D01*
X642096Y204592D01*
Y200656D01*
X640785Y204592D02*
Y200656D01*
X638817D01*
X638161Y201312D01*
Y203936D01*
X638817Y204592D01*
X640785D01*
X636849Y200000D02*
X634225D01*
X630945Y204592D02*
X632257D01*
X632913Y203936D01*
Y201312D01*
X632257Y200656D01*
X630945D01*
X630289Y201312D01*
Y203936D01*
X630945Y204592D01*
X628977D02*
Y200656D01*
Y201968D01*
X626353Y204592D01*
X628321Y202624D01*
X626353Y200656D01*
X625041Y204592D02*
Y200656D01*
Y202624D01*
X622418D01*
Y204592D01*
Y200656D01*
X621106Y204592D02*
X618482D01*
Y203936D01*
X621106Y201312D01*
Y200656D01*
X618482D01*
X686000Y204592D02*
X684688D01*
X685344D01*
Y200656D01*
X686000D01*
X684688D01*
X682720D02*
Y204592D01*
X681408Y203280D01*
X680096Y204592D01*
Y200656D01*
X678785Y204592D02*
Y200656D01*
X676817D01*
X676161Y201312D01*
Y203936D01*
X676817Y204592D01*
X678785D01*
X674849Y200000D02*
X672225D01*
X670913Y200656D02*
Y204592D01*
X669601Y203280D01*
X668289Y204592D01*
Y200656D01*
X666977Y204592D02*
Y200656D01*
Y202624D01*
X664353D01*
Y204592D01*
Y200656D01*
X660418Y203936D02*
X661074Y204592D01*
X662386D01*
X663041Y203936D01*
Y203280D01*
X662386Y202624D01*
X661074D01*
X660418Y201968D01*
Y201312D01*
X661074Y200656D01*
X662386D01*
X663041Y201312D01*
X576000Y201156D02*
Y205092D01*
X574032D01*
X573376Y204436D01*
Y203124D01*
X574032Y202468D01*
X576000D01*
X574688D02*
X573376Y201156D01*
X572064Y205092D02*
X569440D01*
X570752D01*
Y201156D01*
X568128Y205092D02*
Y201156D01*
X566161D01*
X565505Y201812D01*
Y204436D01*
X566161Y205092D01*
X568128D01*
X564193Y200500D02*
X561569D01*
X560257Y205092D02*
Y201156D01*
X558289D01*
X557633Y201812D01*
Y202468D01*
X558289Y203124D01*
X560257D01*
X558289D01*
X557633Y203780D01*
Y204436D01*
X558289Y205092D01*
X560257D01*
X556321D02*
X553697D01*
X555009D01*
Y201156D01*
X552386D02*
Y205092D01*
X549762Y201156D01*
Y205092D01*
X537000Y204280D02*
X536344Y204936D01*
X535032D01*
X534376Y204280D01*
Y203624D01*
X535032Y202968D01*
X535688D01*
X535032D01*
X534376Y202312D01*
Y201656D01*
X535032Y201000D01*
X536344D01*
X537000Y201656D01*
X533064Y201000D02*
Y201656D01*
X532408D01*
Y201000D01*
X533064D01*
X529784Y204280D02*
X529129Y204936D01*
X527817D01*
X527161Y204280D01*
Y203624D01*
X527817Y202968D01*
X528473D01*
X527817D01*
X527161Y202312D01*
Y201656D01*
X527817Y201000D01*
X529129D01*
X529784Y201656D01*
X525849Y204936D02*
Y202312D01*
X524537Y201000D01*
X523225Y202312D01*
Y204936D01*
X597376Y195436D02*
X598032Y196092D01*
X599344D01*
X600000Y195436D01*
Y192812D01*
X599344Y192156D01*
X598032D01*
X597376Y192812D01*
X593440Y196092D02*
X596064D01*
Y194124D01*
X594752D01*
X596064D01*
Y192156D01*
X592129D02*
Y196092D01*
X590817Y194780D01*
X589505Y196092D01*
Y192156D01*
X588193Y191500D02*
X585569D01*
X584257Y192156D02*
Y196092D01*
X582289D01*
X581633Y195436D01*
Y194124D01*
X582289Y193468D01*
X584257D01*
X582945D02*
X581633Y192156D01*
X580321Y196092D02*
Y192156D01*
X577698D01*
X571000Y192500D02*
X569688D01*
X570344D01*
Y196436D01*
X571000Y195780D01*
X565096Y192500D02*
X567720D01*
X565096Y195124D01*
Y195780D01*
X565752Y196436D01*
X567064D01*
X567720Y195780D01*
X563785Y196436D02*
Y193812D01*
X562473Y192500D01*
X561161Y193812D01*
Y196436D01*
X551500Y192156D02*
Y196092D01*
X549532D01*
X548876Y195436D01*
Y194124D01*
X549532Y193468D01*
X551500D01*
X547564Y196092D02*
Y192812D01*
X546908Y192156D01*
X545596D01*
X544940Y192812D01*
Y196092D01*
X543629Y192156D02*
Y196092D01*
X542317Y194780D01*
X541005Y196092D01*
Y192156D01*
X539693D02*
Y196092D01*
X537725D01*
X537069Y195436D01*
Y194124D01*
X537725Y193468D01*
X539693D01*
X535757Y191500D02*
X533133D01*
X531821Y192156D02*
Y196092D01*
X529853D01*
X529198Y195436D01*
Y194124D01*
X529853Y193468D01*
X531821D01*
X527886Y196092D02*
Y192156D01*
X526574Y193468D01*
X525262Y192156D01*
Y196092D01*
X523950Y192156D02*
Y196092D01*
X522638Y194780D01*
X521326Y196092D01*
Y192156D01*
X609500Y194000D02*
X606876D01*
X642876Y195436D02*
X643532Y196092D01*
X644844D01*
X645500Y195436D01*
Y192812D01*
X644844Y192156D01*
X643532D01*
X642876Y192812D01*
X638940Y196092D02*
X641564D01*
Y194124D01*
X640252D01*
X641564D01*
Y192156D01*
X637629Y196092D02*
Y192156D01*
X635661D01*
X635005Y192812D01*
Y193468D01*
X635661Y194124D01*
X637629D01*
X635661D01*
X635005Y194780D01*
Y195436D01*
X635661Y196092D01*
X637629D01*
X633693Y191500D02*
X631069D01*
X629757Y192156D02*
Y196092D01*
X627789D01*
X627133Y195436D01*
Y194124D01*
X627789Y193468D01*
X629757D01*
X628445D02*
X627133Y192156D01*
X625821Y196092D02*
Y192156D01*
X623198D01*
X669500Y196592D02*
Y192656D01*
X667532D01*
X666876Y193312D01*
Y193968D01*
X667532Y194624D01*
X669500D01*
X667532D01*
X666876Y195280D01*
Y195936D01*
X667532Y196592D01*
X669500D01*
X665564D02*
Y192656D01*
X662940D01*
X661628Y192000D02*
X659005D01*
X657693Y192656D02*
Y196592D01*
X655725D01*
X655069Y195936D01*
Y194624D01*
X655725Y193968D01*
X657693D01*
X656381D02*
X655069Y192656D01*
X653757Y196592D02*
Y192656D01*
X651133D01*
X701000D02*
Y196592D01*
X699032D01*
X698376Y195936D01*
Y194624D01*
X699032Y193968D01*
X701000D01*
X697064Y196592D02*
Y193312D01*
X696408Y192656D01*
X695096D01*
X694440Y193312D01*
Y196592D01*
X693128Y192656D02*
Y196592D01*
X691817Y195280D01*
X690505Y196592D01*
Y192656D01*
X689193D02*
Y196592D01*
X687225D01*
X686569Y195936D01*
Y194624D01*
X687225Y193968D01*
X689193D01*
X685257Y192000D02*
X682633D01*
X681321Y192656D02*
Y196592D01*
X679353D01*
X678697Y195936D01*
Y194624D01*
X679353Y193968D01*
X681321D01*
X680009D02*
X678697Y192656D01*
X677386Y196592D02*
Y192656D01*
X674762D01*
X695876Y204936D02*
X698500D01*
Y202968D01*
X697188Y203624D01*
X696532D01*
X695876Y202968D01*
Y201656D01*
X696532Y201000D01*
X697844D01*
X698500Y201656D01*
X694564Y204936D02*
Y202312D01*
X693252Y201000D01*
X691940Y202312D01*
Y204936D01*
X537500Y213436D02*
Y209500D01*
X535532D01*
X534876Y210156D01*
Y210812D01*
X535532Y211468D01*
X537500D01*
X535532D01*
X534876Y212124D01*
Y212780D01*
X535532Y213436D01*
X537500D01*
X533564Y209500D02*
Y213436D01*
X531596D01*
X530940Y212780D01*
Y211468D01*
X531596Y210812D01*
X533564D01*
X527005Y212780D02*
X527661Y213436D01*
X528973D01*
X529629Y212780D01*
Y212124D01*
X528973Y211468D01*
X527661D01*
X527005Y210812D01*
Y210156D01*
X527661Y209500D01*
X528973D01*
X529629Y210156D01*
X572500Y209500D02*
Y212124D01*
X571188Y213436D01*
X569876Y212124D01*
Y209500D01*
Y211468D01*
X572500D01*
X568564Y209500D02*
Y213436D01*
X566596D01*
X565940Y212780D01*
Y211468D01*
X566596Y210812D01*
X568564D01*
X564629Y209500D02*
Y213436D01*
X562661D01*
X562005Y212780D01*
Y211468D01*
X562661Y210812D01*
X564629D01*
X558069Y212780D02*
X558725Y213436D01*
X560037D01*
X560693Y212780D01*
Y212124D01*
X560037Y211468D01*
X558725D01*
X558069Y210812D01*
Y210156D01*
X558725Y209500D01*
X560037D01*
X560693Y210156D01*
X554133Y209500D02*
X556757D01*
X554133Y212124D01*
Y212780D01*
X554789Y213436D01*
X556101D01*
X556757Y212780D01*
X605500Y209500D02*
Y212124D01*
X604188Y213436D01*
X602876Y212124D01*
Y209500D01*
Y211468D01*
X605500D01*
X601564Y209500D02*
Y213436D01*
X599596D01*
X598940Y212780D01*
Y211468D01*
X599596Y210812D01*
X601564D01*
X597628Y209500D02*
Y213436D01*
X595661D01*
X595005Y212780D01*
Y211468D01*
X595661Y210812D01*
X597628D01*
X591069Y212780D02*
X591725Y213436D01*
X593037D01*
X593693Y212780D01*
Y212124D01*
X593037Y211468D01*
X591725D01*
X591069Y210812D01*
Y210156D01*
X591725Y209500D01*
X593037D01*
X593693Y210156D01*
X589757Y209500D02*
X588445D01*
X589101D01*
Y213436D01*
X589757Y212780D01*
X639876Y212436D02*
X640532Y213092D01*
X641844D01*
X642500Y212436D01*
Y209812D01*
X641844Y209156D01*
X640532D01*
X639876Y209812D01*
X638564Y209156D02*
Y211780D01*
X637252Y213092D01*
X635940Y211780D01*
Y209156D01*
Y211124D01*
X638564D01*
X634628Y209156D02*
Y213092D01*
X632005Y209156D01*
Y213092D01*
X630693Y208500D02*
X628069D01*
X626757Y213092D02*
Y209156D01*
X624133D01*
X683876Y212936D02*
X684532Y213592D01*
X685844D01*
X686500Y212936D01*
Y212280D01*
X685844Y211624D01*
X684532D01*
X683876Y210968D01*
Y210312D01*
X684532Y209656D01*
X685844D01*
X686500Y210312D01*
X682564Y213592D02*
Y209656D01*
X680596D01*
X679940Y210312D01*
Y212936D01*
X680596Y213592D01*
X682564D01*
X676005Y212936D02*
X676661Y213592D01*
X677973D01*
X678628Y212936D01*
Y210312D01*
X677973Y209656D01*
X676661D01*
X676005Y210312D01*
X674693Y209000D02*
X672069D01*
X668133Y212936D02*
X668789Y213592D01*
X670101D01*
X670757Y212936D01*
Y212280D01*
X670101Y211624D01*
X668789D01*
X668133Y210968D01*
Y210312D01*
X668789Y209656D01*
X670101D01*
X670757Y210312D01*
X664197Y213592D02*
X666821D01*
Y209656D01*
X664197D01*
X666821Y211624D02*
X665509D01*
X662886Y209656D02*
Y213592D01*
X660262Y209656D01*
Y213592D01*
X697000Y211000D02*
X694376D01*
X546500Y221592D02*
Y217656D01*
X544532D01*
X543876Y218312D01*
Y220936D01*
X544532Y221592D01*
X546500D01*
X542564D02*
X539940D01*
X541252D01*
Y217656D01*
X538628Y221592D02*
X537317D01*
X537973D01*
Y217656D01*
X538628D01*
X537317D01*
X535349Y217000D02*
X532725D01*
X531413Y217656D02*
Y221592D01*
X529445D01*
X528789Y220936D01*
Y219624D01*
X529445Y218968D01*
X531413D01*
X530101D02*
X528789Y217656D01*
X527477Y221592D02*
X524853D01*
X526165D01*
Y217656D01*
X523541Y221592D02*
Y217656D01*
X521574D01*
X520918Y218312D01*
Y220936D01*
X521574Y221592D01*
X523541D01*
X576500D02*
Y217656D01*
X574532D01*
X573876Y218312D01*
Y220936D01*
X574532Y221592D01*
X576500D01*
X572564D02*
X569940D01*
X571252D01*
Y217656D01*
X568629Y221592D02*
X567317D01*
X567973D01*
Y217656D01*
X568629D01*
X567317D01*
X565349Y217000D02*
X562725D01*
X561413Y221592D02*
Y217656D01*
X559445D01*
X558789Y218312D01*
Y218968D01*
X559445Y219624D01*
X561413D01*
X559445D01*
X558789Y220280D01*
Y220936D01*
X559445Y221592D01*
X561413D01*
X557477Y217656D02*
Y221592D01*
X555509D01*
X554853Y220936D01*
Y219624D01*
X555509Y218968D01*
X557477D01*
X550918Y220936D02*
X551574Y221592D01*
X552886D01*
X553542Y220936D01*
Y220280D01*
X552886Y219624D01*
X551574D01*
X550918Y218968D01*
Y218312D01*
X551574Y217656D01*
X552886D01*
X553542Y218312D01*
X614000Y222092D02*
Y218156D01*
X612032D01*
X611376Y218812D01*
Y221436D01*
X612032Y222092D01*
X614000D01*
X610064D02*
X607440D01*
X608752D01*
Y218156D01*
X606129Y222092D02*
X604817D01*
X605473D01*
Y218156D01*
X606129D01*
X604817D01*
X602849Y217500D02*
X600225D01*
X598913Y218156D02*
Y220780D01*
X597601Y222092D01*
X596289Y220780D01*
Y218156D01*
Y220124D01*
X598913D01*
X594977Y218156D02*
Y222092D01*
X593009D01*
X592353Y221436D01*
Y220124D01*
X593009Y219468D01*
X594977D01*
X591042Y218156D02*
Y222092D01*
X589074D01*
X588418Y221436D01*
Y220124D01*
X589074Y219468D01*
X591042D01*
X584482Y221436D02*
X585138Y222092D01*
X586450D01*
X587106Y221436D01*
Y220780D01*
X586450Y220124D01*
X585138D01*
X584482Y219468D01*
Y218812D01*
X585138Y218156D01*
X586450D01*
X587106Y218812D01*
X580546Y218156D02*
X583170D01*
X580546Y220780D01*
Y221436D01*
X581202Y222092D01*
X582514D01*
X583170Y221436D01*
X649500Y222092D02*
Y218156D01*
X647532D01*
X646876Y218812D01*
Y221436D01*
X647532Y222092D01*
X649500D01*
X645564D02*
X642940D01*
X644252D01*
Y218156D01*
X641629Y222092D02*
X640317D01*
X640973D01*
Y218156D01*
X641629D01*
X640317D01*
X638349Y217500D02*
X635725D01*
X634413Y218156D02*
Y220780D01*
X633101Y222092D01*
X631789Y220780D01*
Y218156D01*
Y220124D01*
X634413D01*
X630477Y218156D02*
Y222092D01*
X628509D01*
X627853Y221436D01*
Y220124D01*
X628509Y219468D01*
X630477D01*
X626542Y218156D02*
Y222092D01*
X624574D01*
X623918Y221436D01*
Y220124D01*
X624574Y219468D01*
X626542D01*
X619982Y221436D02*
X620638Y222092D01*
X621950D01*
X622606Y221436D01*
Y220780D01*
X621950Y220124D01*
X620638D01*
X619982Y219468D01*
Y218812D01*
X620638Y218156D01*
X621950D01*
X622606Y218812D01*
X618670Y218156D02*
X617358D01*
X618014D01*
Y222092D01*
X618670Y221436D01*
X669876D02*
X670532Y222092D01*
X671844D01*
X672500Y221436D01*
Y218812D01*
X671844Y218156D01*
X670532D01*
X669876Y218812D01*
X668564Y218156D02*
Y220780D01*
X667252Y222092D01*
X665940Y220780D01*
Y218156D01*
Y220124D01*
X668564D01*
X664629Y218156D02*
Y222092D01*
X662005Y218156D01*
Y222092D01*
X660693Y217500D02*
X658069D01*
X656757Y222092D02*
Y218156D01*
Y220124D01*
X654133D01*
Y222092D01*
Y218156D01*
X683876Y221280D02*
X684532Y221936D01*
X685844D01*
X686500Y221280D01*
Y220624D01*
X685844Y219968D01*
X684532D01*
X683876Y219312D01*
Y218656D01*
X684532Y218000D01*
X685844D01*
X686500Y218656D01*
X682564Y218000D02*
Y221936D01*
X680596D01*
X679940Y221280D01*
Y219968D01*
X680596Y219312D01*
X682564D01*
X678628Y219968D02*
X676005D01*
X698376Y221280D02*
X699032Y221936D01*
X700344D01*
X701000Y221280D01*
Y220624D01*
X700344Y219968D01*
X699032D01*
X698376Y219312D01*
Y218656D01*
X699032Y218000D01*
X700344D01*
X701000Y218656D01*
X697064Y218000D02*
Y221936D01*
X695096D01*
X694440Y221280D01*
Y219968D01*
X695096Y219312D01*
X697064D01*
X693128Y219968D02*
X690505D01*
X691817Y221280D02*
Y218656D01*
X675500Y475500D02*
Y474188D01*
Y474844D01*
X671564D01*
X672220Y475500D01*
X675500Y469596D02*
Y472220D01*
X672876Y469596D01*
X672220D01*
X671564Y470252D01*
Y471564D01*
X672220Y472220D01*
X671564Y468285D02*
X674188D01*
X675500Y466973D01*
X674188Y465661D01*
X671564D01*
X662720Y471876D02*
X662064Y472532D01*
Y473844D01*
X662720Y474500D01*
X663376D01*
X664032Y473844D01*
Y472532D01*
X664688Y471876D01*
X665344D01*
X666000Y472532D01*
Y473844D01*
X665344Y474500D01*
X662064Y470564D02*
X666000D01*
Y468596D01*
X665344Y467940D01*
X662720D01*
X662064Y468596D01*
Y470564D01*
Y466629D02*
Y464005D01*
X662720D01*
X665344Y466629D01*
X666000D01*
Y464005D01*
X652720Y471876D02*
X652064Y472532D01*
Y473844D01*
X652720Y474500D01*
X653376D01*
X654032Y473844D01*
Y472532D01*
X654688Y471876D01*
X655344D01*
X656000Y472532D01*
Y473844D01*
X655344Y474500D01*
X652064Y470564D02*
Y469252D01*
Y469908D01*
X656000D01*
Y470564D01*
Y469252D01*
X652720Y464661D02*
X652064Y465317D01*
Y466629D01*
X652720Y467284D01*
X655344D01*
X656000Y466629D01*
Y465317D01*
X655344Y464661D01*
X654032D01*
Y465973D01*
X643500Y474000D02*
Y471376D01*
X597000Y423500D02*
X593064D01*
Y421532D01*
X593720Y420876D01*
X595032D01*
X595688Y421532D01*
Y423500D01*
X593064Y419564D02*
X597000D01*
Y417596D01*
X596344Y416940D01*
X595688D01*
X595032Y417596D01*
Y419564D01*
Y417596D01*
X594376Y416940D01*
X593720D01*
X593064Y417596D01*
Y419564D01*
X597000Y413661D02*
X593064D01*
X595032Y415628D01*
Y413005D01*
X588500Y424000D02*
X584564D01*
Y422032D01*
X585220Y421376D01*
X586532D01*
X587188Y422032D01*
Y424000D01*
X584564Y420064D02*
X588500D01*
Y418096D01*
X587844Y417440D01*
X587188D01*
X586532Y418096D01*
Y420064D01*
Y418096D01*
X585876Y417440D01*
X585220D01*
X584564Y418096D01*
Y420064D01*
X585220Y416128D02*
X584564Y415473D01*
Y414161D01*
X585220Y413505D01*
X585876D01*
X586532Y414161D01*
Y414817D01*
Y414161D01*
X587188Y413505D01*
X587844D01*
X588500Y414161D01*
Y415473D01*
X587844Y416128D01*
X578500Y424500D02*
X574564D01*
Y422532D01*
X575220Y421876D01*
X576532D01*
X577188Y422532D01*
Y424500D01*
X574564Y420564D02*
X578500D01*
Y418596D01*
X577844Y417940D01*
X577188D01*
X576532Y418596D01*
Y420564D01*
Y418596D01*
X575876Y417940D01*
X575220D01*
X574564Y418596D01*
Y420564D01*
Y414005D02*
Y416629D01*
X576532D01*
X575876Y415317D01*
Y414661D01*
X576532Y414005D01*
X577844D01*
X578500Y414661D01*
Y415973D01*
X577844Y416629D01*
X525500Y448500D02*
X521564D01*
Y446532D01*
X522220Y445876D01*
X523532D01*
X524188Y446532D01*
Y448500D01*
X521564Y444564D02*
X525500D01*
Y442596D01*
X524844Y441940D01*
X524188D01*
X523532Y442596D01*
Y444564D01*
Y442596D01*
X522876Y441940D01*
X522220D01*
X521564Y442596D01*
Y444564D01*
Y440628D02*
Y438005D01*
X522220D01*
X524844Y440628D01*
X525500D01*
X588500Y449000D02*
X584564D01*
Y447032D01*
X585220Y446376D01*
X586532D01*
X587188Y447032D01*
Y449000D01*
X584564Y445064D02*
X588500D01*
Y443096D01*
X587844Y442440D01*
X587188D01*
X586532Y443096D01*
Y445064D01*
Y443096D01*
X585876Y442440D01*
X585220D01*
X584564Y443096D01*
Y445064D01*
X585220Y441128D02*
X584564Y440473D01*
Y439161D01*
X585220Y438505D01*
X587844D01*
X588500Y439161D01*
Y440473D01*
X587844Y441128D01*
X585220D01*
X598000Y449500D02*
X594064D01*
Y447532D01*
X594720Y446876D01*
X596032D01*
X596688Y447532D01*
Y449500D01*
X598000Y445564D02*
X595376D01*
X594064Y444252D01*
X595376Y442940D01*
X598000D01*
X596032D01*
Y445564D01*
X594064Y439005D02*
Y441629D01*
X596032D01*
X595376Y440317D01*
Y439661D01*
X596032Y439005D01*
X597344D01*
X598000Y439661D01*
Y440973D01*
X597344Y441629D01*
X578500Y449000D02*
X574564D01*
Y447032D01*
X575220Y446376D01*
X576532D01*
X577188Y447032D01*
Y449000D01*
X578500Y445064D02*
X575876D01*
X574564Y443752D01*
X575876Y442440D01*
X578500D01*
X576532D01*
Y445064D01*
X575220Y441128D02*
X574564Y440473D01*
Y439161D01*
X575220Y438505D01*
X575876D01*
X576532Y439161D01*
X577188Y438505D01*
X577844D01*
X578500Y439161D01*
Y440473D01*
X577844Y441128D01*
X577188D01*
X576532Y440473D01*
X575876Y441128D01*
X575220D01*
X576532Y440473D02*
Y439161D01*
X584564Y476500D02*
X588500D01*
Y474532D01*
X587844Y473876D01*
X585220D01*
X584564Y474532D01*
Y476500D01*
Y472564D02*
Y471252D01*
Y471908D01*
X588500D01*
Y472564D01*
Y471252D01*
X584564Y467317D02*
Y468629D01*
X585220Y469284D01*
X587844D01*
X588500Y468629D01*
Y467317D01*
X587844Y466661D01*
X585220D01*
X584564Y467317D01*
X574720Y473376D02*
X574064Y474032D01*
Y475344D01*
X574720Y476000D01*
X577344D01*
X578000Y475344D01*
Y474032D01*
X577344Y473376D01*
X574064Y472064D02*
X578000D01*
Y469440D01*
X574064Y468128D02*
X578000D01*
X576688D01*
X574064Y465505D01*
X576032Y467473D01*
X578000Y465505D01*
X605220Y422500D02*
X604564Y421844D01*
Y420532D01*
X605220Y419876D01*
X605876D01*
X606532Y420532D01*
Y421188D01*
Y420532D01*
X607188Y419876D01*
X607844D01*
X608500Y420532D01*
Y421844D01*
X607844Y422500D01*
X608500Y418564D02*
X607844D01*
Y417908D01*
X608500D01*
Y418564D01*
X605220Y415284D02*
X604564Y414629D01*
Y413317D01*
X605220Y412661D01*
X605876D01*
X606532Y413317D01*
Y413973D01*
Y413317D01*
X607188Y412661D01*
X607844D01*
X608500Y413317D01*
Y414629D01*
X607844Y415284D01*
X604564Y411349D02*
X607188D01*
X608500Y410037D01*
X607188Y408725D01*
X604564D01*
X604720Y450000D02*
X604064Y449344D01*
Y448032D01*
X604720Y447376D01*
X605376D01*
X606032Y448032D01*
Y448688D01*
Y448032D01*
X606688Y447376D01*
X607344D01*
X608000Y448032D01*
Y449344D01*
X607344Y450000D01*
X608000Y446064D02*
X607344D01*
Y445408D01*
X608000D01*
Y446064D01*
X604720Y442785D02*
X604064Y442129D01*
Y440817D01*
X604720Y440161D01*
X605376D01*
X606032Y440817D01*
Y441473D01*
Y440817D01*
X606688Y440161D01*
X607344D01*
X608000Y440817D01*
Y442129D01*
X607344Y442785D01*
X604064Y438849D02*
X606688D01*
X608000Y437537D01*
X606688Y436225D01*
X604064D01*
X604220Y476500D02*
X603564Y475844D01*
Y474532D01*
X604220Y473876D01*
X604876D01*
X605532Y474532D01*
Y475188D01*
Y474532D01*
X606188Y473876D01*
X606844D01*
X607500Y474532D01*
Y475844D01*
X606844Y476500D01*
X607500Y472564D02*
X606844D01*
Y471908D01*
X607500D01*
Y472564D01*
X604220Y469284D02*
X603564Y468629D01*
Y467317D01*
X604220Y466661D01*
X604876D01*
X605532Y467317D01*
Y467973D01*
Y467317D01*
X606188Y466661D01*
X606844D01*
X607500Y467317D01*
Y468629D01*
X606844Y469284D01*
X603564Y465349D02*
X606188D01*
X607500Y464037D01*
X606188Y462725D01*
X603564D01*
X536000Y447500D02*
X532064D01*
Y445532D01*
X532720Y444876D01*
X534032D01*
X534688Y445532D01*
Y447500D01*
X532064Y443564D02*
X536000D01*
Y441596D01*
X535344Y440940D01*
X534688D01*
X534032Y441596D01*
Y443564D01*
Y441596D01*
X533376Y440940D01*
X532720D01*
X532064Y441596D01*
Y443564D01*
X536000Y439629D02*
Y438317D01*
Y438973D01*
X532064D01*
X532720Y439629D01*
X546000Y449500D02*
X542064D01*
Y447532D01*
X542720Y446876D01*
X544032D01*
X544688Y447532D01*
Y449500D01*
X546000Y445564D02*
X543376D01*
X542064Y444252D01*
X543376Y442940D01*
X546000D01*
X544032D01*
Y445564D01*
X542720Y441629D02*
X542064Y440973D01*
Y439661D01*
X542720Y439005D01*
X545344D01*
X546000Y439661D01*
Y440973D01*
X545344Y441629D01*
X542720D01*
X554000Y449000D02*
Y446376D01*
X544500Y474000D02*
Y471376D01*
X596000Y475000D02*
Y472376D01*
X552720Y476000D02*
X552064Y475344D01*
Y474032D01*
X552720Y473376D01*
X553376D01*
X554032Y474032D01*
Y474688D01*
Y474032D01*
X554688Y473376D01*
X555344D01*
X556000Y474032D01*
Y475344D01*
X555344Y476000D01*
X556000Y472064D02*
X555344D01*
Y471408D01*
X556000D01*
Y472064D01*
X552720Y468785D02*
X552064Y468128D01*
Y466817D01*
X552720Y466161D01*
X553376D01*
X554032Y466817D01*
Y467473D01*
Y466817D01*
X554688Y466161D01*
X555344D01*
X556000Y466817D01*
Y468128D01*
X555344Y468785D01*
X552064Y464849D02*
X554688D01*
X556000Y463537D01*
X554688Y462225D01*
X552064D01*
X532564Y475000D02*
Y472376D01*
Y473688D01*
X536500D01*
X532564Y471064D02*
X536500Y468440D01*
X532564D02*
X536500Y471064D01*
X526000Y474500D02*
X522064D01*
Y472532D01*
X522720Y471876D01*
X524032D01*
X524688Y472532D01*
Y474500D01*
Y473188D02*
X526000Y471876D01*
X522064Y470564D02*
X526000Y467940D01*
X522064D02*
X526000Y470564D01*
X555220Y369532D02*
Y372812D01*
X555876Y373468D01*
X557188D01*
X557844Y372812D01*
Y369532D01*
X561124Y373468D02*
Y369532D01*
X559156Y371500D01*
X561780D01*
X572252Y371468D02*
Y367532D01*
X574220D01*
X574876Y368188D01*
Y369500D01*
X574220Y370156D01*
X572252D01*
X573564D02*
X574876Y371468D01*
X576188Y368188D02*
X576844Y367532D01*
X578156D01*
X578812Y368188D01*
Y368844D01*
X578156Y369500D01*
X577500D01*
X578156D01*
X578812Y370156D01*
Y370812D01*
X578156Y371468D01*
X576844D01*
X576188Y370812D01*
X582748Y367532D02*
X581436Y368188D01*
X580124Y369500D01*
Y370812D01*
X580780Y371468D01*
X582092D01*
X582748Y370812D01*
Y370156D01*
X582092Y369500D01*
X580124D01*
X568704Y349188D02*
X568048Y348532D01*
X566736D01*
X566080Y349188D01*
Y351812D01*
X566736Y352468D01*
X568048D01*
X568704Y351812D01*
X570016Y352468D02*
X571328D01*
X570672D01*
Y348532D01*
X570016Y349188D01*
X573296Y351812D02*
X573952Y352468D01*
X575264D01*
X575920Y351812D01*
Y349188D01*
X575264Y348532D01*
X573952D01*
X573296Y349188D01*
Y349844D01*
X573952Y350500D01*
X575920D01*
X568204Y338688D02*
X567548Y338032D01*
X566236D01*
X565580Y338688D01*
Y341312D01*
X566236Y341968D01*
X567548D01*
X568204Y341312D01*
X569516Y341968D02*
X570828D01*
X570172D01*
Y338032D01*
X569516Y338688D01*
X572796D02*
X573452Y338032D01*
X574764D01*
X575420Y338688D01*
Y339344D01*
X574764Y340000D01*
X575420Y340656D01*
Y341312D01*
X574764Y341968D01*
X573452D01*
X572796Y341312D01*
Y340656D01*
X573452Y340000D01*
X572796Y339344D01*
Y338688D01*
X573452Y340000D02*
X574764D01*
X546204Y397188D02*
X545548Y396532D01*
X544236D01*
X543580Y397188D01*
Y399812D01*
X544236Y400468D01*
X545548D01*
X546204Y399812D01*
X547516Y400468D02*
X548828D01*
X548172D01*
Y396532D01*
X547516Y397188D01*
X550796Y396532D02*
X553420D01*
Y397188D01*
X550796Y399812D01*
Y400468D01*
X565204Y397188D02*
X564548Y396532D01*
X563236D01*
X562580Y397188D01*
Y399812D01*
X563236Y400468D01*
X564548D01*
X565204Y399812D01*
X566516Y400468D02*
X567828D01*
X567172D01*
Y396532D01*
X566516Y397188D01*
X572420Y396532D02*
X571108Y397188D01*
X569796Y398500D01*
Y399812D01*
X570452Y400468D01*
X571764D01*
X572420Y399812D01*
Y399156D01*
X571764Y398500D01*
X569796D01*
D87*
X562229Y270796D02*
Y247181D01*
X550422Y235374D01*
X538614Y247181D01*
Y270796D01*
X503193Y264892D02*
X509096Y270796D01*
X520904D01*
X526807Y264892D01*
Y241278D01*
X520904Y235374D01*
X509096D01*
X503193Y241278D01*
X491386Y270796D02*
Y241278D01*
X485482Y235374D01*
X473675D01*
X467771Y241278D01*
Y270796D01*
M02*
