G04*
G04 #@! TF.GenerationSoftware,Altium Limited,Altium Designer,26.5.0 (11)*
G04*
G04 Layer_Color=16711935*
G04 Board_Origin=0|0*
%FSLAX25Y25*%
%MOIN*%
G70*
G04*
G04 #@! TF.SameCoordinates,D3051F98-D5A8-4F5C-B565-89D6D41F1FFC*
G04*
G04*
G04 #@! TF.FilePolarity,Positive*
G04*
G01*
G75*
%ADD10C,0.00600*%
%ADD11C,0.00787*%
%ADD12C,0.01575*%
%ADD13C,0.00500*%
%ADD14C,0.00689*%
%ADD15C,0.01000*%
%ADD121C,0.00000*%
%ADD122C,0.00591*%
G36*
X383764Y347744D02*
X382780D01*
Y353059D01*
X383764D01*
Y347744D01*
D02*
G37*
G36*
X405221D02*
X404236D01*
Y353059D01*
X405221D01*
Y347744D01*
D02*
G37*
G36*
X383264Y383744D02*
X382279D01*
Y389059D01*
X383264D01*
Y383744D01*
D02*
G37*
G36*
X404720D02*
X403736D01*
Y389059D01*
X404720D01*
Y383744D01*
D02*
G37*
G36*
X383764Y420744D02*
X382780D01*
Y426059D01*
X383764D01*
Y420744D01*
D02*
G37*
G36*
X405221D02*
X404236D01*
Y426059D01*
X405221D01*
Y420744D01*
D02*
G37*
G36*
X383264Y457744D02*
X382279D01*
Y463059D01*
X383264D01*
Y457744D01*
D02*
G37*
G36*
X404720D02*
X403736D01*
Y463059D01*
X404720D01*
Y457744D01*
D02*
G37*
D10*
X635000Y232300D02*
X659200D01*
X610800D02*
X635000D01*
X610800D02*
Y280700D01*
X659200D01*
Y232300D02*
Y280700D01*
X686000Y232300D02*
X710200D01*
X661800D02*
X686000D01*
X661800D02*
Y280700D01*
X710200D01*
Y232300D02*
Y280700D01*
D11*
X327933Y203500D02*
G03*
X327933Y203500I-394J0D01*
G01*
X631571Y481500D02*
G03*
X631571Y481500I-394J0D01*
G01*
X564098D02*
G03*
X564098Y481500I-394J0D01*
G01*
X563913Y430000D02*
G03*
X563913Y430000I-394J0D01*
G01*
X384854Y189000D02*
G03*
X384854Y189000I-394J0D01*
G01*
X511913Y455500D02*
G03*
X511913Y455500I-394J0D01*
G01*
X511835Y481567D02*
G03*
X511835Y481567I-394J0D01*
G01*
X563913Y455500D02*
G03*
X563913Y455500I-394J0D01*
G01*
X360293Y209215D02*
G03*
X360293Y209215I-394J0D01*
G01*
X542740Y168091D02*
G03*
X542740Y168091I-394J0D01*
G01*
X568756Y354268D02*
G03*
X568756Y354268I-394J0D01*
G01*
X479724Y190784D02*
G03*
X479724Y190784I-394J0D01*
G01*
X620291Y293126D02*
G03*
X620291Y293126I-394J0D01*
G01*
X392240Y435090D02*
G03*
X392240Y435090I-394J0D01*
G01*
X530768Y245642D02*
G03*
X530768Y245642I-394J0D01*
G01*
X678134Y444095D02*
G03*
X678134Y444095I-394J0D01*
G01*
X360551Y390831D02*
G03*
X360551Y390831I-394J0D01*
G01*
X360051Y464831D02*
G03*
X360051Y464831I-394J0D01*
G01*
Y427831D02*
G03*
X360051Y427831I-394J0D01*
G01*
X360551Y353831D02*
G03*
X360551Y353831I-394J0D01*
G01*
X479134Y217252D02*
G03*
X479134Y217252I-394J0D01*
G01*
X508768Y245642D02*
G03*
X508768Y245642I-394J0D01*
G01*
X422394Y141035D02*
G03*
X422394Y141035I-394J0D01*
G01*
X392091Y472090D02*
G03*
X392091Y472090I-394J0D01*
G01*
X392240Y398091D02*
G03*
X392240Y398091I-394J0D01*
G01*
X552768Y245642D02*
G03*
X552768Y245642I-394J0D01*
G01*
X392240Y360591D02*
G03*
X392240Y360591I-394J0D01*
G01*
X501453Y336658D02*
G03*
X501453Y336658I-591J0D01*
G01*
X620291Y329126D02*
G03*
X620291Y329126I-394J0D01*
G01*
X677520Y309374D02*
G03*
X677520Y309374I-394J0D01*
G01*
X677496Y344874D02*
G03*
X677496Y344874I-394J0D01*
G01*
X522768Y105000D02*
G03*
X522768Y105000I-394J0D01*
G01*
X361945Y140240D02*
G03*
X361945Y140240I-394J0D01*
G01*
X552406Y168044D02*
Y165420D01*
X553717Y166732D02*
X551094D01*
X508956Y404405D02*
X511580D01*
X510268Y405717D02*
Y403094D01*
X508956Y417906D02*
X511580D01*
X510268Y419217D02*
Y416594D01*
X508456Y390406D02*
X511080D01*
X509768Y391717D02*
Y389094D01*
X405406Y126544D02*
Y123920D01*
X406717Y125232D02*
X404094D01*
X350456Y197406D02*
X353080D01*
X351768Y198717D02*
Y196094D01*
X402406Y472544D02*
Y469920D01*
X403717Y471232D02*
X401094D01*
X402406Y435544D02*
Y432920D01*
X403717Y434232D02*
X401094D01*
X402906Y358544D02*
Y355920D01*
X404217Y357232D02*
X401594D01*
X402406Y396044D02*
Y393420D01*
X403717Y394732D02*
X401094D01*
X350956Y237405D02*
X353580D01*
X352268Y238717D02*
Y236094D01*
D12*
X677724Y187791D02*
G03*
X677724Y187791I-787J0D01*
G01*
X446146Y366795D02*
G03*
X446146Y366795I-787J0D01*
G01*
D13*
X443390Y354000D02*
G03*
X443390Y354000I-6890J0D01*
G01*
X330098Y198902D02*
X348902D01*
X330098D02*
X348902D01*
Y208098D01*
X330098D02*
X348902D01*
X330098Y198902D02*
Y208098D01*
X577524Y39728D02*
X705476D01*
X577524D02*
Y102720D01*
X705476Y39728D02*
Y102720D01*
X693665Y130280D02*
Y183429D01*
X589335D02*
X693665D01*
X589335Y130280D02*
Y183429D01*
X705476Y102720D02*
X719256D01*
X577524D02*
X705476D01*
X563744D02*
X577524D01*
X563744D02*
Y130280D01*
X589335D01*
X693665D01*
X719256D01*
Y102720D02*
Y130280D01*
X560716Y101563D02*
Y158256D01*
X525283Y101563D02*
X560716D01*
X525283D02*
Y158256D01*
X560716D01*
X634327Y468114D02*
X683146D01*
X634327D02*
Y490752D01*
X683146D01*
Y468114D02*
Y490752D01*
X566854Y468114D02*
X615673D01*
X566854D02*
Y490752D01*
X615673D01*
Y468114D02*
Y490752D01*
X566669Y416614D02*
X615488D01*
X566669D02*
Y439252D01*
X615488D01*
Y416614D02*
Y439252D01*
X448291Y342209D02*
Y365791D01*
X424709Y342209D02*
X448291D01*
X424709D02*
Y365791D01*
X448291D01*
X363098Y193598D02*
X381902D01*
X363098D02*
X381902D01*
X363098Y184402D02*
Y193598D01*
Y184402D02*
X381902D01*
Y193598D01*
X514669Y442114D02*
X563488D01*
X514669D02*
Y464752D01*
X563488D01*
Y442114D02*
Y464752D01*
X514591Y468181D02*
X563410D01*
X514591D02*
Y490819D01*
X563410D01*
Y468181D02*
Y490819D01*
X566669Y442114D02*
X615488D01*
X566669D02*
Y464752D01*
X615488D01*
Y442114D02*
Y464752D01*
X490063Y110626D02*
X522937D01*
X490063D02*
Y126374D01*
X522937D01*
Y110626D02*
Y126374D01*
X431272Y429216D02*
X511193D01*
Y491028D01*
X431272D02*
X511193D01*
X431272Y429216D02*
Y491028D01*
X356110Y222000D02*
X381720D01*
Y235800D01*
X356110D02*
X381720D01*
X356110Y222000D02*
Y235800D01*
X506205Y165945D02*
X531795D01*
X506205Y184055D02*
X531795D01*
Y165945D02*
Y184055D01*
X506205Y165945D02*
Y184055D01*
X548658Y378854D02*
X568342D01*
X548658Y363146D02*
X568342D01*
X548658D02*
Y378854D01*
X568342Y363146D02*
Y378854D01*
X356189Y157189D02*
X379811D01*
X356189Y180811D02*
X379811D01*
Y157189D02*
Y180811D01*
X356189Y157189D02*
Y180811D01*
X481102Y177398D02*
Y184484D01*
X468898Y177398D02*
X481102D01*
X468898D02*
Y184484D01*
X481102D01*
X617339Y290567D02*
Y311433D01*
X611433Y317339D02*
X617339Y311433D01*
X584661Y317339D02*
X611433D01*
X584661Y284661D02*
Y317339D01*
Y284661D02*
X611433D01*
X617339Y290567D01*
X452551Y300858D02*
X471449D01*
X452551D02*
Y345740D01*
X471449D01*
Y300858D02*
Y345740D01*
X355705Y432945D02*
Y451055D01*
X381295Y432945D02*
Y451055D01*
X355705D02*
X381295D01*
X355705Y432945D02*
X381295D01*
X512845Y237167D02*
X532156D01*
X512845Y221833D02*
Y237167D01*
Y221833D02*
X532156D01*
Y237167D01*
X621966Y382446D02*
Y406846D01*
Y382446D02*
X665717D01*
Y406846D01*
X621966D02*
X665717D01*
X667898Y438543D02*
X680102D01*
X667898Y431457D02*
X680102D01*
X667898D02*
Y438543D01*
X680102Y431457D02*
Y438543D01*
X366457Y380398D02*
Y392602D01*
Y380398D02*
X373543D01*
Y392602D01*
X366457D02*
X373543D01*
X365957Y466602D02*
X373043D01*
Y454398D02*
Y466602D01*
X365957Y454398D02*
X373043D01*
X365957D02*
Y466602D01*
Y429602D02*
X373043D01*
Y417398D02*
Y429602D01*
X365957Y417398D02*
X373043D01*
X365957D02*
Y429602D01*
X366457Y355602D02*
X373543D01*
Y343398D02*
Y355602D01*
X366457Y343398D02*
X373543D01*
X366457D02*
Y355602D01*
X469291Y205441D02*
Y210559D01*
Y205441D02*
X480709D01*
Y210559D01*
X469291D02*
X480709D01*
X490844Y237167D02*
X510155D01*
X490844Y221833D02*
Y237167D01*
Y221833D02*
X510155D01*
Y237167D01*
X437886Y104500D02*
X473634D01*
X437886D02*
Y144500D01*
X473634D01*
Y104500D02*
Y144500D01*
X355555Y469945D02*
X381146D01*
X355555Y488055D02*
X381146D01*
Y469945D02*
Y488055D01*
X355555Y469945D02*
Y488055D01*
X355705Y395945D02*
Y414055D01*
X381295Y395945D02*
Y414055D01*
X355705D02*
X381295D01*
X355705Y395945D02*
X381295D01*
X554155Y221833D02*
Y237167D01*
X534844Y221833D02*
X554155D01*
X534844D02*
Y237167D01*
X554155D01*
X355705Y358445D02*
Y376555D01*
X381295Y358445D02*
Y376555D01*
X355705D02*
X381295D01*
X355705Y358445D02*
X381295D01*
X510311Y339216D02*
X538658D01*
Y310870D02*
Y339216D01*
X510311Y310870D02*
X538658D01*
X510311D02*
Y339216D01*
X617339Y326567D02*
Y347433D01*
X611433Y353339D02*
X617339Y347433D01*
X584661Y353339D02*
X611433D01*
X584661Y320661D02*
Y353339D01*
Y320661D02*
X611433D01*
X617339Y326567D01*
X679685Y311933D02*
X685591Y317839D01*
X712362D01*
Y285161D02*
Y317839D01*
X685591Y285161D02*
X712362D01*
X679685Y291067D02*
X685591Y285161D01*
X679685Y291067D02*
Y311933D01*
X679661Y326567D02*
Y347433D01*
Y326567D02*
X685567Y320661D01*
X712339D01*
Y353339D01*
X685567D02*
X712339D01*
X679661Y347433D02*
X685567Y353339D01*
X511154Y102539D02*
X517846D01*
X511154D02*
Y107461D01*
X517846D01*
Y102539D02*
Y107461D01*
X368244Y142209D02*
X374543D01*
Y130791D02*
Y142209D01*
X368244Y130791D02*
X374543D01*
X368244D02*
Y142209D01*
D14*
X481500Y217000D02*
Y226000D01*
X467500Y217000D02*
X481500D01*
X467500D02*
Y226000D01*
X481500D01*
X395000Y110000D02*
Y124000D01*
Y110000D02*
X404000D01*
Y124000D01*
X395000D02*
X404000D01*
X553000Y168000D02*
Y182000D01*
Y168000D02*
X562000D01*
Y182000D01*
X553000D02*
X562000D01*
X541776Y182087D02*
X551224D01*
Y167913D02*
Y182087D01*
X541776Y167913D02*
X551224D01*
X541776D02*
Y182087D01*
X549000Y344000D02*
X566000D01*
Y335000D02*
Y344000D01*
X549000Y335000D02*
X566000D01*
X549000D02*
Y344000D01*
Y354500D02*
X566000D01*
Y345500D02*
Y354500D01*
X549000Y345500D02*
X566000D01*
X549000D02*
Y354500D01*
X540500Y387500D02*
X557500D01*
X540500D02*
Y396500D01*
X557500D01*
Y387500D02*
Y396500D01*
X559000D02*
X576000D01*
Y387500D02*
Y396500D01*
X559000Y387500D02*
X576000D01*
X559000D02*
Y396500D01*
X581000Y371500D02*
Y385500D01*
X572000Y371500D02*
X581000D01*
X572000D02*
Y385500D01*
X581000D01*
X563500Y168000D02*
X572500D01*
X563500D02*
Y182000D01*
X572500D01*
Y168000D02*
Y182000D01*
X457500Y356000D02*
Y373000D01*
Y356000D02*
X466500D01*
Y373000D01*
X457500D02*
X466500D01*
X499500Y293000D02*
Y302000D01*
X482500Y293000D02*
X499500D01*
X482500D02*
Y302000D01*
X499500D01*
X482500Y313000D02*
X499500D01*
Y322000D01*
X482500D02*
X499500D01*
X482500Y313000D02*
Y322000D01*
X489000Y212000D02*
X498000D01*
Y198000D02*
Y212000D01*
X489000Y198000D02*
X498000D01*
X489000D02*
Y212000D01*
X646000Y433500D02*
X655000D01*
Y416500D02*
Y433500D01*
X646000Y416500D02*
X655000D01*
X646000D02*
Y433500D01*
X624000Y416500D02*
Y425500D01*
X638000D01*
Y416500D02*
Y425500D01*
X624000Y416500D02*
X638000D01*
X656500Y433500D02*
X665500D01*
Y416500D02*
Y433500D01*
X656500Y416500D02*
X665500D01*
X656500D02*
Y433500D01*
X681000Y416500D02*
Y425500D01*
X667000Y416500D02*
X681000D01*
X667000D02*
Y425500D01*
X681000D01*
X651500Y449500D02*
X665500D01*
X651500Y440500D02*
Y449500D01*
Y440500D02*
X665500D01*
Y449500D01*
X667000Y455000D02*
X681000D01*
Y464000D01*
X667000D02*
X681000D01*
X667000Y455000D02*
Y464000D01*
X650000Y440500D02*
Y449500D01*
X636000Y440500D02*
X650000D01*
X636000D02*
Y449500D01*
X650000D01*
X667000Y444500D02*
X681000D01*
Y453500D01*
X667000D02*
X681000D01*
X667000Y444500D02*
Y453500D01*
X659500Y451000D02*
Y460000D01*
X642500Y451000D02*
X659500D01*
X642500D02*
Y460000D01*
X659500D01*
X682500Y446500D02*
X699500D01*
X682500Y437500D02*
Y446500D01*
Y437500D02*
X699500D01*
Y446500D01*
X494913Y393776D02*
Y403224D01*
X509087D01*
Y393776D02*
Y403224D01*
X494913Y393776D02*
X509087D01*
X478500Y403000D02*
X492500D01*
X478500Y394000D02*
Y403000D01*
Y394000D02*
X492500D01*
Y403000D01*
X494913Y407276D02*
Y416724D01*
X509087D01*
Y407276D02*
Y416724D01*
X494913Y407276D02*
X509087D01*
X478500Y416500D02*
X492500D01*
X478500Y407500D02*
Y416500D01*
Y407500D02*
X492500D01*
Y416500D01*
X468000Y199500D02*
X482000D01*
X468000Y190500D02*
Y199500D01*
Y190500D02*
X482000D01*
Y199500D01*
X392500Y110000D02*
Y119000D01*
X375500Y110000D02*
X392500D01*
X375500D02*
Y119000D01*
X392500D01*
X413500Y372500D02*
X422500D01*
Y358500D02*
Y372500D01*
X413500Y358500D02*
X422500D01*
X413500D02*
Y372500D01*
X498500Y378000D02*
X507500D01*
Y361000D02*
Y378000D01*
X498500Y361000D02*
X507500D01*
X498500D02*
Y378000D01*
X403000Y358500D02*
X412000D01*
X403000D02*
Y372500D01*
X412000D01*
Y358500D02*
Y372500D01*
X499500Y326000D02*
Y335000D01*
X485500Y326000D02*
X499500D01*
X485500D02*
Y335000D01*
X499500D01*
X550500Y338000D02*
Y355000D01*
Y338000D02*
X559500D01*
Y355000D01*
X550500D02*
X559500D01*
X529000Y350000D02*
X538000D01*
X529000D02*
Y364000D01*
X538000D01*
Y350000D02*
Y364000D01*
X492500Y380000D02*
Y389000D01*
X478500Y380000D02*
X492500D01*
X478500D02*
Y389000D01*
X492500D01*
X518000Y375000D02*
X527000D01*
Y361000D02*
Y375000D01*
X518000Y361000D02*
X527000D01*
X518000D02*
Y375000D01*
X494413Y379776D02*
X508587D01*
Y389224D01*
X494413D02*
X508587D01*
X494413Y379776D02*
Y389224D01*
X394776Y126413D02*
Y140587D01*
Y126413D02*
X404224D01*
Y140587D01*
X394776D02*
X404224D01*
X517000Y199000D02*
X531000D01*
X517000Y190000D02*
Y199000D01*
Y190000D02*
X531000D01*
Y199000D01*
X604500Y355500D02*
Y364500D01*
X621500D01*
Y355500D02*
Y364500D01*
X604500Y355500D02*
X621500D01*
X677000D02*
X694000D01*
Y364500D01*
X677000D02*
X694000D01*
X677000Y355500D02*
Y364500D01*
X467500Y237000D02*
X481500D01*
X467500Y228000D02*
Y237000D01*
Y228000D02*
X481500D01*
Y237000D01*
X383500Y138500D02*
X392500D01*
Y121500D02*
Y138500D01*
X383500Y121500D02*
X392500D01*
X383500D02*
Y138500D01*
X336500Y175500D02*
X350500D01*
Y184500D01*
X336500D02*
X350500D01*
X336500Y175500D02*
Y184500D01*
X336413Y186776D02*
Y196224D01*
X350587D01*
Y186776D02*
Y196224D01*
X336413Y186776D02*
X350587D01*
X351000Y164000D02*
Y173000D01*
X334000Y164000D02*
X351000D01*
X334000D02*
Y173000D01*
X351000D01*
X391776Y486587D02*
X401224D01*
Y472413D02*
Y486587D01*
X391776Y472413D02*
X401224D01*
X391776D02*
Y486587D01*
X413500Y435500D02*
Y449500D01*
Y435500D02*
X422500D01*
Y449500D01*
X413500D02*
X422500D01*
X402500Y472500D02*
X411500D01*
X402500D02*
Y486500D01*
X411500D01*
Y472500D02*
Y486500D01*
X412000Y435500D02*
Y449500D01*
X403000D02*
X412000D01*
X403000Y435500D02*
Y449500D01*
Y435500D02*
X412000D01*
X413000Y486500D02*
X422000D01*
Y472500D02*
Y486500D01*
X413000Y472500D02*
X422000D01*
X413000D02*
Y486500D01*
X391776Y449587D02*
X401224D01*
Y435413D02*
Y449587D01*
X391776Y435413D02*
X401224D01*
X391776D02*
Y449587D01*
X392500Y141000D02*
Y155000D01*
X383500D02*
X392500D01*
X383500Y141000D02*
Y155000D01*
Y141000D02*
X392500D01*
X355500Y453760D02*
Y467760D01*
X346500D02*
X355500D01*
X346500Y453760D02*
Y467760D01*
Y453760D02*
X355500D01*
Y416740D02*
Y430740D01*
X346500D02*
X355500D01*
X346500Y416740D02*
Y430740D01*
Y416740D02*
X355500D01*
Y379500D02*
Y393500D01*
X346500D02*
X355500D01*
X346500Y379500D02*
Y393500D01*
Y379500D02*
X355500D01*
X392276Y372587D02*
X401724D01*
Y358413D02*
Y372587D01*
X392276Y358413D02*
X401724D01*
X392276D02*
Y372587D01*
X356000Y342000D02*
Y356000D01*
X347000D02*
X356000D01*
X347000Y342000D02*
Y356000D01*
Y342000D02*
X356000D01*
X471000Y157500D02*
X480000D01*
X471000D02*
Y171500D01*
X480000D01*
Y157500D02*
Y171500D01*
X549500Y307500D02*
Y321500D01*
Y307500D02*
X558500D01*
Y321500D01*
X549500D02*
X558500D01*
X621500Y230000D02*
X638500D01*
X621500Y221000D02*
Y230000D01*
Y221000D02*
X638500D01*
Y230000D01*
X611000Y200500D02*
X620000D01*
X611000D02*
Y217500D01*
X620000D01*
Y200500D02*
Y217500D01*
X621500Y219500D02*
X638500D01*
X621500Y210500D02*
Y219500D01*
Y210500D02*
X638500D01*
Y219500D01*
X637000Y200000D02*
Y209000D01*
X623000Y200000D02*
X637000D01*
X623000D02*
Y209000D01*
X637000D01*
X391776Y395913D02*
Y410087D01*
Y395913D02*
X401224D01*
Y410087D01*
X391776D02*
X401224D01*
X402500Y396000D02*
X411500D01*
X402500D02*
Y410000D01*
X411500D01*
Y396000D02*
Y410000D01*
X413000D02*
X422000D01*
Y396000D02*
Y410000D01*
X413000Y396000D02*
X422000D01*
X413000D02*
Y410000D01*
X499500Y212000D02*
X508500D01*
Y198000D02*
Y212000D01*
X499500Y198000D02*
X508500D01*
X499500D02*
Y212000D01*
X701500Y200500D02*
X710500D01*
X701500D02*
Y217500D01*
X710500D01*
Y200500D02*
Y217500D01*
X484000Y173500D02*
Y187500D01*
Y173500D02*
X493000D01*
Y187500D01*
X484000D02*
X493000D01*
X627500Y297500D02*
X636500D01*
X627500D02*
Y314500D01*
X636500D01*
Y297500D02*
Y314500D01*
X529000Y254500D02*
X543000D01*
X529000Y245500D02*
Y254500D01*
Y245500D02*
X543000D01*
Y254500D01*
X544500Y245500D02*
X558500D01*
Y254500D01*
X544500D02*
X558500D01*
X544500Y245500D02*
Y254500D01*
X660500Y297500D02*
X669500D01*
X660500D02*
Y314500D01*
X669500D01*
Y297500D02*
Y314500D01*
X638500Y297500D02*
X647500D01*
X638500D02*
Y314500D01*
X647500D01*
Y297500D02*
Y314500D01*
X683000Y221000D02*
Y230000D01*
X700000D01*
Y221000D02*
Y230000D01*
X683000Y221000D02*
X700000D01*
X604500Y366000D02*
X621500D01*
Y375000D01*
X604500D02*
X621500D01*
X604500Y366000D02*
Y375000D01*
X549500Y285500D02*
Y294500D01*
X563500D01*
Y285500D02*
Y294500D01*
X549500Y285500D02*
X563500D01*
X531500Y283000D02*
X540500D01*
X531500D02*
Y300000D01*
X540500D01*
Y283000D02*
Y300000D01*
X677000Y366000D02*
Y375000D01*
X694000D01*
Y366000D02*
Y375000D01*
X677000Y366000D02*
X694000D01*
X683000Y210500D02*
Y219500D01*
X700000D01*
Y210500D02*
Y219500D01*
X683000Y210500D02*
X700000D01*
X685000Y200000D02*
Y209000D01*
X699000D01*
Y200000D02*
Y209000D01*
X685000Y200000D02*
X699000D01*
X649500Y297500D02*
X658500D01*
X649500D02*
Y314500D01*
X658500D01*
Y297500D02*
Y314500D01*
X549500Y296500D02*
Y305500D01*
X563500D01*
Y296500D02*
Y305500D01*
X549500Y296500D02*
X563500D01*
X481000Y245500D02*
Y254500D01*
X467000Y245500D02*
X481000D01*
X467000D02*
Y254500D01*
X481000D01*
X482500Y245500D02*
Y254500D01*
X496500D01*
Y245500D02*
Y254500D01*
X482500Y245500D02*
X496500D01*
X536000Y260000D02*
Y269000D01*
X550000D01*
Y260000D02*
Y269000D01*
X536000Y260000D02*
X550000D01*
X336913Y226776D02*
X351087D01*
Y236224D01*
X336913D02*
X351087D01*
X336913Y226776D02*
Y236224D01*
X342000Y147500D02*
X351000D01*
X342000D02*
Y161500D01*
X351000D01*
Y147500D02*
Y161500D01*
X484000Y171760D02*
X493000D01*
Y157760D02*
Y171760D01*
X484000Y157760D02*
X493000D01*
X484000D02*
Y171760D01*
X474500Y259000D02*
X488500D01*
Y268000D01*
X474500D02*
X488500D01*
X474500Y259000D02*
Y268000D01*
X503000Y259000D02*
X517000D01*
Y268000D01*
X503000D02*
X517000D01*
X503000Y259000D02*
Y268000D01*
X498000Y254500D02*
X512000D01*
X498000Y245500D02*
Y254500D01*
Y245500D02*
X512000D01*
Y254500D01*
X515500Y283000D02*
X529500D01*
Y292000D01*
X515500D02*
X529500D01*
X515500Y283000D02*
Y292000D01*
X513500Y245500D02*
X527500D01*
Y254500D01*
X513500D02*
X527500D01*
X513500Y245500D02*
Y254500D01*
X449500Y310000D02*
Y319000D01*
X432500Y310000D02*
X449500D01*
X432500D02*
Y319000D01*
X449500D01*
X435500Y330000D02*
X449500D01*
X435500Y321000D02*
Y330000D01*
Y321000D02*
X449500D01*
Y330000D01*
X336000Y224000D02*
X353000D01*
X336000Y215000D02*
Y224000D01*
Y215000D02*
X353000D01*
Y224000D01*
X365415Y210900D02*
X382415D01*
X365415Y201900D02*
Y210900D01*
Y201900D02*
X382415D01*
Y210900D01*
X500000Y350000D02*
X517000D01*
Y359000D01*
X500000D02*
X517000D01*
X500000Y350000D02*
Y359000D01*
X337000Y239000D02*
X351000D01*
Y248000D01*
X337000D02*
X351000D01*
X337000Y239000D02*
Y248000D01*
X363000Y145500D02*
X380000D01*
Y154500D01*
X363000D02*
X380000D01*
X363000Y145500D02*
Y154500D01*
X432500Y298500D02*
X449500D01*
Y307500D01*
X432500D02*
X449500D01*
X432500Y298500D02*
Y307500D01*
X350500Y129000D02*
Y143000D01*
Y129000D02*
X359500D01*
Y143000D01*
X350500D02*
X359500D01*
D15*
X383658Y465815D02*
X403342D01*
Y455185D02*
Y465815D01*
X383658Y455185D02*
X403342D01*
X383658D02*
Y465815D01*
X384157Y428815D02*
X403842D01*
Y418185D02*
Y428815D01*
X384157Y418185D02*
X403842D01*
X384157D02*
Y428815D01*
X383658Y391815D02*
X403342D01*
Y381185D02*
Y391815D01*
X383658Y381185D02*
X403342D01*
X383658D02*
Y391815D01*
X384157Y345185D02*
Y355815D01*
Y345185D02*
X403842D01*
Y355815D01*
X384157D02*
X403842D01*
D121*
X635000Y232900D02*
G03*
X635000Y232300I0J-300D01*
G01*
D02*
G03*
X635000Y232900I0J300D01*
G01*
X686000D02*
G03*
X686000Y232300I0J-300D01*
G01*
D02*
G03*
X686000Y232900I0J300D01*
G01*
X662466Y406846D02*
X663666D01*
X659866D02*
X661066D01*
X657366D02*
X658566D01*
X654766D02*
X655966D01*
X652266D02*
X653366D01*
X649666D02*
X650866D01*
X647066D02*
X648266D01*
X644566D02*
X645766D01*
X641966D02*
X643166D01*
X639466D02*
X640666D01*
X636866D02*
X638066D01*
X634366D02*
X635466D01*
X631766D02*
X632966D01*
X629166D02*
X630366D01*
X626666D02*
X627866D01*
X624066D02*
X625266D01*
X624066Y382446D02*
X625266D01*
X626666D02*
X627866D01*
X629166D02*
X630366D01*
X631766D02*
X632966D01*
X634366D02*
X635466D01*
X636866D02*
X638066D01*
X639466D02*
X640666D01*
X641966D02*
X643166D01*
X644566D02*
X645766D01*
X647066D02*
X648266D01*
X649666D02*
X650866D01*
X652266D02*
X653366D01*
X654766D02*
X655966D01*
X657366D02*
X658566D01*
X659866D02*
X661066D01*
X662466D02*
X663666D01*
D122*
X479748Y223468D02*
Y219532D01*
X477780D01*
X477124Y220188D01*
Y221500D01*
X477780Y222156D01*
X479748D01*
X478436D02*
X477124Y223468D01*
X473188D02*
X475812D01*
X473188Y220844D01*
Y220188D01*
X473844Y219532D01*
X475156D01*
X475812Y220188D01*
X469252Y223468D02*
X471876D01*
X469252Y220844D01*
Y220188D01*
X469908Y219532D01*
X471220D01*
X471876Y220188D01*
X397532Y119624D02*
X401468D01*
Y117656D01*
X400812Y117000D01*
X399500D01*
X398844Y117656D01*
Y119624D01*
Y118312D02*
X397532Y117000D01*
Y115688D02*
Y114376D01*
Y115032D01*
X401468D01*
X400812Y115688D01*
X555532Y180248D02*
X559468D01*
Y178280D01*
X558812Y177624D01*
X557500D01*
X556844Y178280D01*
Y180248D01*
Y178936D02*
X555532Y177624D01*
Y173688D02*
Y176312D01*
X558156Y173688D01*
X558812D01*
X559468Y174344D01*
Y175656D01*
X558812Y176312D01*
Y172376D02*
X559468Y171720D01*
Y170408D01*
X558812Y169752D01*
X558156D01*
X557500Y170408D01*
X556844Y169752D01*
X556188D01*
X555532Y170408D01*
Y171720D01*
X556188Y172376D01*
X556844D01*
X557500Y171720D01*
X558156Y172376D01*
X558812D01*
X557500Y171720D02*
Y170408D01*
X548468Y178280D02*
X544532D01*
Y176312D01*
X545188Y175656D01*
X547812D01*
X548468Y176312D01*
Y178280D01*
X547812Y174344D02*
X548468Y173688D01*
Y172376D01*
X547812Y171720D01*
X547156D01*
X546500Y172376D01*
X545844Y171720D01*
X545188D01*
X544532Y172376D01*
Y173688D01*
X545188Y174344D01*
X545844D01*
X546500Y173688D01*
X547156Y174344D01*
X547812D01*
X546500Y173688D02*
Y172376D01*
X555204Y338188D02*
X554548Y337532D01*
X553236D01*
X552580Y338188D01*
Y340812D01*
X553236Y341468D01*
X554548D01*
X555204Y340812D01*
X556516Y341468D02*
X557828D01*
X557172D01*
Y337532D01*
X556516Y338188D01*
X559796D02*
X560452Y337532D01*
X561764D01*
X562420Y338188D01*
Y338844D01*
X561764Y339500D01*
X562420Y340156D01*
Y340812D01*
X561764Y341468D01*
X560452D01*
X559796Y340812D01*
Y340156D01*
X560452Y339500D01*
X559796Y338844D01*
Y338188D01*
X560452Y339500D02*
X561764D01*
X555204Y348688D02*
X554548Y348032D01*
X553236D01*
X552580Y348688D01*
Y351312D01*
X553236Y351968D01*
X554548D01*
X555204Y351312D01*
X556516Y351968D02*
X557828D01*
X557172D01*
Y348032D01*
X556516Y348688D01*
X559796Y351312D02*
X560452Y351968D01*
X561764D01*
X562420Y351312D01*
Y348688D01*
X561764Y348032D01*
X560452D01*
X559796Y348688D01*
Y349344D01*
X560452Y350000D01*
X562420D01*
X551296Y393312D02*
X551952Y393968D01*
X553264D01*
X553920Y393312D01*
Y390688D01*
X553264Y390032D01*
X551952D01*
X551296Y390688D01*
X549984Y390032D02*
X548672D01*
X549328D01*
Y393968D01*
X549984Y393312D01*
X546704Y393968D02*
X544080D01*
Y393312D01*
X546704Y390688D01*
Y390032D01*
X565204Y390688D02*
X564548Y390032D01*
X563236D01*
X562580Y390688D01*
Y393312D01*
X563236Y393968D01*
X564548D01*
X565204Y393312D01*
X566516Y393968D02*
X567828D01*
X567172D01*
Y390032D01*
X566516Y390688D01*
X572420Y390032D02*
X571108Y390688D01*
X569796Y392000D01*
Y393312D01*
X570452Y393968D01*
X571764D01*
X572420Y393312D01*
Y392656D01*
X571764Y392000D01*
X569796D01*
X578468Y383748D02*
X574532D01*
Y381780D01*
X575188Y381124D01*
X576500D01*
X577156Y381780D01*
Y383748D01*
Y382436D02*
X578468Y381124D01*
X575188Y379812D02*
X574532Y379156D01*
Y377844D01*
X575188Y377188D01*
X575844D01*
X576500Y377844D01*
Y378500D01*
Y377844D01*
X577156Y377188D01*
X577812D01*
X578468Y377844D01*
Y379156D01*
X577812Y379812D01*
X574532Y373252D02*
X575188Y374564D01*
X576500Y375876D01*
X577812D01*
X578468Y375220D01*
Y373908D01*
X577812Y373252D01*
X577156D01*
X576500Y373908D01*
Y375876D01*
X569968Y169752D02*
X566032D01*
Y171720D01*
X566688Y172376D01*
X568000D01*
X568656Y171720D01*
Y169752D01*
Y171064D02*
X569968Y172376D01*
Y176312D02*
Y173688D01*
X567344Y176312D01*
X566688D01*
X566032Y175656D01*
Y174344D01*
X566688Y173688D01*
X566032Y177624D02*
Y180248D01*
X566688D01*
X569312Y177624D01*
X569968D01*
X463312Y366796D02*
X463968Y367452D01*
Y368764D01*
X463312Y369420D01*
X460688D01*
X460032Y368764D01*
Y367452D01*
X460688Y366796D01*
X460032Y365484D02*
Y364172D01*
Y364828D01*
X463968D01*
X463312Y365484D01*
Y362204D02*
X463968Y361548D01*
Y360236D01*
X463312Y359580D01*
X462656D01*
X462000Y360236D01*
Y360892D01*
Y360236D01*
X461344Y359580D01*
X460688D01*
X460032Y360236D01*
Y361548D01*
X460688Y362204D01*
X492640Y296188D02*
X493296Y295532D01*
X494608D01*
X495264Y296188D01*
Y298812D01*
X494608Y299468D01*
X493296D01*
X492640Y298812D01*
X491328Y299468D02*
X490016D01*
X490672D01*
Y295532D01*
X491328Y296188D01*
X488048Y299468D02*
X486736D01*
X487392D01*
Y295532D01*
X488048Y296188D01*
X488704Y318812D02*
X488048Y319468D01*
X486736D01*
X486080Y318812D01*
Y316188D01*
X486736Y315532D01*
X488048D01*
X488704Y316188D01*
X490016Y315532D02*
X491328D01*
X490672D01*
Y319468D01*
X490016Y318812D01*
X493296D02*
X493952Y319468D01*
X495264D01*
X495920Y318812D01*
Y316188D01*
X495264Y315532D01*
X493952D01*
X493296Y316188D01*
Y318812D01*
X491532Y210248D02*
X495468D01*
Y208280D01*
X494812Y207624D01*
X493500D01*
X492844Y208280D01*
Y210248D01*
Y208936D02*
X491532Y207624D01*
X494812Y206312D02*
X495468Y205656D01*
Y204344D01*
X494812Y203688D01*
X494156D01*
X493500Y204344D01*
Y205000D01*
Y204344D01*
X492844Y203688D01*
X492188D01*
X491532Y204344D01*
Y205656D01*
X492188Y206312D01*
X495468Y199752D02*
Y202376D01*
X493500D01*
X494156Y201064D01*
Y200408D01*
X493500Y199752D01*
X492188D01*
X491532Y200408D01*
Y201720D01*
X492188Y202376D01*
X651812Y427624D02*
X652468Y428280D01*
Y429592D01*
X651812Y430248D01*
X649188D01*
X648532Y429592D01*
Y428280D01*
X649188Y427624D01*
X648532Y423688D02*
Y426312D01*
X651156Y423688D01*
X651812D01*
X652468Y424344D01*
Y425656D01*
X651812Y426312D01*
Y422376D02*
X652468Y421720D01*
Y420408D01*
X651812Y419752D01*
X649188D01*
X648532Y420408D01*
Y421720D01*
X649188Y422376D01*
X651812D01*
X625752Y419032D02*
Y422968D01*
X627720D01*
X628376Y422312D01*
Y421000D01*
X627720Y420344D01*
X625752D01*
X627064D02*
X628376Y419032D01*
X631656D02*
Y422968D01*
X629688Y421000D01*
X632312D01*
X633624Y422312D02*
X634280Y422968D01*
X635592D01*
X636248Y422312D01*
Y419688D01*
X635592Y419032D01*
X634280D01*
X633624Y419688D01*
Y422312D01*
X662312Y426968D02*
X662968Y427624D01*
Y428936D01*
X662312Y429592D01*
X659688D01*
X659032Y428936D01*
Y427624D01*
X659688Y426968D01*
X659032Y423032D02*
Y425656D01*
X661656Y423032D01*
X662312D01*
X662968Y423688D01*
Y425000D01*
X662312Y425656D01*
X659032Y421720D02*
Y420408D01*
Y421064D01*
X662968D01*
X662312Y421720D01*
X679248Y422968D02*
Y419032D01*
X677280D01*
X676624Y419688D01*
Y421000D01*
X677280Y421656D01*
X679248D01*
X677936D02*
X676624Y422968D01*
X675312Y419688D02*
X674656Y419032D01*
X673344D01*
X672688Y419688D01*
Y420344D01*
X673344Y421000D01*
X674000D01*
X673344D01*
X672688Y421656D01*
Y422312D01*
X673344Y422968D01*
X674656D01*
X675312Y422312D01*
X671376Y419032D02*
X668752D01*
Y419688D01*
X671376Y422312D01*
Y422968D01*
X663748Y446968D02*
Y443032D01*
X661780D01*
X661124Y443688D01*
Y445000D01*
X661780Y445656D01*
X663748D01*
X662436D02*
X661124Y446968D01*
X657844D02*
Y443032D01*
X659812Y445000D01*
X657188D01*
X653252Y446968D02*
X655876D01*
X653252Y444344D01*
Y443688D01*
X653908Y443032D01*
X655220D01*
X655876Y443688D01*
X668752Y457532D02*
Y461468D01*
X670720D01*
X671376Y460812D01*
Y459500D01*
X670720Y458844D01*
X668752D01*
X670064D02*
X671376Y457532D01*
X672688Y460812D02*
X673344Y461468D01*
X674656D01*
X675312Y460812D01*
Y460156D01*
X674656Y459500D01*
X674000D01*
X674656D01*
X675312Y458844D01*
Y458188D01*
X674656Y457532D01*
X673344D01*
X672688Y458188D01*
X676624Y460812D02*
X677280Y461468D01*
X678592D01*
X679248Y460812D01*
Y460156D01*
X678592Y459500D01*
X679248Y458844D01*
Y458188D01*
X678592Y457532D01*
X677280D01*
X676624Y458188D01*
Y458844D01*
X677280Y459500D01*
X676624Y460156D01*
Y460812D01*
X677280Y459500D02*
X678592D01*
X647592Y446968D02*
Y443032D01*
X645624D01*
X644968Y443688D01*
Y445000D01*
X645624Y445656D01*
X647592D01*
X646280D02*
X644968Y446968D01*
X641688D02*
Y443032D01*
X643656Y445000D01*
X641032D01*
X639720Y446968D02*
X638408D01*
X639064D01*
Y443032D01*
X639720Y443688D01*
X668752Y447032D02*
Y450968D01*
X670720D01*
X671376Y450312D01*
Y449000D01*
X670720Y448344D01*
X668752D01*
X670064D02*
X671376Y447032D01*
X672688Y450312D02*
X673344Y450968D01*
X674656D01*
X675312Y450312D01*
Y449656D01*
X674656Y449000D01*
X674000D01*
X674656D01*
X675312Y448344D01*
Y447688D01*
X674656Y447032D01*
X673344D01*
X672688Y447688D01*
X676624D02*
X677280Y447032D01*
X678592D01*
X679248Y447688D01*
Y450312D01*
X678592Y450968D01*
X677280D01*
X676624Y450312D01*
Y449656D01*
X677280Y449000D01*
X679248D01*
X653624Y454188D02*
X654280Y453532D01*
X655592D01*
X656248Y454188D01*
Y456812D01*
X655592Y457468D01*
X654280D01*
X653624Y456812D01*
X649688Y457468D02*
X652312D01*
X649688Y454844D01*
Y454188D01*
X650344Y453532D01*
X651656D01*
X652312Y454188D01*
X645752Y457468D02*
X648376D01*
X645752Y454844D01*
Y454188D01*
X646408Y453532D01*
X647720D01*
X648376Y454188D01*
X693624Y440688D02*
X694280Y440032D01*
X695592D01*
X696248Y440688D01*
Y443312D01*
X695592Y443968D01*
X694280D01*
X693624Y443312D01*
X689688Y440032D02*
X691000Y440688D01*
X692312Y442000D01*
Y443312D01*
X691656Y443968D01*
X690344D01*
X689688Y443312D01*
Y442656D01*
X690344Y442000D01*
X692312D01*
X688376Y440688D02*
X687720Y440032D01*
X686408D01*
X685752Y440688D01*
Y443312D01*
X686408Y443968D01*
X687720D01*
X688376Y443312D01*
Y440688D01*
X498720Y400468D02*
Y396532D01*
X500688D01*
X501344Y397188D01*
Y399812D01*
X500688Y400468D01*
X498720D01*
X505280D02*
X503968Y399812D01*
X502656Y398500D01*
Y397188D01*
X503312Y396532D01*
X504624D01*
X505280Y397188D01*
Y397844D01*
X504624Y398500D01*
X502656D01*
X489764Y400468D02*
Y396532D01*
X487796D01*
X487140Y397188D01*
Y398500D01*
X487796Y399156D01*
X489764D01*
X488452D02*
X487140Y400468D01*
X485828D02*
X484516D01*
X485172D01*
Y396532D01*
X485828Y397188D01*
X482548Y400468D02*
X481236D01*
X481892D01*
Y396532D01*
X482548Y397188D01*
X498720Y413968D02*
Y410032D01*
X500688D01*
X501344Y410688D01*
Y413312D01*
X500688Y413968D01*
X498720D01*
X502656D02*
X505280D01*
Y413312D01*
X502656Y410688D01*
Y410032D01*
X490420Y413968D02*
Y410032D01*
X488452D01*
X487796Y410688D01*
Y412000D01*
X488452Y412656D01*
X490420D01*
X489108D02*
X487796Y413968D01*
X486484D02*
X485172D01*
X485828D01*
Y410032D01*
X486484Y410688D01*
X480580Y413968D02*
X483204D01*
X480580Y411344D01*
Y410688D01*
X481236Y410032D01*
X482548D01*
X483204Y410688D01*
X480248Y196968D02*
Y193032D01*
X478280D01*
X477624Y193688D01*
Y195000D01*
X478280Y195656D01*
X480248D01*
X478936D02*
X477624Y196968D01*
X473688D02*
X476312D01*
X473688Y194344D01*
Y193688D01*
X474344Y193032D01*
X475656D01*
X476312Y193688D01*
X472376D02*
X471720Y193032D01*
X470408D01*
X469752Y193688D01*
Y194344D01*
X470408Y195000D01*
X471064D01*
X470408D01*
X469752Y195656D01*
Y196312D01*
X470408Y196968D01*
X471720D01*
X472376Y196312D01*
X384000Y113188D02*
X384656Y112532D01*
X385968D01*
X386624Y113188D01*
Y115812D01*
X385968Y116468D01*
X384656D01*
X384000Y115812D01*
X382688Y116468D02*
X381376D01*
X382032D01*
Y112532D01*
X382688Y113188D01*
X416032Y370748D02*
X419968D01*
Y368780D01*
X419312Y368124D01*
X418000D01*
X417344Y368780D01*
Y370748D01*
Y369436D02*
X416032Y368124D01*
X419968Y364188D02*
Y366812D01*
X418000D01*
X418656Y365500D01*
Y364844D01*
X418000Y364188D01*
X416688D01*
X416032Y364844D01*
Y366156D01*
X416688Y366812D01*
X416032Y360908D02*
X419968D01*
X418000Y362876D01*
Y360252D01*
X504312Y371796D02*
X504968Y372452D01*
Y373764D01*
X504312Y374420D01*
X501688D01*
X501032Y373764D01*
Y372452D01*
X501688Y371796D01*
X501032Y370484D02*
Y369172D01*
Y369828D01*
X504968D01*
X504312Y370484D01*
X501032Y365236D02*
X504968D01*
X503000Y367204D01*
Y364580D01*
X409468Y360252D02*
X405532D01*
Y362220D01*
X406188Y362876D01*
X407500D01*
X408156Y362220D01*
Y360252D01*
Y361564D02*
X409468Y362876D01*
X405532Y366812D02*
Y364188D01*
X407500D01*
X406844Y365500D01*
Y366156D01*
X407500Y366812D01*
X408812D01*
X409468Y366156D01*
Y364844D01*
X408812Y364188D01*
X405532Y370748D02*
Y368124D01*
X407500D01*
X406844Y369436D01*
Y370092D01*
X407500Y370748D01*
X408812D01*
X409468Y370092D01*
Y368780D01*
X408812Y368124D01*
X495780Y332468D02*
Y328532D01*
X493812D01*
X493156Y329188D01*
Y330500D01*
X493812Y331156D01*
X495780D01*
X494468D02*
X493156Y332468D01*
X491844Y331812D02*
X491188Y332468D01*
X489876D01*
X489220Y331812D01*
Y329188D01*
X489876Y328532D01*
X491188D01*
X491844Y329188D01*
Y329844D01*
X491188Y330500D01*
X489220D01*
X556312Y347156D02*
X556968Y347812D01*
Y349124D01*
X556312Y349780D01*
X553688D01*
X553032Y349124D01*
Y347812D01*
X553688Y347156D01*
X556312Y345844D02*
X556968Y345188D01*
Y343876D01*
X556312Y343220D01*
X555656D01*
X555000Y343876D01*
X554344Y343220D01*
X553688D01*
X553032Y343876D01*
Y345188D01*
X553688Y345844D01*
X554344D01*
X555000Y345188D01*
X555656Y345844D01*
X556312D01*
X555000Y345188D02*
Y343876D01*
X535468Y352080D02*
X531532D01*
Y354048D01*
X532188Y354704D01*
X533500D01*
X534156Y354048D01*
Y352080D01*
Y353392D02*
X535468Y354704D01*
Y356016D02*
Y357328D01*
Y356672D01*
X531532D01*
X532188Y356016D01*
X531532Y359296D02*
Y361920D01*
X532188D01*
X534812Y359296D01*
X535468D01*
X490420Y386468D02*
Y382532D01*
X488452D01*
X487796Y383188D01*
Y384500D01*
X488452Y385156D01*
X490420D01*
X489108D02*
X487796Y386468D01*
X486484D02*
X485172D01*
X485828D01*
Y382532D01*
X486484Y383188D01*
X483204D02*
X482548Y382532D01*
X481236D01*
X480580Y383188D01*
Y385812D01*
X481236Y386468D01*
X482548D01*
X483204Y385812D01*
Y383188D01*
X520532Y371280D02*
X524468D01*
Y369312D01*
X523812Y368656D01*
X522500D01*
X521844Y369312D01*
Y371280D01*
Y369968D02*
X520532Y368656D01*
X524468Y367344D02*
Y364720D01*
X523812D01*
X521188Y367344D01*
X520532D01*
X498220Y386468D02*
Y382532D01*
X500188D01*
X500844Y383188D01*
Y385812D01*
X500188Y386468D01*
X498220D01*
X504780D02*
X502156D01*
Y384500D01*
X503468Y385156D01*
X504124D01*
X504780Y384500D01*
Y383188D01*
X504124Y382532D01*
X502812D01*
X502156Y383188D01*
X401468Y136780D02*
X397532D01*
Y134812D01*
X398188Y134156D01*
X400812D01*
X401468Y134812D01*
Y136780D01*
X397532Y130220D02*
Y132844D01*
X400156Y130220D01*
X400812D01*
X401468Y130876D01*
Y132188D01*
X400812Y132844D01*
X529248Y196468D02*
Y192532D01*
X527280D01*
X526624Y193188D01*
Y194500D01*
X527280Y195156D01*
X529248D01*
X527936D02*
X526624Y196468D01*
X522688Y192532D02*
X525312D01*
Y194500D01*
X524000Y193844D01*
X523344D01*
X522688Y194500D01*
Y195812D01*
X523344Y196468D01*
X524656D01*
X525312Y195812D01*
X521376Y192532D02*
X518752D01*
Y193188D01*
X521376Y195812D01*
Y196468D01*
X610376Y361312D02*
X609720Y361968D01*
X608408D01*
X607752Y361312D01*
Y358688D01*
X608408Y358032D01*
X609720D01*
X610376Y358688D01*
X614312Y358032D02*
X611688D01*
X614312Y360656D01*
Y361312D01*
X613656Y361968D01*
X612344D01*
X611688Y361312D01*
X618248Y361968D02*
X616936Y361312D01*
X615624Y360000D01*
Y358688D01*
X616280Y358032D01*
X617592D01*
X618248Y358688D01*
Y359344D01*
X617592Y360000D01*
X615624D01*
X682876Y361312D02*
X682220Y361968D01*
X680908D01*
X680252Y361312D01*
Y358688D01*
X680908Y358032D01*
X682220D01*
X682876Y358688D01*
X686812Y358032D02*
X684188D01*
X686812Y360656D01*
Y361312D01*
X686156Y361968D01*
X684844D01*
X684188Y361312D01*
X688124D02*
X688780Y361968D01*
X690092D01*
X690748Y361312D01*
Y360656D01*
X690092Y360000D01*
X689436D01*
X690092D01*
X690748Y359344D01*
Y358688D01*
X690092Y358032D01*
X688780D01*
X688124Y358688D01*
X479092Y234468D02*
Y230532D01*
X477124D01*
X476468Y231188D01*
Y232500D01*
X477124Y233156D01*
X479092D01*
X477780D02*
X476468Y234468D01*
X472532D02*
X475156D01*
X472532Y231844D01*
Y231188D01*
X473188Y230532D01*
X474500D01*
X475156Y231188D01*
X471220Y234468D02*
X469908D01*
X470564D01*
Y230532D01*
X471220Y231188D01*
X389312Y130656D02*
X389968Y131312D01*
Y132624D01*
X389312Y133280D01*
X386688D01*
X386032Y132624D01*
Y131312D01*
X386688Y130656D01*
X386032Y126720D02*
Y129344D01*
X388656Y126720D01*
X389312D01*
X389968Y127376D01*
Y128688D01*
X389312Y129344D01*
X340220Y178032D02*
Y181968D01*
X342188D01*
X342844Y181312D01*
Y180000D01*
X342188Y179344D01*
X340220D01*
X341532D02*
X342844Y178032D01*
X346780Y181968D02*
X344156D01*
Y180000D01*
X345468Y180656D01*
X346124D01*
X346780Y180000D01*
Y178688D01*
X346124Y178032D01*
X344812D01*
X344156Y178688D01*
X340220Y193468D02*
Y189532D01*
X342188D01*
X342844Y190188D01*
Y192812D01*
X342188Y193468D01*
X340220D01*
X344156Y192812D02*
X344812Y193468D01*
X346124D01*
X346780Y192812D01*
Y192156D01*
X346124Y191500D01*
X345468D01*
X346124D01*
X346780Y190844D01*
Y190188D01*
X346124Y189532D01*
X344812D01*
X344156Y190188D01*
X343156Y167188D02*
X343812Y166532D01*
X345124D01*
X345780Y167188D01*
Y169812D01*
X345124Y170468D01*
X343812D01*
X343156Y169812D01*
X339876Y170468D02*
Y166532D01*
X341844Y168500D01*
X339220D01*
X398468Y482780D02*
X394532D01*
Y480812D01*
X395188Y480156D01*
X397812D01*
X398468Y480812D01*
Y482780D01*
X395188Y478844D02*
X394532Y478188D01*
Y476876D01*
X395188Y476220D01*
X397812D01*
X398468Y476876D01*
Y478188D01*
X397812Y478844D01*
X397156D01*
X396500Y478188D01*
Y476220D01*
X416032Y447748D02*
X419968D01*
Y445780D01*
X419312Y445124D01*
X418000D01*
X417344Y445780D01*
Y447748D01*
Y446436D02*
X416032Y445124D01*
Y441844D02*
X419968D01*
X418000Y443812D01*
Y441188D01*
X419312Y439876D02*
X419968Y439220D01*
Y437908D01*
X419312Y437252D01*
X418656D01*
X418000Y437908D01*
X417344Y437252D01*
X416688D01*
X416032Y437908D01*
Y439220D01*
X416688Y439876D01*
X417344D01*
X418000Y439220D01*
X418656Y439876D01*
X419312D01*
X418000Y439220D02*
Y437908D01*
X408968Y474252D02*
X405032D01*
Y476220D01*
X405688Y476876D01*
X407000D01*
X407656Y476220D01*
Y474252D01*
Y475564D02*
X408968Y476876D01*
Y480156D02*
X405032D01*
X407000Y478188D01*
Y480812D01*
X405032Y484748D02*
X405688Y483436D01*
X407000Y482124D01*
X408312D01*
X408968Y482780D01*
Y484092D01*
X408312Y484748D01*
X407656D01*
X407000Y484092D01*
Y482124D01*
X409468Y437252D02*
X405532D01*
Y439220D01*
X406188Y439876D01*
X407500D01*
X408156Y439220D01*
Y437252D01*
Y438564D02*
X409468Y439876D01*
Y443156D02*
X405532D01*
X407500Y441188D01*
Y443812D01*
X408812Y445124D02*
X409468Y445780D01*
Y447092D01*
X408812Y447748D01*
X406188D01*
X405532Y447092D01*
Y445780D01*
X406188Y445124D01*
X406844D01*
X407500Y445780D01*
Y447748D01*
X415532Y484748D02*
X419468D01*
Y482780D01*
X418812Y482124D01*
X417500D01*
X416844Y482780D01*
Y484748D01*
Y483436D02*
X415532Y482124D01*
Y478844D02*
X419468D01*
X417500Y480812D01*
Y478188D01*
X419468Y474252D02*
Y476876D01*
X417500D01*
X418156Y475564D01*
Y474908D01*
X417500Y474252D01*
X416188D01*
X415532Y474908D01*
Y476220D01*
X416188Y476876D01*
X398468Y447420D02*
X394532D01*
Y445452D01*
X395188Y444796D01*
X397812D01*
X398468Y445452D01*
Y447420D01*
X394532Y443484D02*
Y442172D01*
Y442828D01*
X398468D01*
X397812Y443484D01*
Y440204D02*
X398468Y439548D01*
Y438236D01*
X397812Y437580D01*
X395188D01*
X394532Y438236D01*
Y439548D01*
X395188Y440204D01*
X397812D01*
X389968Y144720D02*
X386032D01*
Y146688D01*
X386688Y147344D01*
X388000D01*
X388656Y146688D01*
Y144720D01*
Y146032D02*
X389968Y147344D01*
Y151280D02*
Y148656D01*
X387344Y151280D01*
X386688D01*
X386032Y150624D01*
Y149312D01*
X386688Y148656D01*
X352968Y455512D02*
X349032D01*
Y457480D01*
X349688Y458136D01*
X351000D01*
X351656Y457480D01*
Y455512D01*
Y456824D02*
X352968Y458136D01*
Y461416D02*
X349032D01*
X351000Y459448D01*
Y462072D01*
X349032Y463384D02*
Y466008D01*
X349688D01*
X352312Y463384D01*
X352968D01*
Y418493D02*
X349032D01*
Y420460D01*
X349688Y421116D01*
X351000D01*
X351656Y420460D01*
Y418493D01*
Y419804D02*
X352968Y421116D01*
X349032Y425052D02*
Y422428D01*
X351000D01*
X350344Y423740D01*
Y424396D01*
X351000Y425052D01*
X352312D01*
X352968Y424396D01*
Y423084D01*
X352312Y422428D01*
X349688Y426364D02*
X349032Y427020D01*
Y428332D01*
X349688Y428988D01*
X352312D01*
X352968Y428332D01*
Y427020D01*
X352312Y426364D01*
X349688D01*
X352968Y381252D02*
X349032D01*
Y383220D01*
X349688Y383876D01*
X351000D01*
X351656Y383220D01*
Y381252D01*
Y382564D02*
X352968Y383876D01*
X349032Y387812D02*
Y385188D01*
X351000D01*
X350344Y386500D01*
Y387156D01*
X351000Y387812D01*
X352312D01*
X352968Y387156D01*
Y385844D01*
X352312Y385188D01*
X349688Y389124D02*
X349032Y389780D01*
Y391092D01*
X349688Y391748D01*
X350344D01*
X351000Y391092D01*
Y390436D01*
Y391092D01*
X351656Y391748D01*
X352312D01*
X352968Y391092D01*
Y389780D01*
X352312Y389124D01*
X398968Y370420D02*
X395032D01*
Y368452D01*
X395688Y367796D01*
X398312D01*
X398968Y368452D01*
Y370420D01*
X395032Y366484D02*
Y365172D01*
Y365828D01*
X398968D01*
X398312Y366484D01*
X395032Y360580D02*
Y363204D01*
X397656Y360580D01*
X398312D01*
X398968Y361236D01*
Y362548D01*
X398312Y363204D01*
X353468Y343752D02*
X349532D01*
Y345720D01*
X350188Y346376D01*
X351500D01*
X352156Y345720D01*
Y343752D01*
Y345064D02*
X353468Y346376D01*
X349532Y350312D02*
Y347688D01*
X351500D01*
X350844Y349000D01*
Y349656D01*
X351500Y350312D01*
X352812D01*
X353468Y349656D01*
Y348344D01*
X352812Y347688D01*
X349532Y354248D02*
X350188Y352936D01*
X351500Y351624D01*
X352812D01*
X353468Y352280D01*
Y353592D01*
X352812Y354248D01*
X352156D01*
X351500Y353592D01*
Y351624D01*
X477468Y159252D02*
X473532D01*
Y161220D01*
X474188Y161876D01*
X475500D01*
X476156Y161220D01*
Y159252D01*
Y160564D02*
X477468Y161876D01*
Y165812D02*
Y163188D01*
X474844Y165812D01*
X474188D01*
X473532Y165156D01*
Y163844D01*
X474188Y163188D01*
X477468Y169092D02*
X473532D01*
X475500Y167124D01*
Y169748D01*
X552032Y319420D02*
X555968D01*
Y317452D01*
X555312Y316796D01*
X554000D01*
X553344Y317452D01*
Y319420D01*
Y318108D02*
X552032Y316796D01*
Y315484D02*
Y314172D01*
Y314828D01*
X555968D01*
X555312Y315484D01*
Y312204D02*
X555968Y311548D01*
Y310236D01*
X555312Y309580D01*
X554656D01*
X554000Y310236D01*
X553344Y309580D01*
X552688D01*
X552032Y310236D01*
Y311548D01*
X552688Y312204D01*
X553344D01*
X554000Y311548D01*
X554656Y312204D01*
X555312D01*
X554000Y311548D02*
Y310236D01*
X632624Y224188D02*
X633280Y223532D01*
X634592D01*
X635248Y224188D01*
Y226812D01*
X634592Y227468D01*
X633280D01*
X632624Y226812D01*
X631312Y224188D02*
X630656Y223532D01*
X629344D01*
X628688Y224188D01*
Y224844D01*
X629344Y225500D01*
X630000D01*
X629344D01*
X628688Y226156D01*
Y226812D01*
X629344Y227468D01*
X630656D01*
X631312Y226812D01*
X624752Y223532D02*
X627376D01*
Y225500D01*
X626064Y224844D01*
X625408D01*
X624752Y225500D01*
Y226812D01*
X625408Y227468D01*
X626720D01*
X627376Y226812D01*
X614188Y206376D02*
X613532Y205720D01*
Y204408D01*
X614188Y203752D01*
X616812D01*
X617468Y204408D01*
Y205720D01*
X616812Y206376D01*
X614188Y207688D02*
X613532Y208344D01*
Y209656D01*
X614188Y210312D01*
X614844D01*
X615500Y209656D01*
Y209000D01*
Y209656D01*
X616156Y210312D01*
X616812D01*
X617468Y209656D01*
Y208344D01*
X616812Y207688D01*
Y211624D02*
X617468Y212280D01*
Y213592D01*
X616812Y214248D01*
X614188D01*
X613532Y213592D01*
Y212280D01*
X614188Y211624D01*
X614844D01*
X615500Y212280D01*
Y214248D01*
X632624Y213688D02*
X633280Y213032D01*
X634592D01*
X635248Y213688D01*
Y216312D01*
X634592Y216968D01*
X633280D01*
X632624Y216312D01*
X631312Y213688D02*
X630656Y213032D01*
X629344D01*
X628688Y213688D01*
Y214344D01*
X629344Y215000D01*
X630000D01*
X629344D01*
X628688Y215656D01*
Y216312D01*
X629344Y216968D01*
X630656D01*
X631312Y216312D01*
X627376Y213032D02*
X624752D01*
Y213688D01*
X627376Y216312D01*
Y216968D01*
X635248Y206468D02*
Y202532D01*
X633280D01*
X632624Y203188D01*
Y204500D01*
X633280Y205156D01*
X635248D01*
X633936D02*
X632624Y206468D01*
X629344D02*
Y202532D01*
X631312Y204500D01*
X628688D01*
X627376Y203188D02*
X626720Y202532D01*
X625408D01*
X624752Y203188D01*
Y203844D01*
X625408Y204500D01*
X626064D01*
X625408D01*
X624752Y205156D01*
Y205812D01*
X625408Y206468D01*
X626720D01*
X627376Y205812D01*
X398468Y407264D02*
X394532D01*
Y405296D01*
X395188Y404640D01*
X397812D01*
X398468Y405296D01*
Y407264D01*
X394532Y403328D02*
Y402016D01*
Y402672D01*
X398468D01*
X397812Y403328D01*
X394532Y400048D02*
Y398736D01*
Y399392D01*
X398468D01*
X397812Y400048D01*
X408968Y397752D02*
X405032D01*
Y399720D01*
X405688Y400376D01*
X407000D01*
X407656Y399720D01*
Y397752D01*
Y399064D02*
X408968Y400376D01*
X405032Y404312D02*
Y401688D01*
X407000D01*
X406344Y403000D01*
Y403656D01*
X407000Y404312D01*
X408312D01*
X408968Y403656D01*
Y402344D01*
X408312Y401688D01*
X408968Y408248D02*
Y405624D01*
X406344Y408248D01*
X405688D01*
X405032Y407592D01*
Y406280D01*
X405688Y405624D01*
X415532Y407592D02*
X419468D01*
Y405624D01*
X418812Y404968D01*
X417500D01*
X416844Y405624D01*
Y407592D01*
Y406280D02*
X415532Y404968D01*
X419468Y401032D02*
Y403656D01*
X417500D01*
X418156Y402344D01*
Y401688D01*
X417500Y401032D01*
X416188D01*
X415532Y401688D01*
Y403000D01*
X416188Y403656D01*
X415532Y399720D02*
Y398408D01*
Y399064D01*
X419468D01*
X418812Y399720D01*
X502032Y210248D02*
X505968D01*
Y208280D01*
X505312Y207624D01*
X504000D01*
X503344Y208280D01*
Y210248D01*
Y208936D02*
X502032Y207624D01*
X505312Y206312D02*
X505968Y205656D01*
Y204344D01*
X505312Y203688D01*
X504656D01*
X504000Y204344D01*
Y205000D01*
Y204344D01*
X503344Y203688D01*
X502688D01*
X502032Y204344D01*
Y205656D01*
X502688Y206312D01*
X505968Y199752D02*
X505312Y201064D01*
X504000Y202376D01*
X502688D01*
X502032Y201720D01*
Y200408D01*
X502688Y199752D01*
X503344D01*
X504000Y200408D01*
Y202376D01*
X704688Y206376D02*
X704032Y205720D01*
Y204408D01*
X704688Y203752D01*
X707312D01*
X707968Y204408D01*
Y205720D01*
X707312Y206376D01*
X707968Y209656D02*
X704032D01*
X706000Y207688D01*
Y210312D01*
X704688Y211624D02*
X704032Y212280D01*
Y213592D01*
X704688Y214248D01*
X707312D01*
X707968Y213592D01*
Y212280D01*
X707312Y211624D01*
X704688D01*
X486532Y185748D02*
X490468D01*
Y183780D01*
X489812Y183124D01*
X488500D01*
X487844Y183780D01*
Y185748D01*
Y184436D02*
X486532Y183124D01*
Y179188D02*
Y181812D01*
X489156Y179188D01*
X489812D01*
X490468Y179844D01*
Y181156D01*
X489812Y181812D01*
X490468Y175252D02*
Y177876D01*
X488500D01*
X489156Y176564D01*
Y175908D01*
X488500Y175252D01*
X487188D01*
X486532Y175908D01*
Y177220D01*
X487188Y177876D01*
X630688Y304032D02*
X630032Y303376D01*
Y302064D01*
X630688Y301408D01*
X633312D01*
X633968Y302064D01*
Y303376D01*
X633312Y304032D01*
X630688Y305344D02*
X630032Y306000D01*
Y307312D01*
X630688Y307968D01*
X631344D01*
X632000Y307312D01*
Y306656D01*
Y307312D01*
X632656Y307968D01*
X633312D01*
X633968Y307312D01*
Y306000D01*
X633312Y305344D01*
X633968Y309280D02*
Y310592D01*
Y309936D01*
X630032D01*
X630688Y309280D01*
X541248Y251968D02*
Y248032D01*
X539280D01*
X538624Y248688D01*
Y250000D01*
X539280Y250656D01*
X541248D01*
X539936D02*
X538624Y251968D01*
X534688D02*
X537312D01*
X534688Y249344D01*
Y248688D01*
X535344Y248032D01*
X536656D01*
X537312Y248688D01*
X533376Y251312D02*
X532720Y251968D01*
X531408D01*
X530752Y251312D01*
Y248688D01*
X531408Y248032D01*
X532720D01*
X533376Y248688D01*
Y249344D01*
X532720Y250000D01*
X530752D01*
X546252Y248032D02*
Y251968D01*
X548220D01*
X548876Y251312D01*
Y250000D01*
X548220Y249344D01*
X546252D01*
X547564D02*
X548876Y248032D01*
X550188Y251312D02*
X550844Y251968D01*
X552156D01*
X552812Y251312D01*
Y250656D01*
X552156Y250000D01*
X551500D01*
X552156D01*
X552812Y249344D01*
Y248688D01*
X552156Y248032D01*
X550844D01*
X550188Y248688D01*
X554124Y251312D02*
X554780Y251968D01*
X556092D01*
X556748Y251312D01*
Y248688D01*
X556092Y248032D01*
X554780D01*
X554124Y248688D01*
Y251312D01*
X663688Y303376D02*
X663032Y302720D01*
Y301408D01*
X663688Y300752D01*
X666312D01*
X666968Y301408D01*
Y302720D01*
X666312Y303376D01*
X663688Y304688D02*
X663032Y305344D01*
Y306656D01*
X663688Y307312D01*
X664344D01*
X665000Y306656D01*
Y306000D01*
Y306656D01*
X665656Y307312D01*
X666312D01*
X666968Y306656D01*
Y305344D01*
X666312Y304688D01*
X666968Y310592D02*
X663032D01*
X665000Y308624D01*
Y311248D01*
X641688Y303376D02*
X641032Y302720D01*
Y301408D01*
X641688Y300752D01*
X644312D01*
X644968Y301408D01*
Y302720D01*
X644312Y303376D01*
X641688Y304688D02*
X641032Y305344D01*
Y306656D01*
X641688Y307312D01*
X642344D01*
X643000Y306656D01*
Y306000D01*
Y306656D01*
X643656Y307312D01*
X644312D01*
X644968Y306656D01*
Y305344D01*
X644312Y304688D01*
X641688Y308624D02*
X641032Y309280D01*
Y310592D01*
X641688Y311248D01*
X642344D01*
X643000Y310592D01*
Y309936D01*
Y310592D01*
X643656Y311248D01*
X644312D01*
X644968Y310592D01*
Y309280D01*
X644312Y308624D01*
X688876Y226812D02*
X688220Y227468D01*
X686908D01*
X686252Y226812D01*
Y224188D01*
X686908Y223532D01*
X688220D01*
X688876Y224188D01*
X690188Y226812D02*
X690844Y227468D01*
X692156D01*
X692812Y226812D01*
Y226156D01*
X692156Y225500D01*
X691500D01*
X692156D01*
X692812Y224844D01*
Y224188D01*
X692156Y223532D01*
X690844D01*
X690188Y224188D01*
X696748Y227468D02*
X695436Y226812D01*
X694124Y225500D01*
Y224188D01*
X694780Y223532D01*
X696092D01*
X696748Y224188D01*
Y224844D01*
X696092Y225500D01*
X694124D01*
X610376Y371812D02*
X609720Y372468D01*
X608408D01*
X607752Y371812D01*
Y369188D01*
X608408Y368532D01*
X609720D01*
X610376Y369188D01*
X614312Y368532D02*
X611688D01*
X614312Y371156D01*
Y371812D01*
X613656Y372468D01*
X612344D01*
X611688Y371812D01*
X617592Y368532D02*
Y372468D01*
X615624Y370500D01*
X618248D01*
X551580Y288032D02*
Y291968D01*
X553548D01*
X554204Y291312D01*
Y290000D01*
X553548Y289344D01*
X551580D01*
X552892D02*
X554204Y288032D01*
X555516D02*
X556828D01*
X556172D01*
Y291968D01*
X555516Y291312D01*
X558796Y288688D02*
X559452Y288032D01*
X560764D01*
X561420Y288688D01*
Y291312D01*
X560764Y291968D01*
X559452D01*
X558796Y291312D01*
Y290656D01*
X559452Y290000D01*
X561420D01*
X534688Y290844D02*
X534032Y290188D01*
Y288876D01*
X534688Y288220D01*
X537312D01*
X537968Y288876D01*
Y290188D01*
X537312Y290844D01*
Y292156D02*
X537968Y292812D01*
Y294124D01*
X537312Y294780D01*
X534688D01*
X534032Y294124D01*
Y292812D01*
X534688Y292156D01*
X535344D01*
X536000Y292812D01*
Y294780D01*
X682876Y371812D02*
X682220Y372468D01*
X680908D01*
X680252Y371812D01*
Y369188D01*
X680908Y368532D01*
X682220D01*
X682876Y369188D01*
X686812Y368532D02*
X684188D01*
X686812Y371156D01*
Y371812D01*
X686156Y372468D01*
X684844D01*
X684188Y371812D01*
X690748Y372468D02*
X688124D01*
Y370500D01*
X689436Y371156D01*
X690092D01*
X690748Y370500D01*
Y369188D01*
X690092Y368532D01*
X688780D01*
X688124Y369188D01*
X688876Y216312D02*
X688220Y216968D01*
X686908D01*
X686252Y216312D01*
Y213688D01*
X686908Y213032D01*
X688220D01*
X688876Y213688D01*
X690188Y216312D02*
X690844Y216968D01*
X692156D01*
X692812Y216312D01*
Y215656D01*
X692156Y215000D01*
X691500D01*
X692156D01*
X692812Y214344D01*
Y213688D01*
X692156Y213032D01*
X690844D01*
X690188Y213688D01*
X694124Y216312D02*
X694780Y216968D01*
X696092D01*
X696748Y216312D01*
Y215656D01*
X696092Y215000D01*
X696748Y214344D01*
Y213688D01*
X696092Y213032D01*
X694780D01*
X694124Y213688D01*
Y214344D01*
X694780Y215000D01*
X694124Y215656D01*
Y216312D01*
X694780Y215000D02*
X696092D01*
X686752Y202532D02*
Y206468D01*
X688720D01*
X689376Y205812D01*
Y204500D01*
X688720Y203844D01*
X686752D01*
X688064D02*
X689376Y202532D01*
X692656D02*
Y206468D01*
X690688Y204500D01*
X693312D01*
X696592Y202532D02*
Y206468D01*
X694624Y204500D01*
X697248D01*
X652688Y303376D02*
X652032Y302720D01*
Y301408D01*
X652688Y300752D01*
X655312D01*
X655968Y301408D01*
Y302720D01*
X655312Y303376D01*
X652688Y304688D02*
X652032Y305344D01*
Y306656D01*
X652688Y307312D01*
X653344D01*
X654000Y306656D01*
Y306000D01*
Y306656D01*
X654656Y307312D01*
X655312D01*
X655968Y306656D01*
Y305344D01*
X655312Y304688D01*
X655968Y311248D02*
Y308624D01*
X653344Y311248D01*
X652688D01*
X652032Y310592D01*
Y309280D01*
X652688Y308624D01*
X551252Y299032D02*
Y302968D01*
X553220D01*
X553876Y302312D01*
Y301000D01*
X553220Y300344D01*
X551252D01*
X552564D02*
X553876Y299032D01*
X557812D02*
X555188D01*
X557812Y301656D01*
Y302312D01*
X557156Y302968D01*
X555844D01*
X555188Y302312D01*
X559124D02*
X559780Y302968D01*
X561092D01*
X561748Y302312D01*
Y299688D01*
X561092Y299032D01*
X559780D01*
X559124Y299688D01*
Y302312D01*
X479248Y251968D02*
Y248032D01*
X477280D01*
X476624Y248688D01*
Y250000D01*
X477280Y250656D01*
X479248D01*
X477936D02*
X476624Y251968D01*
X475312Y248688D02*
X474656Y248032D01*
X473344D01*
X472688Y248688D01*
Y249344D01*
X473344Y250000D01*
X474000D01*
X473344D01*
X472688Y250656D01*
Y251312D01*
X473344Y251968D01*
X474656D01*
X475312Y251312D01*
X471376Y248688D02*
X470720Y248032D01*
X469408D01*
X468752Y248688D01*
Y249344D01*
X469408Y250000D01*
X470064D01*
X469408D01*
X468752Y250656D01*
Y251312D01*
X469408Y251968D01*
X470720D01*
X471376Y251312D01*
X484252Y248032D02*
Y251968D01*
X486220D01*
X486876Y251312D01*
Y250000D01*
X486220Y249344D01*
X484252D01*
X485564D02*
X486876Y248032D01*
X488188Y251312D02*
X488844Y251968D01*
X490156D01*
X490812Y251312D01*
Y250656D01*
X490156Y250000D01*
X489500D01*
X490156D01*
X490812Y249344D01*
Y248688D01*
X490156Y248032D01*
X488844D01*
X488188Y248688D01*
X494092Y248032D02*
Y251968D01*
X492124Y250000D01*
X494748D01*
X538080Y262532D02*
Y266468D01*
X540048D01*
X540704Y265812D01*
Y264500D01*
X540048Y263844D01*
X538080D01*
X539392D02*
X540704Y262532D01*
X542016D02*
X543328D01*
X542672D01*
Y266468D01*
X542016Y265812D01*
X547920Y266468D02*
X545296D01*
Y264500D01*
X546608Y265156D01*
X547264D01*
X547920Y264500D01*
Y263188D01*
X547264Y262532D01*
X545952D01*
X545296Y263188D01*
X340720Y233468D02*
Y229532D01*
X342688D01*
X343344Y230188D01*
Y232812D01*
X342688Y233468D01*
X340720D01*
X346624Y229532D02*
Y233468D01*
X344656Y231500D01*
X347280D01*
X348468Y151220D02*
X344532D01*
Y153188D01*
X345188Y153844D01*
X346500D01*
X347156Y153188D01*
Y151220D01*
Y152532D02*
X348468Y153844D01*
Y157124D02*
X344532D01*
X346500Y155156D01*
Y157780D01*
X486532Y170008D02*
X490468D01*
Y168040D01*
X489812Y167384D01*
X488500D01*
X487844Y168040D01*
Y170008D01*
Y168696D02*
X486532Y167384D01*
Y163448D02*
Y166072D01*
X489156Y163448D01*
X489812D01*
X490468Y164104D01*
Y165416D01*
X489812Y166072D01*
X490468Y159512D02*
X489812Y160824D01*
X488500Y162136D01*
X487188D01*
X486532Y161480D01*
Y160168D01*
X487188Y159512D01*
X487844D01*
X488500Y160168D01*
Y162136D01*
X476580Y261532D02*
Y265468D01*
X478548D01*
X479204Y264812D01*
Y263500D01*
X478548Y262844D01*
X476580D01*
X477892D02*
X479204Y261532D01*
X480516D02*
X481828D01*
X481172D01*
Y265468D01*
X480516Y264812D01*
X483796D02*
X484452Y265468D01*
X485764D01*
X486420Y264812D01*
Y264156D01*
X485764Y263500D01*
X485108D01*
X485764D01*
X486420Y262844D01*
Y262188D01*
X485764Y261532D01*
X484452D01*
X483796Y262188D01*
X505080Y261532D02*
Y265468D01*
X507048D01*
X507704Y264812D01*
Y263500D01*
X507048Y262844D01*
X505080D01*
X506392D02*
X507704Y261532D01*
X509016D02*
X510328D01*
X509672D01*
Y265468D01*
X509016Y264812D01*
X514264Y261532D02*
Y265468D01*
X512296Y263500D01*
X514920D01*
X509592Y251968D02*
Y248032D01*
X507624D01*
X506968Y248688D01*
Y250000D01*
X507624Y250656D01*
X509592D01*
X508280D02*
X506968Y251968D01*
X505656Y248688D02*
X505000Y248032D01*
X503688D01*
X503032Y248688D01*
Y249344D01*
X503688Y250000D01*
X504344D01*
X503688D01*
X503032Y250656D01*
Y251312D01*
X503688Y251968D01*
X505000D01*
X505656Y251312D01*
X501720Y251968D02*
X500408D01*
X501064D01*
Y248032D01*
X501720Y248688D01*
X517580Y285532D02*
Y289468D01*
X519548D01*
X520204Y288812D01*
Y287500D01*
X519548Y286844D01*
X517580D01*
X518892D02*
X520204Y285532D01*
X521516D02*
X522828D01*
X522172D01*
Y289468D01*
X521516Y288812D01*
X527420Y289468D02*
X526108Y288812D01*
X524796Y287500D01*
Y286188D01*
X525452Y285532D01*
X526764D01*
X527420Y286188D01*
Y286844D01*
X526764Y287500D01*
X524796D01*
X515252Y248032D02*
Y251968D01*
X517220D01*
X517876Y251312D01*
Y250000D01*
X517220Y249344D01*
X515252D01*
X516564D02*
X517876Y248032D01*
X519188Y251312D02*
X519844Y251968D01*
X521156D01*
X521812Y251312D01*
Y250656D01*
X521156Y250000D01*
X520500D01*
X521156D01*
X521812Y249344D01*
Y248688D01*
X521156Y248032D01*
X519844D01*
X519188Y248688D01*
X525748Y248032D02*
X523124D01*
X525748Y250656D01*
Y251312D01*
X525092Y251968D01*
X523780D01*
X523124Y251312D01*
X443296Y313188D02*
X443952Y312532D01*
X445264D01*
X445920Y313188D01*
Y315812D01*
X445264Y316468D01*
X443952D01*
X443296Y315812D01*
X441984Y316468D02*
X440672D01*
X441328D01*
Y312532D01*
X441984Y313188D01*
X436080Y312532D02*
X438704D01*
Y314500D01*
X437392Y313844D01*
X436736D01*
X436080Y314500D01*
Y315812D01*
X436736Y316468D01*
X438048D01*
X438704Y315812D01*
X445780Y327468D02*
Y323532D01*
X443812D01*
X443156Y324188D01*
Y325500D01*
X443812Y326156D01*
X445780D01*
X444468D02*
X443156Y327468D01*
X441844Y324188D02*
X441188Y323532D01*
X439876D01*
X439220Y324188D01*
Y324844D01*
X439876Y325500D01*
X439220Y326156D01*
Y326812D01*
X439876Y327468D01*
X441188D01*
X441844Y326812D01*
Y326156D01*
X441188Y325500D01*
X441844Y324844D01*
Y324188D01*
X441188Y325500D02*
X439876D01*
X345156Y218188D02*
X345812Y217532D01*
X347124D01*
X347780Y218188D01*
Y220812D01*
X347124Y221468D01*
X345812D01*
X345156Y220812D01*
X341220Y217532D02*
X342532Y218188D01*
X343844Y219500D01*
Y220812D01*
X343188Y221468D01*
X341876D01*
X341220Y220812D01*
Y220156D01*
X341876Y219500D01*
X343844D01*
X374571Y205088D02*
X375227Y204432D01*
X376539D01*
X377195Y205088D01*
Y207712D01*
X376539Y208368D01*
X375227D01*
X374571Y207712D01*
X370635Y204432D02*
X373259D01*
Y206400D01*
X371947Y205744D01*
X371291D01*
X370635Y206400D01*
Y207712D01*
X371291Y208368D01*
X372603D01*
X373259Y207712D01*
X507844Y355812D02*
X507188Y356468D01*
X505876D01*
X505220Y355812D01*
Y353188D01*
X505876Y352532D01*
X507188D01*
X507844Y353188D01*
X509156Y356468D02*
X511780D01*
Y355812D01*
X509156Y353188D01*
Y352532D01*
X340720Y241532D02*
Y245468D01*
X342688D01*
X343344Y244812D01*
Y243500D01*
X342688Y242844D01*
X340720D01*
X342032D02*
X343344Y241532D01*
X347280Y245468D02*
X345968Y244812D01*
X344656Y243500D01*
Y242188D01*
X345312Y241532D01*
X346624D01*
X347280Y242188D01*
Y242844D01*
X346624Y243500D01*
X344656D01*
X370844Y151312D02*
X370188Y151968D01*
X368876D01*
X368220Y151312D01*
Y148688D01*
X368876Y148032D01*
X370188D01*
X370844Y148688D01*
X372156Y151312D02*
X372812Y151968D01*
X374124D01*
X374780Y151312D01*
Y150656D01*
X374124Y150000D01*
X373468D01*
X374124D01*
X374780Y149344D01*
Y148688D01*
X374124Y148032D01*
X372812D01*
X372156Y148688D01*
X438704Y304312D02*
X438048Y304968D01*
X436736D01*
X436080Y304312D01*
Y301688D01*
X436736Y301032D01*
X438048D01*
X438704Y301688D01*
X440016Y301032D02*
X441328D01*
X440672D01*
Y304968D01*
X440016Y304312D01*
X445920Y301032D02*
X443296D01*
X445920Y303656D01*
Y304312D01*
X445264Y304968D01*
X443952D01*
X443296Y304312D01*
X353032Y139280D02*
X356968D01*
Y137312D01*
X356312Y136656D01*
X355000D01*
X354344Y137312D01*
Y139280D01*
Y137968D02*
X353032Y136656D01*
X356312Y135344D02*
X356968Y134688D01*
Y133376D01*
X356312Y132720D01*
X355656D01*
X355000Y133376D01*
Y134032D01*
Y133376D01*
X354344Y132720D01*
X353688D01*
X353032Y133376D01*
Y134688D01*
X353688Y135344D01*
M02*
